<svg xmlns="http://www.w3.org/2000/svg" xmlns:xlink="http://www.w3.org/1999/xlink" width="374" zoomAndPan="magnify" viewBox="0 0 841.92 595.499987" height="264" preserveAspectRatio="xMidYMid meet" version="1.0"><defs><clipPath id="d8b2734700"><path d="M 259.496094 0 L 582.378906 0 L 582.378906 594.824219 L 259.496094 594.824219 Z M 259.496094 0 " clip-rule="nonzero"/></clipPath></defs><path fill="#fefdef" d="M 267.992188 535.1875 L 267.992188 59.636719 C 267.992188 31.496094 290.816406 8.6875 318.972656 8.6875 L 522.898438 8.6875 C 551.058594 8.6875 573.882812 31.496094 573.882812 59.636719 L 573.882812 535.1875 C 573.882812 563.328125 551.058594 586.136719 522.898438 586.136719 L 318.972656 586.136719 C 290.816406 586.136719 267.992188 563.328125 267.992188 535.1875 Z M 267.992188 535.1875 " fill-opacity="1" fill-rule="nonzero"/><path fill="#b3b2c3" d="M 573.882812 63.882812 L 573.882812 59.636719 C 573.882812 31.496094 551.058594 8.6875 522.898438 8.6875 L 318.972656 8.6875 C 290.816406 8.6875 267.992188 31.496094 267.992188 59.636719 L 267.992188 63.882812 Z M 573.882812 63.882812 " fill-opacity="1" fill-rule="nonzero"/><path fill="#b3b2c3" d="M 267.992188 530.941406 L 267.992188 535.1875 C 267.992188 563.328125 290.816406 586.136719 318.972656 586.136719 L 522.898438 586.136719 C 551.058594 586.136719 573.882812 563.328125 573.882812 535.1875 L 573.882812 530.941406 Z M 267.992188 530.941406 " fill-opacity="1" fill-rule="nonzero"/><path fill="#a1d3a2" d="M 467.667969 273.941406 L 467.667969 344.117188 C 467.667969 348.804688 463.863281 352.609375 459.171875 352.609375 L 382.699219 352.609375 C 378.011719 352.609375 374.203125 348.804688 374.203125 344.117188 L 374.203125 271.9375 C 374.203125 244.625 397.65625 222.792969 425.523438 225.449219 C 449.824219 227.769531 467.667969 249.550781 467.667969 273.941406 Z M 467.667969 273.941406 " fill-opacity="1" fill-rule="nonzero"/><g clip-path="url(#d8b2734700)"><path fill="#1f212b" d="M 522.898438 594.628906 L 318.972656 594.628906 C 286.175781 594.628906 259.496094 567.957031 259.496094 535.1875 L 259.496094 59.636719 C 259.496094 26.867188 286.175781 0.195312 318.972656 0.195312 L 522.898438 0.195312 C 555.699219 0.195312 582.378906 26.867188 582.378906 59.636719 L 582.378906 535.1875 C 582.378906 567.957031 555.699219 594.628906 522.898438 594.628906 Z M 318.972656 17.175781 C 295.546875 17.175781 276.488281 36.226562 276.488281 59.636719 L 276.488281 535.1875 C 276.488281 558.597656 295.546875 577.644531 318.972656 577.644531 L 522.898438 577.644531 C 546.324219 577.644531 565.382812 558.597656 565.382812 535.1875 L 565.382812 59.636719 C 565.382812 36.226562 546.324219 17.175781 522.898438 17.175781 Z M 318.972656 17.175781 " fill-opacity="1" fill-rule="nonzero"/></g><path fill="#1f212b" d="M 569.632812 535.1875 L 272.242188 535.1875 C 269.894531 535.1875 267.992188 533.285156 267.992188 530.941406 C 267.992188 528.597656 269.894531 526.695312 272.242188 526.695312 L 569.632812 526.695312 C 571.976562 526.695312 573.882812 528.597656 573.882812 530.941406 C 573.882812 533.285156 571.976562 535.1875 569.632812 535.1875 Z M 569.632812 535.1875 " fill-opacity="1" fill-rule="nonzero"/><path fill="#1f212b" d="M 569.632812 68.128906 L 272.242188 68.128906 C 269.894531 68.128906 267.992188 66.226562 267.992188 63.882812 C 267.992188 61.539062 269.894531 59.636719 272.242188 59.636719 L 569.632812 59.636719 C 571.976562 59.636719 573.882812 61.539062 573.882812 63.882812 C 573.882812 66.226562 571.976562 68.128906 569.632812 68.128906 Z M 569.632812 68.128906 " fill-opacity="1" fill-rule="nonzero"/><path fill="#1f212b" d="M 352.960938 331.378906 C 348.269531 331.378906 344.464844 327.582031 344.464844 322.886719 L 344.464844 280.429688 C 344.464844 275.730469 348.269531 271.9375 352.960938 271.9375 C 357.652344 271.9375 361.457031 275.730469 361.457031 280.429688 L 361.457031 322.886719 C 361.457031 327.582031 357.652344 331.378906 352.960938 331.378906 Z M 352.960938 331.378906 " fill-opacity="1" fill-rule="nonzero"/><path fill="#1f212b" d="M 488.910156 331.378906 C 484.222656 331.378906 480.414062 327.582031 480.414062 322.886719 L 480.414062 280.429688 C 480.414062 275.730469 484.222656 271.9375 488.910156 271.9375 C 493.601562 271.9375 497.410156 275.730469 497.410156 280.429688 L 497.410156 322.886719 C 497.410156 327.582031 493.601562 331.378906 488.910156 331.378906 Z M 488.910156 331.378906 " fill-opacity="1" fill-rule="nonzero"/><path fill="#1f212b" d="M 395.445312 382.332031 C 390.753906 382.332031 386.949219 378.535156 386.949219 373.839844 L 386.949219 356.855469 C 386.949219 352.160156 390.753906 348.363281 395.445312 348.363281 C 400.136719 348.363281 403.941406 352.160156 403.941406 356.855469 L 403.941406 373.839844 C 403.941406 378.535156 400.136719 382.332031 395.445312 382.332031 Z M 395.445312 382.332031 " fill-opacity="1" fill-rule="nonzero"/><path fill="#1f212b" d="M 446.425781 382.332031 C 441.738281 382.332031 437.929688 378.535156 437.929688 373.839844 L 437.929688 356.855469 C 437.929688 352.160156 441.738281 348.363281 446.425781 348.363281 C 451.117188 348.363281 454.925781 352.160156 454.925781 356.855469 L 454.925781 373.839844 C 454.925781 378.535156 451.117188 382.332031 446.425781 382.332031 Z M 446.425781 382.332031 " fill-opacity="1" fill-rule="nonzero"/><path fill="#1f212b" d="M 395.285156 237.136719 C 394.019531 237.136719 392.769531 236.574219 391.929688 235.496094 L 379.351562 219.34375 C 377.917969 217.496094 378.246094 214.835938 380.089844 213.390625 C 381.945312 211.941406 384.613281 212.28125 386.054688 214.140625 L 398.632812 230.292969 C 400.066406 232.144531 399.738281 234.800781 397.894531 236.246094 C 397.109375 236.847656 396.195312 237.136719 395.285156 237.136719 Z M 395.285156 237.136719 " fill-opacity="1" fill-rule="nonzero"/><path fill="#1f212b" d="M 447.828125 237.984375 C 447.023438 237.984375 446.207031 237.757812 445.476562 237.273438 C 443.519531 235.972656 442.996094 233.332031 444.292969 231.386719 L 455.628906 214.386719 C 456.921875 212.433594 459.5625 211.898438 461.519531 213.207031 C 463.472656 214.503906 464 217.144531 462.699219 219.089844 L 451.363281 236.089844 C 450.546875 237.324219 449.207031 237.984375 447.828125 237.984375 Z M 447.828125 237.984375 " fill-opacity="1" fill-rule="nonzero"/><path fill="#1f212b" d="M 425.183594 280.429688 L 374.203125 280.429688 C 371.859375 280.429688 369.953125 278.527344 369.953125 276.183594 C 369.953125 273.839844 371.859375 271.9375 374.203125 271.9375 L 425.183594 271.9375 C 427.53125 271.9375 429.433594 273.839844 429.433594 276.183594 C 429.433594 278.527344 427.53125 280.429688 425.183594 280.429688 Z M 425.183594 280.429688 " fill-opacity="1" fill-rule="nonzero"/><path fill="#1f212b" d="M 467.667969 280.429688 L 442.179688 280.429688 C 439.832031 280.429688 437.929688 278.527344 437.929688 276.183594 C 437.929688 273.839844 439.832031 271.9375 442.179688 271.9375 L 467.667969 271.9375 C 470.015625 271.9375 471.917969 273.839844 471.917969 276.183594 C 471.917969 278.527344 470.015625 280.429688 467.667969 280.429688 Z M 467.667969 280.429688 " fill-opacity="1" fill-rule="nonzero"/><path fill="#1f212b" d="M 403.941406 250.707031 C 403.941406 250.984375 403.914062 251.261719 403.859375 251.535156 C 403.804688 251.808594 403.726562 252.074219 403.617188 252.332031 C 403.511719 252.589844 403.382812 252.832031 403.226562 253.066406 C 403.070312 253.296875 402.894531 253.511719 402.699219 253.707031 C 402.5 253.90625 402.285156 254.082031 402.054688 254.238281 C 401.824219 254.390625 401.578125 254.523438 401.320312 254.628906 C 401.0625 254.734375 400.796875 254.816406 400.523438 254.871094 C 400.25 254.925781 399.972656 254.953125 399.695312 254.953125 C 399.414062 254.953125 399.140625 254.925781 398.863281 254.871094 C 398.589844 254.816406 398.324219 254.734375 398.066406 254.628906 C 397.808594 254.523438 397.566406 254.390625 397.332031 254.238281 C 397.101562 254.082031 396.886719 253.90625 396.691406 253.707031 C 396.492188 253.511719 396.316406 253.296875 396.160156 253.066406 C 396.007812 252.832031 395.875 252.589844 395.769531 252.332031 C 395.664062 252.074219 395.582031 251.808594 395.527344 251.535156 C 395.472656 251.261719 395.445312 250.984375 395.445312 250.707031 C 395.445312 250.425781 395.472656 250.152344 395.527344 249.878906 C 395.582031 249.605469 395.664062 249.339844 395.769531 249.082031 C 395.875 248.824219 396.007812 248.578125 396.160156 248.347656 C 396.316406 248.117188 396.492188 247.902344 396.691406 247.703125 C 396.886719 247.507812 397.101562 247.332031 397.332031 247.175781 C 397.566406 247.019531 397.808594 246.890625 398.066406 246.785156 C 398.324219 246.675781 398.589844 246.597656 398.863281 246.542969 C 399.140625 246.488281 399.414062 246.460938 399.695312 246.460938 C 399.972656 246.460938 400.25 246.488281 400.523438 246.542969 C 400.796875 246.597656 401.0625 246.675781 401.320312 246.785156 C 401.578125 246.890625 401.824219 247.019531 402.054688 247.175781 C 402.285156 247.332031 402.5 247.507812 402.699219 247.703125 C 402.894531 247.902344 403.070312 248.117188 403.226562 248.347656 C 403.382812 248.578125 403.511719 248.824219 403.617188 249.082031 C 403.726562 249.339844 403.804688 249.605469 403.859375 249.878906 C 403.914062 250.152344 403.941406 250.425781 403.941406 250.707031 Z M 403.941406 250.707031 " fill-opacity="1" fill-rule="nonzero"/><path fill="#1f212b" d="M 446.425781 250.707031 C 446.425781 250.984375 446.398438 251.261719 446.34375 251.535156 C 446.289062 251.808594 446.210938 252.074219 446.105469 252.332031 C 445.996094 252.589844 445.867188 252.832031 445.710938 253.066406 C 445.554688 253.296875 445.378906 253.511719 445.183594 253.707031 C 444.984375 253.90625 444.769531 254.082031 444.539062 254.238281 C 444.308594 254.390625 444.0625 254.523438 443.804688 254.628906 C 443.546875 254.734375 443.28125 254.816406 443.007812 254.871094 C 442.734375 254.925781 442.457031 254.953125 442.179688 254.953125 C 441.898438 254.953125 441.625 254.925781 441.351562 254.871094 C 441.078125 254.816406 440.808594 254.734375 440.554688 254.628906 C 440.296875 254.523438 440.050781 254.390625 439.816406 254.238281 C 439.585938 254.082031 439.371094 253.90625 439.175781 253.707031 C 438.976562 253.511719 438.800781 253.296875 438.644531 253.066406 C 438.492188 252.832031 438.359375 252.589844 438.253906 252.332031 C 438.148438 252.074219 438.066406 251.808594 438.011719 251.535156 C 437.957031 251.261719 437.929688 250.984375 437.929688 250.707031 C 437.929688 250.425781 437.957031 250.152344 438.011719 249.878906 C 438.066406 249.605469 438.148438 249.339844 438.253906 249.082031 C 438.359375 248.824219 438.492188 248.578125 438.644531 248.347656 C 438.800781 248.117188 438.976562 247.902344 439.175781 247.703125 C 439.371094 247.507812 439.585938 247.332031 439.816406 247.175781 C 440.050781 247.019531 440.296875 246.890625 440.554688 246.785156 C 440.808594 246.675781 441.078125 246.597656 441.351562 246.542969 C 441.625 246.488281 441.898438 246.460938 442.179688 246.460938 C 442.457031 246.460938 442.734375 246.488281 443.007812 246.542969 C 443.28125 246.597656 443.546875 246.675781 443.804688 246.785156 C 444.0625 246.890625 444.308594 247.019531 444.539062 247.175781 C 444.769531 247.332031 444.984375 247.507812 445.183594 247.703125 C 445.378906 247.902344 445.554688 248.117188 445.710938 248.347656 C 445.867188 248.578125 445.996094 248.824219 446.105469 249.082031 C 446.210938 249.339844 446.289062 249.605469 446.34375 249.878906 C 446.398438 250.152344 446.425781 250.425781 446.425781 250.707031 Z M 446.425781 250.707031 " fill-opacity="1" fill-rule="nonzero"/><path fill="#1f212b" d="M 463.421875 38.40625 C 463.421875 38.6875 463.394531 38.960938 463.339844 39.234375 C 463.285156 39.507812 463.203125 39.773438 463.097656 40.03125 C 462.992188 40.289062 462.859375 40.535156 462.703125 40.765625 C 462.550781 41 462.375 41.210938 462.175781 41.410156 C 461.980469 41.605469 461.765625 41.78125 461.53125 41.9375 C 461.300781 42.09375 461.054688 42.222656 460.796875 42.332031 C 460.539062 42.4375 460.273438 42.515625 460 42.570312 C 459.726562 42.625 459.453125 42.652344 459.171875 42.652344 C 458.894531 42.652344 458.617188 42.625 458.34375 42.570312 C 458.070312 42.515625 457.804688 42.4375 457.546875 42.332031 C 457.289062 42.222656 457.042969 42.09375 456.8125 41.9375 C 456.582031 41.78125 456.367188 41.605469 456.167969 41.410156 C 455.972656 41.210938 455.796875 41 455.640625 40.765625 C 455.484375 40.535156 455.355469 40.289062 455.246094 40.03125 C 455.140625 39.773438 455.058594 39.507812 455.003906 39.234375 C 454.953125 38.960938 454.925781 38.6875 454.925781 38.40625 C 454.925781 38.128906 454.953125 37.851562 455.003906 37.578125 C 455.058594 37.304688 455.140625 37.039062 455.246094 36.78125 C 455.355469 36.523438 455.484375 36.28125 455.640625 36.046875 C 455.796875 35.816406 455.972656 35.601562 456.167969 35.40625 C 456.367188 35.207031 456.582031 35.03125 456.8125 34.878906 C 457.042969 34.722656 457.289062 34.589844 457.546875 34.484375 C 457.804688 34.378906 458.070312 34.296875 458.34375 34.242188 C 458.617188 34.1875 458.894531 34.160156 459.171875 34.160156 C 459.453125 34.160156 459.726562 34.1875 460 34.242188 C 460.273438 34.296875 460.539062 34.378906 460.796875 34.484375 C 461.054688 34.589844 461.300781 34.722656 461.53125 34.878906 C 461.765625 35.03125 461.980469 35.207031 462.175781 35.40625 C 462.375 35.601562 462.550781 35.816406 462.703125 36.046875 C 462.859375 36.28125 462.992188 36.523438 463.097656 36.78125 C 463.203125 37.039062 463.285156 37.304688 463.339844 37.578125 C 463.394531 37.851562 463.421875 38.128906 463.421875 38.40625 Z M 463.421875 38.40625 " fill-opacity="1" fill-rule="nonzero"/><path fill="#1f212b" d="M 442.179688 42.652344 L 399.695312 42.652344 C 397.347656 42.652344 395.445312 40.75 395.445312 38.40625 C 395.445312 36.0625 397.347656 34.160156 399.695312 34.160156 L 442.179688 34.160156 C 444.523438 34.160156 446.425781 36.0625 446.425781 38.40625 C 446.425781 40.75 444.523438 42.652344 442.179688 42.652344 Z M 442.179688 42.652344 " fill-opacity="1" fill-rule="nonzero"/><path fill="#1f212b" d="M 471.917969 271.9375 C 471.917969 243.835938 449.050781 220.984375 420.9375 220.984375 C 392.820312 220.984375 369.953125 243.835938 369.953125 271.9375 C 369.953125 272.726562 369.953125 344.117188 369.953125 344.117188 C 369.953125 351.140625 375.671875 356.855469 382.699219 356.855469 L 459.171875 356.855469 C 466.199219 356.855469 471.917969 351.140625 471.917969 344.117188 C 471.917969 344.117188 471.917969 272.726562 471.917969 271.9375 Z M 463.421875 344.117188 C 463.421875 346.453125 461.519531 348.363281 459.171875 348.363281 L 382.699219 348.363281 C 380.355469 348.363281 378.453125 346.453125 378.453125 344.117188 C 378.453125 344.117188 378.453125 272.726562 378.453125 271.9375 C 378.453125 248.523438 397.511719 229.476562 420.9375 229.476562 C 444.363281 229.476562 463.421875 248.523438 463.421875 271.9375 C 463.421875 272.726562 463.421875 344.117188 463.421875 344.117188 Z M 463.421875 344.117188 " fill-opacity="1" fill-rule="nonzero"/></svg>