<svg xmlns="http://www.w3.org/2000/svg" xmlns:xlink="http://www.w3.org/1999/xlink" width="374" zoomAndPan="magnify" viewBox="0 0 841.92 595.499987" height="264" preserveAspectRatio="xMidYMid meet" version="1.0"><defs><clipPath id="26b6f1851d"><path d="M 765 260 L 841.527344 260 L 841.527344 390 L 765 390 Z M 765 260 " clip-rule="nonzero"/></clipPath></defs><path fill="#0b000b" d="M 313.539062 312.859375 C 269.445312 349.863281 212.996094 380.402344 182.089844 389.171875 C 139.320312 401.308594 49.097656 395.117188 10.222656 371.503906 C 7.410156 369.796875 3.738281 370.6875 2.027344 373.492188 C 0.316406 376.300781 1.210938 379.964844 4.019531 381.671875 C 45.042969 406.59375 140.21875 413.433594 185.351562 400.625 C 216.214844 391.867188 271.820312 362.222656 316.640625 325.742188 C 322.847656 344.691406 335.761719 358.988281 357.621094 363.351562 C 391.027344 370.019531 416.105469 358.238281 437.898438 339.503906 C 458.441406 321.847656 475.960938 297.824219 495.265625 278.558594 C 531.769531 242.125 582.371094 203.515625 635.90625 200.179688 C 648.65625 199.382812 658.125 201.710938 665.296875 206.421875 C 672.433594 211.113281 677.230469 218.085938 680.90625 226.136719 C 686.3125 237.964844 689.300781 252.054688 692.703125 265.613281 C 698.375 288.234375 705.589844 309.195312 723.328125 318.796875 C 735.234375 325.238281 752.132812 326.890625 777.082031 319.746094 C 780.25 318.839844 782.082031 315.539062 781.171875 312.382812 C 780.265625 309.222656 776.957031 307.398438 773.789062 308.300781 C 753.015625 314.253906 738.929688 313.695312 729.015625 308.328125 C 721.929688 304.496094 717.171875 298.234375 713.515625 290.757812 C 709.46875 282.472656 706.789062 272.738281 704.277344 262.722656 C 694.851562 225.175781 686.789062 185.074219 635.164062 188.296875 C 578.832031 191.808594 525.242188 231.804688 486.828125 270.140625 C 467.730469 289.203125 450.441406 313.011719 430.113281 330.484375 C 411.042969 346.875 389.195312 357.511719 359.960938 351.675781 C 341.050781 347.902344 330.941406 334.449219 326.632812 317.339844 C 328.382812 315.816406 330.113281 314.28125 331.816406 312.738281 C 363.902344 283.679688 386.925781 251.351562 386.925781 222.46875 C 386.925781 217.054688 387.628906 211.367188 386.910156 206.351562 C 386.269531 201.894531 384.640625 197.886719 381.355469 194.605469 C 367.511719 180.792969 349.839844 188.617188 335.894531 210.226562 C 319.632812 235.421875 307.96875 278.917969 313.539062 312.859375 Z M 324.382812 303.390625 C 353.28125 277.105469 374.996094 248.566406 374.996094 222.46875 C 374.996094 218.300781 375.503906 213.957031 375.28125 209.945312 C 375.140625 207.339844 374.765625 204.867188 372.917969 203.023438 C 370.789062 200.898438 368.601562 199.734375 366.277344 199.652344 C 363.765625 199.5625 361.242188 200.636719 358.691406 202.382812 C 354.261719 205.414062 349.960938 210.414062 345.921875 216.671875 C 332.164062 237.988281 321.90625 273.558594 324.382812 303.390625 Z M 324.382812 303.390625 " fill-opacity="1" fill-rule="evenodd"/><g clip-path="url(#26b6f1851d)"><path fill="#0b000b" d="M 780.949219 271.160156 C 797.121094 280.128906 811.480469 285.925781 820.863281 291.800781 C 825.070312 294.441406 828.238281 296.804688 829.269531 299.992188 C 829.902344 301.964844 829.4375 304.148438 828.179688 306.792969 C 826.332031 310.695312 822.894531 315.183594 817.742188 320.613281 C 810.207031 328.554688 793.152344 351.90625 780.257812 366.878906 C 775.453125 372.449219 771.492188 376.859375 768.949219 378.132812 C 766.003906 379.601562 764.8125 383.179688 766.277344 386.117188 C 767.75 389.054688 771.339844 390.246094 774.285156 388.777344 C 777.570312 387.136719 783.097656 381.84375 789.296875 374.640625 C 802.074219 359.808594 818.941406 336.664062 826.398438 328.800781 C 837.515625 317.09375 841.605469 308.269531 841.46875 301.417969 C 841.324219 294.1875 836.972656 288.171875 828.710938 282.691406 C 819.230469 276.402344 804.015625 270.332031 786.746094 260.753906 C 783.867188 259.15625 780.234375 260.195312 778.628906 263.066406 C 777.035156 265.9375 778.074219 269.566406 780.949219 271.160156 Z M 780.949219 271.160156 " fill-opacity="1" fill-rule="evenodd"/></g></svg>