<svg xmlns="http://www.w3.org/2000/svg" xmlns:xlink="http://www.w3.org/1999/xlink" width="374" zoomAndPan="magnify" viewBox="0 0 841.92 595.499987" height="264" preserveAspectRatio="xMidYMid meet" version="1.0"><defs><clipPath id="7ddc23bcda"><path d="M 143.480469 0 L 697.851562 0 L 697.851562 594.824219 L 143.480469 594.824219 Z M 143.480469 0 " clip-rule="nonzero"/></clipPath></defs><path fill="#94ddde" d="M 695.683594 160.03125 L 695.683594 433.605469 L 420.664062 592.566406 L 145.644531 433.605469 L 145.644531 160.03125 L 146.832031 160.742188 L 419.597656 3.089844 L 693.425781 161.339844 Z M 695.683594 160.03125 " fill-opacity="1" fill-rule="nonzero"/><path fill="#143c3c" d="M 270.382812 387.949219 L 258.503906 399.839844 L 195.777344 462.613281 L 196.253906 462.972656 L 235.21875 423.972656 L 294.5 364.644531 L 369.582031 289.503906 L 369.105469 289.148438 Z M 270.382812 387.949219 " fill-opacity="1" fill-rule="nonzero"/><path fill="#143c3c" d="M 282.265625 387.949219 L 258.503906 411.726562 L 203.261719 467.011719 L 203.855469 467.25 L 235.21875 435.863281 L 306.378906 364.644531 L 377.183594 293.785156 L 376.589844 293.546875 Z M 282.265625 387.949219 " fill-opacity="1" fill-rule="nonzero"/><path fill="#143c3c" d="M 294.144531 387.949219 L 258.503906 423.5 L 210.746094 471.292969 L 211.339844 471.648438 L 235.21875 447.632812 L 318.261719 364.644531 L 377.421875 305.316406 L 384.667969 298.183594 L 384.074219 297.828125 Z M 294.144531 387.949219 " fill-opacity="1" fill-rule="nonzero"/><path fill="#143c3c" d="M 305.90625 387.949219 L 258.503906 435.386719 L 218.351562 475.691406 L 218.824219 475.929688 L 235.21875 459.523438 L 330.023438 364.644531 L 377.421875 317.207031 L 392.152344 302.464844 L 391.679688 302.226562 Z M 305.90625 387.949219 " fill-opacity="1" fill-rule="nonzero"/><path fill="#143c3c" d="M 317.785156 387.949219 L 258.503906 447.277344 L 225.835938 479.972656 L 226.308594 480.328125 L 235.21875 471.414062 L 341.902344 364.644531 L 377.421875 329.097656 L 399.636719 306.863281 L 399.164062 306.507812 Z M 317.785156 387.949219 " fill-opacity="1" fill-rule="nonzero"/><path fill="#143c3c" d="M 329.664062 387.949219 L 258.503906 459.167969 L 233.320312 484.371094 L 233.914062 484.609375 L 235.21875 483.300781 L 353.78125 364.644531 L 377.421875 340.984375 L 407.242188 311.144531 L 406.648438 310.90625 L 400.707031 316.730469 Z M 329.664062 387.949219 " fill-opacity="1" fill-rule="nonzero"/><path fill="#143c3c" d="M 341.546875 387.949219 L 258.503906 470.9375 L 240.804688 488.652344 L 241.398438 489.007812 L 365.660156 364.644531 L 377.421875 352.757812 L 414.726562 315.542969 L 414.132812 315.1875 L 400.707031 328.621094 Z M 341.546875 387.949219 " fill-opacity="1" fill-rule="nonzero"/><path fill="#143c3c" d="M 353.304688 387.949219 L 258.503906 482.828125 L 248.40625 493.050781 L 248.882812 493.289062 L 377.421875 364.644531 L 420.664062 321.488281 L 420.664062 320.65625 L 400.707031 340.511719 Z M 353.304688 387.949219 " fill-opacity="1" fill-rule="nonzero"/><path fill="#143c3c" d="M 246.742188 387.949219 L 180.691406 453.933594 L 181.285156 454.292969 L 235.21875 400.195312 L 270.859375 364.644531 L 354.613281 280.828125 L 354.019531 280.46875 Z M 246.742188 387.949219 " fill-opacity="1" fill-rule="nonzero"/><path fill="#143c3c" d="M 235.21875 269.769531 L 271.929688 233.03125 L 271.453125 232.792969 L 258.503906 245.632812 L 145.644531 358.703125 L 145.644531 359.535156 Z M 235.21875 269.769531 " fill-opacity="1" fill-rule="nonzero"/><path fill="#143c3c" d="M 152.296875 364.644531 L 235.21875 281.660156 L 279.414062 237.429688 L 278.9375 237.074219 L 270.382812 245.632812 L 258.503906 257.523438 L 145.644531 370.472656 L 145.644531 371.304688 Z M 152.296875 364.644531 " fill-opacity="1" fill-rule="nonzero"/><path fill="#143c3c" d="M 164.179688 364.644531 L 235.21875 293.429688 L 287.015625 241.710938 L 286.421875 241.472656 L 282.265625 245.632812 L 258.503906 269.292969 L 145.644531 382.359375 L 145.644531 383.195312 Z M 164.179688 364.644531 " fill-opacity="1" fill-rule="nonzero"/><path fill="#143c3c" d="M 175.9375 364.644531 L 235.21875 305.316406 L 294.5 246.109375 L 293.90625 245.753906 L 258.503906 281.183594 L 151.824219 387.949219 L 145.644531 394.25 L 145.644531 395.082031 Z M 175.9375 364.644531 " fill-opacity="1" fill-rule="nonzero"/><path fill="#143c3c" d="M 187.820312 364.644531 L 235.21875 317.207031 L 301.984375 250.390625 L 301.511719 250.152344 L 258.503906 293.074219 L 163.703125 387.949219 L 145.644531 406.140625 L 145.644531 406.972656 Z M 187.820312 364.644531 " fill-opacity="1" fill-rule="nonzero"/><path fill="#143c3c" d="M 199.699219 364.644531 L 235.21875 329.097656 L 309.46875 254.789062 L 308.996094 254.433594 L 258.503906 304.960938 L 175.582031 387.949219 L 145.644531 417.910156 L 145.644531 418.742188 Z M 199.699219 364.644531 " fill-opacity="1" fill-rule="nonzero"/><path fill="#143c3c" d="M 211.578125 364.644531 L 235.21875 340.984375 L 317.074219 259.070312 L 316.480469 258.832031 L 258.503906 316.730469 L 187.464844 387.949219 L 145.644531 429.800781 L 145.644531 430.632812 Z M 211.578125 364.644531 " fill-opacity="1" fill-rule="nonzero"/><path fill="#143c3c" d="M 223.460938 364.644531 L 235.21875 352.757812 L 324.558594 263.46875 L 323.964844 263.109375 L 258.503906 328.621094 L 199.222656 387.949219 L 150.636719 436.578125 L 151.230469 436.933594 Z M 223.460938 364.644531 " fill-opacity="1" fill-rule="nonzero"/><path fill="#143c3c" d="M 332.042969 267.746094 L 331.566406 267.511719 L 258.503906 340.511719 L 211.105469 387.949219 L 158.238281 440.976562 L 158.714844 441.214844 L 235.21875 364.644531 Z M 332.042969 267.746094 " fill-opacity="1" fill-rule="nonzero"/><path fill="#143c3c" d="M 247.101562 364.644531 L 339.527344 272.148438 L 339.050781 271.789062 L 258.503906 352.398438 L 222.984375 387.949219 L 165.722656 445.253906 L 166.199219 445.613281 L 235.21875 376.535156 Z M 247.101562 364.644531 " fill-opacity="1" fill-rule="nonzero"/><path fill="#143c3c" d="M 377.066406 387.949219 L 263.375 501.730469 L 263.96875 501.96875 L 401.183594 364.644531 L 420.664062 345.148438 L 420.664062 344.316406 Z M 377.066406 387.949219 " fill-opacity="1" fill-rule="nonzero"/><path fill="#143c3c" d="M 388.945312 387.949219 L 270.859375 506.011719 L 271.453125 506.367188 L 377.421875 400.195312 L 413.0625 364.644531 L 420.664062 357.035156 L 420.664062 356.203125 Z M 388.945312 387.949219 " fill-opacity="1" fill-rule="nonzero"/><path fill="#143c3c" d="M 377.066406 530.265625 L 353.542969 553.804688 L 354.136719 554.164062 L 401.183594 506.960938 L 420.664062 487.464844 L 420.664062 486.628906 Z M 377.066406 530.265625 " fill-opacity="1" fill-rule="nonzero"/><path fill="#143c3c" d="M 388.945312 530.265625 L 361.027344 558.203125 L 361.621094 558.441406 L 377.421875 542.628906 L 413.0625 506.960938 L 420.664062 499.351562 L 420.664062 498.519531 Z M 388.945312 530.265625 " fill-opacity="1" fill-rule="nonzero"/><path fill="#143c3c" d="M 235.21875 257.878906 L 264.445312 228.75 L 263.851562 228.394531 L 246.742188 245.632812 L 145.644531 346.8125 L 145.644531 347.644531 Z M 235.21875 257.878906 " fill-opacity="1" fill-rule="nonzero"/><path fill="#143c3c" d="M 181.285156 180.597656 L 145.644531 216.265625 L 145.644531 217.097656 L 181.761719 180.957031 Z M 181.285156 180.597656 " fill-opacity="1" fill-rule="nonzero"/><path fill="#143c3c" d="M 152.296875 222.332031 L 189.246094 185.234375 L 188.769531 185 L 145.644531 228.15625 L 145.644531 228.988281 Z M 152.296875 222.332031 " fill-opacity="1" fill-rule="nonzero"/><path fill="#143c3c" d="M 164.179688 222.332031 L 196.847656 189.636719 L 196.253906 189.277344 L 145.644531 240.046875 L 145.644531 240.878906 Z M 164.179688 222.332031 " fill-opacity="1" fill-rule="nonzero"/><path fill="#143c3c" d="M 175.9375 222.332031 L 204.332031 193.914062 L 203.738281 193.675781 L 151.824219 245.632812 L 145.644531 251.933594 L 145.644531 252.765625 Z M 175.9375 222.332031 " fill-opacity="1" fill-rule="nonzero"/><path fill="#143c3c" d="M 187.820312 222.332031 L 211.816406 198.3125 L 211.339844 197.957031 L 163.703125 245.632812 L 145.644531 263.707031 L 145.644531 264.65625 Z M 187.820312 222.332031 " fill-opacity="1" fill-rule="nonzero"/><path fill="#143c3c" d="M 199.699219 222.332031 L 219.300781 202.59375 L 218.824219 202.355469 L 175.582031 245.632812 L 145.644531 275.59375 L 145.644531 276.425781 Z M 199.699219 222.332031 " fill-opacity="1" fill-rule="nonzero"/><path fill="#143c3c" d="M 211.578125 222.332031 L 226.902344 206.992188 L 226.308594 206.636719 L 187.464844 245.632812 L 145.644531 287.484375 L 145.644531 288.316406 Z M 211.578125 222.332031 " fill-opacity="1" fill-rule="nonzero"/><path fill="#143c3c" d="M 223.460938 222.332031 L 234.386719 211.390625 L 233.792969 211.035156 L 199.222656 245.632812 L 145.644531 299.375 L 145.644531 300.207031 Z M 223.460938 222.332031 " fill-opacity="1" fill-rule="nonzero"/><path fill="#143c3c" d="M 241.871094 215.671875 L 241.398438 215.316406 L 211.105469 245.632812 L 145.644531 311.261719 L 145.644531 312.09375 L 235.21875 222.332031 Z M 241.871094 215.671875 " fill-opacity="1" fill-rule="nonzero"/><path fill="#143c3c" d="M 247.101562 222.332031 L 249.355469 220.070312 L 248.882812 219.714844 L 222.984375 245.632812 L 145.644531 323.035156 L 145.644531 323.867188 L 235.21875 234.21875 Z M 247.101562 222.332031 " fill-opacity="1" fill-rule="nonzero"/><path fill="#143c3c" d="M 173.683594 176.320312 L 145.644531 204.496094 L 145.644531 205.328125 L 174.277344 176.558594 Z M 173.683594 176.320312 " fill-opacity="1" fill-rule="nonzero"/><path fill="#143c3c" d="M 151.230469 163.242188 L 145.644531 168.828125 L 145.644531 169.660156 L 151.703125 163.597656 Z M 151.230469 163.242188 " fill-opacity="1" fill-rule="nonzero"/><path fill="#143c3c" d="M 158.714844 167.640625 L 145.644531 180.71875 L 145.644531 181.550781 L 159.1875 167.878906 Z M 158.714844 167.640625 " fill-opacity="1" fill-rule="nonzero"/><path fill="#143c3c" d="M 166.199219 171.917969 L 145.644531 192.605469 L 145.644531 193.441406 L 166.792969 172.277344 Z M 166.199219 171.917969 " fill-opacity="1" fill-rule="nonzero"/><path fill="#143c3c" d="M 400.707031 530.265625 L 368.632812 562.484375 L 369.105469 562.839844 L 377.421875 554.398438 L 420.664062 511.242188 L 420.664062 510.410156 Z M 400.707031 530.265625 " fill-opacity="1" fill-rule="nonzero"/><path fill="#143c3c" d="M 412.585938 530.265625 L 400.707031 542.152344 L 376.117188 566.882812 L 376.589844 567.121094 L 377.421875 566.289062 L 420.664062 523.132812 L 420.664062 522.296875 Z M 412.585938 530.265625 " fill-opacity="1" fill-rule="nonzero"/><path fill="#143c3c" d="M 383.601562 571.164062 L 384.195312 571.519531 L 420.664062 535.019531 L 420.664062 534.070312 L 400.707031 554.042969 Z M 383.601562 571.164062 " fill-opacity="1" fill-rule="nonzero"/><path fill="#143c3c" d="M 391.085938 575.5625 L 391.679688 575.800781 L 420.664062 546.789062 L 420.664062 545.957031 L 400.707031 565.933594 Z M 391.085938 575.5625 " fill-opacity="1" fill-rule="nonzero"/><path fill="#143c3c" d="M 398.6875 579.84375 L 399.164062 580.199219 L 420.664062 558.679688 L 420.664062 557.847656 L 400.707031 577.703125 Z M 398.6875 579.84375 " fill-opacity="1" fill-rule="nonzero"/><path fill="#143c3c" d="M 406.648438 584.480469 L 420.664062 570.570312 L 420.664062 569.738281 L 406.171875 584.242188 Z M 406.648438 584.480469 " fill-opacity="1" fill-rule="nonzero"/><path fill="#143c3c" d="M 414.25 588.878906 L 420.664062 582.457031 L 420.664062 581.625 L 413.65625 588.523438 Z M 414.25 588.878906 " fill-opacity="1" fill-rule="nonzero"/><path fill="#143c3c" d="M 400.707031 387.949219 L 278.464844 510.410156 L 278.9375 510.648438 L 282.621094 506.960938 L 377.421875 412.085938 L 420.664062 368.925781 L 420.664062 368.09375 Z M 400.707031 387.949219 " fill-opacity="1" fill-rule="nonzero"/><path fill="#143c3c" d="M 412.585938 387.949219 L 400.707031 399.839844 L 285.945312 514.691406 L 286.421875 515.046875 L 294.5 506.960938 L 377.421875 423.972656 L 420.664062 380.816406 L 420.664062 379.984375 Z M 412.585938 387.949219 " fill-opacity="1" fill-rule="nonzero"/><path fill="#143c3c" d="M 293.429688 519.089844 L 294.027344 519.445312 L 306.378906 506.960938 L 377.421875 435.863281 L 420.664062 392.585938 L 420.664062 391.753906 L 400.707031 411.726562 Z M 293.429688 519.089844 " fill-opacity="1" fill-rule="nonzero"/><path fill="#143c3c" d="M 300.914062 523.367188 L 301.511719 523.726562 L 318.261719 506.960938 L 377.421875 447.632812 L 420.664062 404.476562 L 420.664062 403.644531 L 400.707031 423.5 Z M 300.914062 523.367188 " fill-opacity="1" fill-rule="nonzero"/><path fill="#143c3c" d="M 308.519531 527.769531 L 308.996094 528.125 L 330.023438 506.960938 L 377.421875 459.523438 L 420.664062 416.363281 L 420.664062 415.53125 L 400.707031 435.386719 Z M 308.519531 527.769531 " fill-opacity="1" fill-rule="nonzero"/><path fill="#143c3c" d="M 317.785156 530.265625 L 316.003906 532.046875 L 316.480469 532.40625 L 341.902344 506.960938 L 377.421875 471.414062 L 420.664062 428.253906 L 420.664062 427.421875 L 400.707031 447.277344 Z M 317.785156 530.265625 " fill-opacity="1" fill-rule="nonzero"/><path fill="#143c3c" d="M 329.664062 530.265625 L 323.488281 536.445312 L 324.082031 536.804688 L 353.78125 506.960938 L 377.421875 483.300781 L 420.664062 440.023438 L 420.664062 439.191406 L 400.707031 459.167969 Z M 329.664062 530.265625 " fill-opacity="1" fill-rule="nonzero"/><path fill="#143c3c" d="M 341.546875 530.265625 L 330.972656 540.847656 L 331.566406 541.082031 L 365.660156 506.960938 L 377.421875 495.070312 L 420.664062 451.914062 L 420.664062 451.082031 L 400.707031 470.9375 Z M 341.546875 530.265625 " fill-opacity="1" fill-rule="nonzero"/><path fill="#143c3c" d="M 353.304688 530.265625 L 338.574219 545.125 L 339.050781 545.484375 L 377.421875 506.960938 L 420.664062 463.804688 L 420.664062 462.972656 L 400.707031 482.828125 Z M 353.304688 530.265625 " fill-opacity="1" fill-rule="nonzero"/><path fill="#143c3c" d="M 365.1875 530.265625 L 346.058594 549.527344 L 346.535156 549.761719 L 377.421875 518.851562 L 389.300781 506.960938 L 420.664062 475.691406 L 420.664062 474.859375 L 400.707031 494.714844 Z M 365.1875 530.265625 " fill-opacity="1" fill-rule="nonzero"/><path fill="#143c3c" d="M 258.980469 364.644531 L 347.128906 276.425781 L 346.535156 276.1875 L 234.863281 387.949219 L 173.207031 449.65625 L 173.800781 449.894531 Z M 258.980469 364.644531 " fill-opacity="1" fill-rule="nonzero"/><path fill="#143c3c" d="M 258.503906 387.949219 L 188.292969 458.335938 L 188.769531 458.570312 L 235.21875 412.085938 L 282.621094 364.644531 L 362.097656 285.105469 L 361.621094 284.867188 Z M 258.503906 387.949219 " fill-opacity="1" fill-rule="nonzero"/><path fill="#143c3c" d="M 365.1875 387.949219 L 258.503906 494.714844 L 255.890625 497.332031 L 256.367188 497.6875 L 377.421875 376.535156 L 389.300781 364.644531 L 420.664062 333.378906 L 420.664062 332.542969 L 400.707031 352.398438 Z M 365.1875 387.949219 " fill-opacity="1" fill-rule="nonzero"/><path fill="#143c3c" d="M 256.367188 223.996094 L 234.863281 245.632812 L 145.644531 334.921875 L 145.644531 335.753906 L 256.960938 224.351562 Z M 256.367188 223.996094 " fill-opacity="1" fill-rule="nonzero"/><path fill="#fefefe" d="M 677.984375 273.21875 L 565.242188 338.371094 L 565.242188 273.21875 L 677.984375 208.0625 Z M 677.984375 273.21875 " fill-opacity="1" fill-rule="nonzero"/><path fill="#f7b4a7" d="M 320.160156 261.089844 L 319.210938 260.496094 L 319.210938 356.085938 L 307.570312 368.570312 L 294.976562 340.628906 L 282.382812 354.066406 L 269.789062 326.125 L 257.199219 339.558594 L 247.101562 317.207031 L 247.101562 218.765625 L 248.289062 219.476562 L 521.167969 61.707031 L 593.160156 103.320312 Z M 320.160156 261.089844 " fill-opacity="1" fill-rule="nonzero"/><g clip-path="url(#7ddc23bcda)"><path fill="#143c3c" d="M 677.984375 417.910156 L 605.992188 459.523438 L 605.992188 417.910156 L 677.984375 376.296875 Z M 679.882812 274.40625 L 679.882812 204.734375 L 563.105469 272.148438 L 563.105469 341.820312 Z M 675.964844 211.511719 L 675.964844 272.148438 L 567.144531 335.042969 L 567.144531 274.40625 Z M 697.703125 161.21875 L 697.585938 434.792969 L 420.664062 594.824219 L 143.625 434.792969 L 143.625 158.960938 L 418.765625 0 Z M 249.121094 222.332031 L 249.121094 316.730469 L 257.792969 335.992188 L 270.382812 322.558594 L 282.976562 350.496094 L 295.570312 337.0625 L 308.164062 365.003906 L 317.191406 355.253906 L 317.191406 261.566406 Z M 320.28125 258.710938 L 589.242188 103.320312 L 521.167969 63.964844 L 252.328125 219.359375 Z M 149.683594 160.03125 L 248.40625 217.097656 L 517.367188 61.585938 L 418.644531 4.519531 Z M 418.644531 320.0625 L 321.113281 263.707031 L 321.113281 356.917969 L 306.855469 372.136719 L 294.261719 344.195312 L 281.671875 357.632812 L 269.078125 329.691406 L 256.484375 343.125 L 245.082031 317.683594 L 245.082031 219.953125 L 147.546875 163.476562 L 147.546875 432.535156 L 418.644531 589.117188 Z M 420.664062 316.613281 L 689.746094 161.101562 L 593.398438 105.457031 L 324.320312 260.972656 Z M 693.664062 163.476562 L 422.566406 320.179688 L 422.566406 589.117188 L 693.664062 432.535156 Z M 491.113281 500.898438 L 470.5625 475.335938 L 450.007812 524.675781 L 459.988281 518.851562 L 459.988281 538.585938 L 481.132812 526.460938 L 481.132812 506.84375 Z M 491.113281 500.898438 " fill-opacity="1" fill-rule="nonzero"/></g></svg>