<svg xmlns="http://www.w3.org/2000/svg" xmlns:xlink="http://www.w3.org/1999/xlink" width="374" zoomAndPan="magnify" viewBox="0 0 841.92 595.499987" height="264" preserveAspectRatio="xMidYMid meet" version="1.0"><defs><clipPath id="b93d7a71c2"><path d="M 500 534 L 550 534 L 550 594.824219 L 500 594.824219 Z M 500 534 " clip-rule="nonzero"/></clipPath><clipPath id="836d4a00b7"><path d="M 443 502 L 597 502 L 597 594.824219 L 443 594.824219 Z M 443 502 " clip-rule="nonzero"/></clipPath></defs><path fill="#ed6444" d="M 445.429688 175.796875 C 445.429688 178.222656 445.371094 180.648438 445.25 183.070312 C 445.132812 185.492188 444.953125 187.914062 444.71875 190.328125 C 444.480469 192.742188 444.183594 195.148438 443.828125 197.546875 C 443.472656 199.949219 443.058594 202.335938 442.582031 204.71875 C 442.109375 207.097656 441.578125 209.460938 440.992188 211.816406 C 440.402344 214.167969 439.753906 216.507812 439.050781 218.828125 C 438.347656 221.148438 437.589844 223.453125 436.769531 225.738281 C 435.953125 228.019531 435.082031 230.285156 434.15625 232.523438 C 433.226562 234.765625 432.246094 236.984375 431.207031 239.175781 C 430.171875 241.371094 429.082031 243.535156 427.941406 245.675781 C 426.796875 247.816406 425.601562 249.925781 424.355469 252.007812 C 423.109375 254.085938 421.8125 256.136719 420.464844 258.152344 C 419.121094 260.171875 417.722656 262.152344 416.28125 264.101562 C 414.835938 266.050781 413.34375 267.960938 411.808594 269.839844 C 410.269531 271.714844 408.6875 273.550781 407.058594 275.347656 C 405.429688 277.144531 403.757812 278.902344 402.046875 280.617188 C 400.332031 282.332031 398.578125 284.003906 396.78125 285.632812 C 394.984375 287.261719 393.148438 288.847656 391.273438 290.386719 C 389.402344 291.925781 387.492188 293.417969 385.542969 294.863281 C 383.597656 296.308594 381.613281 297.703125 379.597656 299.050781 C 377.582031 300.398438 375.535156 301.699219 373.457031 302.945312 C 371.378906 304.191406 369.269531 305.386719 367.132812 306.53125 C 364.992188 307.675781 362.828125 308.765625 360.636719 309.800781 C 358.445312 310.839844 356.230469 311.824219 353.992188 312.75 C 351.75 313.679688 349.488281 314.550781 347.207031 315.371094 C 344.925781 316.1875 342.625 316.949219 340.304688 317.652344 C 337.984375 318.355469 335.648438 319.003906 333.296875 319.59375 C 330.945312 320.183594 328.582031 320.714844 326.203125 321.1875 C 323.824219 321.660156 321.4375 322.074219 319.039062 322.429688 C 316.640625 322.785156 314.238281 323.082031 311.824219 323.320312 C 309.414062 323.558594 306.996094 323.738281 304.574219 323.855469 C 302.152344 323.976562 299.730469 324.035156 297.304688 324.035156 C 294.882812 324.035156 292.460938 323.976562 290.039062 323.855469 C 287.617188 323.738281 285.199219 323.558594 282.789062 323.320312 C 280.375 323.082031 277.96875 322.785156 275.570312 322.429688 C 273.175781 322.074219 270.785156 321.660156 268.410156 321.1875 C 266.03125 320.714844 263.667969 320.183594 261.316406 319.59375 C 258.964844 319.003906 256.628906 318.355469 254.308594 317.652344 C 251.988281 316.949219 249.6875 316.1875 247.40625 315.371094 C 245.121094 314.550781 242.859375 313.679688 240.621094 312.75 C 238.382812 311.824219 236.167969 310.839844 233.976562 309.800781 C 231.785156 308.765625 229.617188 307.675781 227.480469 306.53125 C 225.34375 305.386719 223.234375 304.191406 221.15625 302.945312 C 219.074219 301.699219 217.027344 300.398438 215.011719 299.050781 C 212.996094 297.703125 211.015625 296.308594 209.070312 294.863281 C 207.121094 293.417969 205.210938 291.925781 203.335938 290.386719 C 201.464844 288.847656 199.628906 287.261719 197.832031 285.632812 C 196.035156 284.003906 194.28125 282.332031 192.566406 280.617188 C 190.851562 278.902344 189.179688 277.144531 187.554688 275.347656 C 185.925781 273.550781 184.34375 271.714844 182.804688 269.839844 C 181.265625 267.960938 179.777344 266.050781 178.332031 264.101562 C 176.886719 262.152344 175.492188 260.171875 174.144531 258.152344 C 172.796875 256.136719 171.503906 254.085938 170.253906 252.007812 C 169.007812 249.925781 167.816406 247.816406 166.671875 245.675781 C 165.53125 243.535156 164.441406 241.371094 163.402344 239.175781 C 162.367188 236.984375 161.386719 234.765625 160.457031 232.523438 C 159.53125 230.285156 158.65625 228.019531 157.839844 225.738281 C 157.023438 223.453125 156.265625 221.148438 155.558594 218.828125 C 154.855469 216.507812 154.210938 214.167969 153.621094 211.816406 C 153.03125 209.460938 152.5 207.097656 152.027344 204.71875 C 151.554688 202.335938 151.140625 199.949219 150.785156 197.546875 C 150.429688 195.148438 150.132812 192.742188 149.894531 190.328125 C 149.65625 187.914062 149.480469 185.492188 149.359375 183.070312 C 149.242188 180.648438 149.183594 178.222656 149.183594 175.796875 C 149.183594 173.371094 149.242188 170.945312 149.359375 168.523438 C 149.480469 166.101562 149.65625 163.683594 149.894531 161.265625 C 150.132812 158.851562 150.429688 156.445312 150.785156 154.046875 C 151.140625 151.644531 151.554688 149.257812 152.027344 146.878906 C 152.5 144.496094 153.03125 142.132812 153.621094 139.777344 C 154.210938 137.425781 154.855469 135.085938 155.558594 132.765625 C 156.265625 130.445312 157.023438 128.140625 157.839844 125.855469 C 158.65625 123.574219 159.53125 121.308594 160.457031 119.070312 C 161.386719 116.828125 162.367188 114.609375 163.402344 112.417969 C 164.441406 110.222656 165.53125 108.058594 166.671875 105.917969 C 167.816406 103.777344 169.007812 101.667969 170.253906 99.585938 C 171.503906 97.507812 172.796875 95.457031 174.144531 93.441406 C 175.492188 91.421875 176.886719 89.441406 178.332031 87.492188 C 179.777344 85.542969 181.265625 83.632812 182.804688 81.757812 C 184.34375 79.878906 185.925781 78.042969 187.554688 76.246094 C 189.179688 74.449219 190.851562 72.691406 192.566406 70.976562 C 194.28125 69.261719 196.035156 67.589844 197.832031 65.960938 C 199.628906 64.332031 201.464844 62.746094 203.335938 61.207031 C 205.210938 59.667969 207.121094 58.175781 209.070312 56.730469 C 211.015625 55.285156 212.996094 53.890625 215.011719 52.542969 C 217.027344 51.195312 219.074219 49.898438 221.15625 48.648438 C 223.234375 47.402344 225.34375 46.207031 227.480469 45.0625 C 229.617188 43.917969 231.785156 42.828125 233.976562 41.792969 C 236.167969 40.753906 238.382812 39.773438 240.621094 38.84375 C 242.859375 37.914062 245.121094 37.042969 247.40625 36.226562 C 249.6875 35.40625 251.988281 34.648438 254.308594 33.941406 C 256.628906 33.238281 258.964844 32.589844 261.316406 32 C 263.667969 31.414062 266.03125 30.882812 268.410156 30.40625 C 270.785156 29.933594 273.175781 29.519531 275.570312 29.164062 C 277.96875 28.808594 280.375 28.511719 282.789062 28.273438 C 285.199219 28.035156 287.617188 27.855469 290.039062 27.738281 C 292.460938 27.617188 294.882812 27.558594 297.304688 27.558594 C 299.730469 27.558594 302.152344 27.617188 304.574219 27.738281 C 306.996094 27.855469 309.414062 28.035156 311.824219 28.273438 C 314.238281 28.511719 316.640625 28.808594 319.039062 29.164062 C 321.4375 29.519531 323.824219 29.933594 326.203125 30.40625 C 328.582031 30.882812 330.945312 31.414062 333.296875 32 C 335.648438 32.589844 337.984375 33.238281 340.304688 33.941406 C 342.625 34.648438 344.925781 35.40625 347.207031 36.226562 C 349.488281 37.042969 351.75 37.914062 353.992188 38.84375 C 356.230469 39.773438 358.445312 40.753906 360.636719 41.792969 C 362.828125 42.828125 364.992188 43.917969 367.132812 45.0625 C 369.269531 46.207031 371.378906 47.402344 373.457031 48.648438 C 375.535156 49.898438 377.582031 51.195312 379.597656 52.542969 C 381.613281 53.890625 383.597656 55.285156 385.542969 56.730469 C 387.492188 58.175781 389.402344 59.667969 391.273438 61.207031 C 393.148438 62.746094 394.984375 64.332031 396.78125 65.960938 C 398.578125 67.589844 400.332031 69.261719 402.046875 70.976562 C 403.757812 72.691406 405.429688 74.449219 407.058594 76.246094 C 408.6875 78.042969 410.269531 79.878906 411.808594 81.757812 C 413.34375 83.632812 414.835938 85.542969 416.28125 87.492188 C 417.722656 89.441406 419.121094 91.421875 420.464844 93.441406 C 421.8125 95.457031 423.109375 97.507812 424.355469 99.585938 C 425.601562 101.667969 426.796875 103.777344 427.941406 105.917969 C 429.082031 108.058594 430.171875 110.222656 431.207031 112.417969 C 432.246094 114.609375 433.226562 116.828125 434.15625 119.070312 C 435.082031 121.308594 435.953125 123.574219 436.769531 125.855469 C 437.589844 128.140625 438.347656 130.445312 439.050781 132.765625 C 439.753906 135.085938 440.402344 137.425781 440.992188 139.777344 C 441.578125 142.132812 442.109375 144.496094 442.582031 146.878906 C 443.058594 149.257812 443.472656 151.644531 443.828125 154.046875 C 444.183594 156.445312 444.480469 158.851562 444.71875 161.265625 C 444.953125 163.683594 445.132812 166.101562 445.25 168.523438 C 445.371094 170.945312 445.429688 173.371094 445.429688 175.796875 Z M 445.429688 175.796875 " fill-opacity="1" fill-rule="nonzero"/><path fill="#a7d4ad" d="M 667.617188 400.917969 C 667.617188 403.265625 667.558594 405.605469 667.445312 407.949219 C 667.328125 410.289062 667.15625 412.628906 666.925781 414.960938 C 666.699219 417.292969 666.410156 419.621094 666.066406 421.941406 C 665.722656 424.257812 665.324219 426.570312 664.867188 428.867188 C 664.410156 431.167969 663.894531 433.453125 663.328125 435.730469 C 662.757812 438.003906 662.132812 440.261719 661.453125 442.503906 C 660.773438 444.75 660.039062 446.972656 659.25 449.183594 C 658.460938 451.390625 657.617188 453.578125 656.71875 455.742188 C 655.824219 457.910156 654.875 460.050781 653.871094 462.171875 C 652.871094 464.289062 651.816406 466.382812 650.714844 468.453125 C 649.609375 470.519531 648.453125 472.558594 647.25 474.570312 C 646.046875 476.582031 644.792969 478.5625 643.492188 480.511719 C 642.191406 482.460938 640.839844 484.375 639.445312 486.257812 C 638.050781 488.140625 636.609375 489.988281 635.125 491.800781 C 633.636719 493.613281 632.105469 495.390625 630.535156 497.125 C 628.960938 498.863281 627.347656 500.5625 625.6875 502.21875 C 624.03125 503.878906 622.335938 505.492188 620.601562 507.066406 C 618.863281 508.640625 617.089844 510.171875 615.28125 511.660156 C 613.46875 513.148438 611.621094 514.589844 609.742188 515.988281 C 607.859375 517.382812 605.945312 518.734375 603.996094 520.035156 C 602.046875 521.335938 600.070312 522.589844 598.0625 523.796875 C 596.050781 525.003906 594.011719 526.15625 591.949219 527.261719 C 589.882812 528.367188 587.789062 529.421875 585.671875 530.425781 C 583.554688 531.425781 581.414062 532.375 579.25 533.273438 C 577.082031 534.171875 574.898438 535.015625 572.691406 535.804688 C 570.488281 536.59375 568.261719 537.328125 566.019531 538.011719 C 563.78125 538.691406 561.523438 539.316406 559.25 539.886719 C 556.976562 540.457031 554.691406 540.96875 552.394531 541.425781 C 550.097656 541.882812 547.789062 542.285156 545.472656 542.628906 C 543.152344 542.972656 540.828125 543.257812 538.5 543.488281 C 536.167969 543.71875 533.832031 543.890625 531.492188 544.007812 C 529.152344 544.121094 526.808594 544.179688 524.46875 544.179688 C 522.125 544.179688 519.78125 544.121094 517.441406 544.007812 C 515.101562 543.890625 512.765625 543.71875 510.4375 543.488281 C 508.105469 543.257812 505.78125 542.972656 503.460938 542.628906 C 501.144531 542.285156 498.835938 541.882812 496.539062 541.425781 C 494.242188 540.96875 491.957031 540.457031 489.683594 539.886719 C 487.410156 539.316406 485.15625 538.691406 482.914062 538.011719 C 480.671875 537.328125 478.445312 536.59375 476.242188 535.804688 C 474.035156 535.015625 471.851562 534.171875 469.6875 533.273438 C 467.523438 532.375 465.378906 531.425781 463.261719 530.425781 C 461.144531 529.421875 459.054688 528.367188 456.988281 527.261719 C 454.921875 526.15625 452.882812 525.003906 450.875 523.796875 C 448.863281 522.589844 446.886719 521.335938 444.9375 520.035156 C 442.988281 518.734375 441.074219 517.382812 439.191406 515.988281 C 437.3125 514.589844 435.464844 513.148438 433.652344 511.660156 C 431.84375 510.171875 430.070312 508.640625 428.332031 507.066406 C 426.597656 505.492188 424.902344 503.878906 423.246094 502.21875 C 421.589844 500.5625 419.972656 498.863281 418.398438 497.125 C 416.828125 495.390625 415.296875 493.613281 413.8125 491.800781 C 412.324219 489.988281 410.882812 488.140625 409.488281 486.257812 C 408.09375 484.375 406.742188 482.460938 405.441406 480.511719 C 404.140625 478.5625 402.886719 476.582031 401.683594 474.570312 C 400.480469 472.558594 399.324219 470.519531 398.21875 468.453125 C 397.117188 466.382812 396.0625 464.289062 395.0625 462.171875 C 394.058594 460.050781 393.109375 457.910156 392.214844 455.742188 C 391.316406 453.578125 390.472656 451.390625 389.683594 449.183594 C 388.894531 446.972656 388.160156 444.75 387.480469 442.503906 C 386.800781 440.261719 386.175781 438.003906 385.605469 435.730469 C 385.039062 433.453125 384.523438 431.167969 384.066406 428.867188 C 383.609375 426.570312 383.210938 424.257812 382.867188 421.941406 C 382.523438 419.621094 382.234375 417.292969 382.007812 414.960938 C 381.777344 412.628906 381.605469 410.289062 381.488281 407.949219 C 381.375 405.605469 381.316406 403.265625 381.316406 400.917969 C 381.316406 398.574219 381.375 396.230469 381.488281 393.890625 C 381.605469 391.546875 381.777344 389.210938 382.007812 386.878906 C 382.234375 384.542969 382.523438 382.21875 382.867188 379.898438 C 383.210938 377.578125 383.609375 375.269531 384.066406 372.972656 C 384.523438 370.671875 385.039062 368.382812 385.605469 366.109375 C 386.175781 363.835938 386.800781 361.578125 387.480469 359.332031 C 388.160156 357.089844 388.894531 354.863281 389.683594 352.65625 C 390.472656 350.449219 391.316406 348.261719 392.214844 346.097656 C 393.109375 343.929688 394.058594 341.789062 395.0625 339.667969 C 396.0625 337.546875 397.117188 335.453125 398.21875 333.386719 C 399.324219 331.320312 400.480469 329.28125 401.683594 327.269531 C 402.886719 325.257812 404.140625 323.277344 405.441406 321.328125 C 406.742188 319.378906 408.09375 317.460938 409.488281 315.578125 C 410.882812 313.695312 412.324219 311.847656 413.8125 310.035156 C 415.296875 308.222656 416.828125 306.449219 418.398438 304.710938 C 419.972656 302.976562 421.589844 301.277344 423.246094 299.621094 C 424.902344 297.960938 426.597656 296.34375 428.332031 294.769531 C 430.070312 293.195312 431.84375 291.664062 433.652344 290.179688 C 435.464844 288.691406 437.3125 287.25 439.191406 285.851562 C 441.074219 284.457031 442.988281 283.105469 444.9375 281.804688 C 446.886719 280.5 448.863281 279.246094 450.875 278.042969 C 452.882812 276.835938 454.921875 275.679688 456.988281 274.574219 C 459.054688 273.46875 461.144531 272.417969 463.261719 271.414062 C 465.378906 270.410156 467.523438 269.460938 469.6875 268.566406 C 471.851562 267.667969 474.035156 266.824219 476.242188 266.035156 C 478.445312 265.246094 480.671875 264.507812 482.914062 263.828125 C 485.15625 263.148438 487.410156 262.523438 489.683594 261.953125 C 491.957031 261.382812 494.242188 260.871094 496.539062 260.414062 C 498.835938 259.953125 501.144531 259.554688 503.460938 259.210938 C 505.78125 258.867188 508.105469 258.578125 510.4375 258.351562 C 512.765625 258.121094 515.101562 257.949219 517.441406 257.832031 C 519.78125 257.71875 522.125 257.660156 524.46875 257.660156 C 526.808594 257.660156 529.152344 257.71875 531.492188 257.832031 C 533.832031 257.949219 536.167969 258.121094 538.5 258.351562 C 540.828125 258.578125 543.152344 258.867188 545.472656 259.210938 C 547.789062 259.554688 550.097656 259.953125 552.394531 260.414062 C 554.691406 260.871094 556.976562 261.382812 559.25 261.953125 C 561.523438 262.523438 563.78125 263.148438 566.019531 263.828125 C 568.261719 264.507812 570.488281 265.246094 572.691406 266.035156 C 574.898438 266.824219 577.082031 267.667969 579.25 268.566406 C 581.414062 269.460938 583.554688 270.410156 585.671875 271.414062 C 587.789062 272.417969 589.882812 273.46875 591.949219 274.574219 C 594.011719 275.679688 596.050781 276.835938 598.0625 278.042969 C 600.070312 279.246094 602.046875 280.5 603.996094 281.804688 C 605.945312 283.105469 607.859375 284.457031 609.742188 285.851562 C 611.621094 287.25 613.46875 288.691406 615.28125 290.179688 C 617.089844 291.664062 618.863281 293.195312 620.601562 294.769531 C 622.335938 296.34375 624.03125 297.960938 625.6875 299.621094 C 627.347656 301.277344 628.960938 302.976562 630.535156 304.710938 C 632.105469 306.449219 633.636719 308.222656 635.125 310.035156 C 636.609375 311.847656 638.050781 313.695312 639.445312 315.578125 C 640.839844 317.460938 642.191406 319.378906 643.492188 321.328125 C 644.792969 323.277344 646.046875 325.257812 647.25 327.269531 C 648.453125 329.28125 649.609375 331.320312 650.714844 333.386719 C 651.816406 335.453125 652.871094 337.546875 653.871094 339.667969 C 654.875 341.789062 655.824219 343.929688 656.71875 346.097656 C 657.617188 348.261719 658.460938 350.449219 659.25 352.65625 C 660.039062 354.863281 660.773438 357.089844 661.453125 359.332031 C 662.132812 361.578125 662.757812 363.835938 663.328125 366.109375 C 663.894531 368.382812 664.410156 370.671875 664.867188 372.972656 C 665.324219 375.269531 665.722656 377.578125 666.066406 379.898438 C 666.410156 382.21875 666.699219 384.542969 666.925781 386.878906 C 667.15625 389.210938 667.328125 391.546875 667.445312 393.890625 C 667.558594 396.230469 667.617188 398.574219 667.617188 400.917969 Z M 667.617188 400.917969 " fill-opacity="1" fill-rule="nonzero"/><g clip-path="url(#b93d7a71c2)"><path fill="#a7d4ad" d="M 546.746094 534.238281 C 546.746094 534.238281 527.863281 561.738281 549.96875 594.824219 C 549.96875 594.824219 497.832031 594.144531 500.128906 534.675781 Z M 546.746094 534.238281 " fill-opacity="1" fill-rule="nonzero"/></g><path fill="#504543" d="M 347.605469 155.980469 C 365.789062 152.613281 353.878906 82.234375 353.878906 82.234375 L 303.457031 64.789062 C 303.457031 64.789062 322.71875 160.597656 347.605469 155.980469 Z M 347.605469 155.980469 " fill-opacity="1" fill-rule="nonzero"/><path fill="#ffb699" d="M 345.628906 88.242188 C 352.707031 115.308594 361.707031 169.222656 366.617188 198.175781 C 371.539062 227.214844 363.234375 263.917969 319.203125 268.703125 C 285.78125 272.332031 239.664062 246.921875 208.835938 213.214844 L 197.6875 136.394531 C 193.320312 106.316406 209.484375 77.0625 237.1875 64.613281 C 261.582031 53.648438 289.300781 43.796875 303.597656 47.675781 C 335.1875 56.238281 341.9375 74.105469 345.628906 88.242188 Z M 345.628906 88.242188 " fill-opacity="1" fill-rule="nonzero"/><path fill="#ffb699" d="M 293.289062 242.785156 L 208.835938 213.214844 L 206.277344 292.734375 C 216.03125 300.351562 226.765625 306.769531 238.253906 311.773438 L 292.519531 314.855469 Z M 293.289062 242.785156 " fill-opacity="1" fill-rule="nonzero"/><path fill="#504543" d="M 293.015625 266.511719 L 249.121094 256.101562 L 292.90625 278.910156 Z M 293.015625 266.511719 " fill-opacity="1" fill-rule="nonzero"/><path fill="#a7d4ad" d="M 292.695312 302.820312 C 292.636719 309.113281 287.125 313.957031 280.882812 313.195312 C 251.691406 309.027344 225.226562 293.765625 206.992188 270.578125 L 189.371094 277.304688 C 210.769531 300.082031 239.285156 316.09375 271.363281 321.765625 C 271.824219 332.746094 269.09375 347.058594 256.910156 361.660156 C 256.910156 361.660156 298.707031 365.566406 310.199219 323.46875 C 334.613281 321.363281 357.332031 313.320312 376.917969 300.804688 L 292.96875 271.789062 Z M 292.695312 302.820312 " fill-opacity="1" fill-rule="nonzero"/><path fill="#ffb699" d="M 522.917969 373.199219 L 466.414062 531.894531 C 477.039062 536.617188 488.339844 540.085938 500.136719 542.109375 C 500.246094 544.746094 500.476562 547.246094 500.804688 549.625 L 511.492188 549.625 L 541.539062 545.960938 C 541.847656 544.933594 542.171875 543.957031 542.5 543.050781 C 556.738281 541.257812 570.324219 537.371094 582.945312 531.714844 L 588.042969 373.199219 Z M 522.917969 373.199219 " fill-opacity="1" fill-rule="nonzero"/><path fill="#ffb699" d="M 467.460938 486.816406 L 492.695312 493.632812 C 532.910156 504.5 574.773438 482.925781 589.292969 443.851562 L 612.210938 382.160156 C 628.753906 337.636719 603.476562 288.515625 557.648438 276.132812 C 514.65625 264.515625 470.394531 289.976562 458.785156 333.003906 L 433.324219 427.382812 C 426.351562 453.226562 441.636719 479.839844 467.460938 486.816406 Z M 467.460938 486.816406 " fill-opacity="1" fill-rule="nonzero"/><path fill="#504543" d="M 481.148438 490.515625 L 509.675781 495.96875 L 474.992188 507.804688 Z M 481.148438 490.515625 " fill-opacity="1" fill-rule="nonzero"/><g clip-path="url(#836d4a00b7)"><path fill="#ed6444" d="M 585.089844 502.523438 L 454.882812 502.523438 C 448.5625 502.523438 443.4375 507.652344 443.4375 513.976562 L 443.4375 519.015625 C 460.125 530.503906 479.367188 538.546875 500.136719 542.109375 C 502.28125 594.195312 549.96875 594.824219 549.96875 594.824219 C 535.441406 573.078125 538.617188 553.75 542.5 543.050781 C 562.007812 540.597656 580.289062 534.207031 596.535156 524.714844 L 596.535156 513.976562 C 596.535156 507.652344 591.410156 502.523438 585.089844 502.523438 Z M 585.089844 502.523438 " fill-opacity="1" fill-rule="nonzero"/></g><path fill="#504543" d="M 537.949219 382.078125 C 537.652344 382.078125 537.355469 381.929688 537.183594 381.660156 C 532.3125 373.972656 523.203125 375.921875 522.816406 376.007812 C 522.328125 376.121094 521.84375 375.8125 521.734375 375.324219 C 521.625 374.835938 521.929688 374.351562 522.414062 374.242188 C 522.527344 374.21875 533.148438 371.90625 538.714844 380.6875 C 538.980469 381.109375 538.855469 381.671875 538.433594 381.9375 C 538.285156 382.035156 538.117188 382.078125 537.949219 382.078125 Z M 537.949219 382.078125 " fill-opacity="1" fill-rule="nonzero"/><path fill="#504543" d="M 488.5625 367.921875 C 488.261719 367.921875 487.96875 367.773438 487.796875 367.5 C 482.910156 359.789062 473.527344 361.828125 473.433594 361.851562 C 472.945312 361.960938 472.457031 361.65625 472.347656 361.167969 C 472.234375 360.679688 472.542969 360.195312 473.027344 360.082031 C 473.136719 360.058594 483.757812 357.75 489.324219 366.53125 C 489.59375 366.953125 489.46875 367.511719 489.046875 367.78125 C 488.898438 367.875 488.726562 367.921875 488.5625 367.921875 Z M 488.5625 367.921875 " fill-opacity="1" fill-rule="nonzero"/><path fill="#504543" d="M 488.1875 405.957031 C 487.882812 405.957031 487.585938 405.804688 487.414062 405.527344 L 480.125 393.761719 C 479.902344 393.398438 479.957031 392.925781 480.265625 392.632812 C 501.816406 371.839844 502.625 358.871094 502.632812 358.742188 C 502.652344 358.242188 503.046875 357.863281 503.574219 357.875 C 504.070312 357.894531 504.460938 358.3125 504.441406 358.8125 C 504.421875 359.359375 503.710938 372.332031 482.050781 393.425781 L 488.957031 404.574219 C 489.21875 405 489.085938 405.554688 488.664062 405.820312 C 488.515625 405.914062 488.347656 405.957031 488.1875 405.957031 Z M 488.1875 405.957031 " fill-opacity="1" fill-rule="nonzero"/><path fill="#504543" d="M 494.453125 440.613281 C 498.253906 438.601562 501.871094 435.707031 504.253906 431.53125 L 469.757812 420.679688 C 469.757812 420.679688 468.839844 422.519531 468.824219 425.761719 C 468.765625 438.777344 482.953125 446.695312 494.453125 440.613281 Z M 494.453125 440.613281 " fill-opacity="1" fill-rule="nonzero"/><path fill="#504543" d="M 471.316406 339.277344 C 471.050781 339.277344 470.785156 339.164062 470.609375 338.9375 C 470.296875 338.546875 470.359375 337.980469 470.746094 337.664062 C 470.867188 337.570312 482.671875 328.28125 491.542969 337.292969 C 491.894531 337.652344 491.890625 338.222656 491.535156 338.574219 C 491.175781 338.925781 490.605469 338.921875 490.253906 338.566406 C 482.53125 330.722656 472.3125 338.734375 471.882812 339.082031 C 471.714844 339.214844 471.515625 339.277344 471.316406 339.277344 Z M 471.316406 339.277344 " fill-opacity="1" fill-rule="nonzero"/><path fill="#504543" d="M 445.589844 359.683594 C 445.265625 359.683594 444.953125 359.511719 444.789062 359.207031 C 430.3125 332.175781 429.925781 308.160156 443.648438 287.828125 C 444.015625 287.285156 444.390625 286.730469 444.523438 286.476562 C 444.53125 286.195312 444.664062 285.921875 444.914062 285.75 C 445.324219 285.460938 445.890625 285.566406 446.171875 285.976562 C 446.636719 286.640625 446.261719 287.195312 445.152344 288.84375 C 431.835938 308.574219 432.25 331.957031 446.386719 358.351562 C 446.621094 358.792969 446.457031 359.339844 446.015625 359.578125 C 445.878906 359.652344 445.734375 359.683594 445.589844 359.683594 Z M 444.6875 287.011719 Z M 444.683594 287.007812 Z M 444.683594 287.007812 " fill-opacity="1" fill-rule="nonzero"/><path fill="#504543" d="M 237.914062 152.195312 C 263.5625 138.230469 240.570312 93.769531 240.570312 93.769531 C 240.570312 93.769531 274.761719 114.738281 324.070312 117.355469 C 360.023438 119.261719 385.496094 99.703125 365.488281 82.867188 C 365.488281 82.867188 381.613281 67.894531 359.347656 61.40625 C 345.136719 57.265625 331.257812 53.273438 312.757812 48.628906 C 283.480469 41.28125 255.632812 27.09375 241.542969 30.617188 C 220.878906 35.78125 220.277344 56.714844 220.277344 56.714844 C 220.277344 56.714844 203.519531 39.167969 191.199219 48.382812 C 180.96875 56.039062 208.625 62.714844 208.625 62.714844 C 208.625 62.714844 187.347656 60.742188 180.515625 73.691406 C 169.992188 93.640625 172.3125 101.761719 184.589844 122.121094 C 194.5625 138.652344 181.78125 166.785156 205.941406 195.472656 L 210.546875 185.71875 C 213.527344 175.570312 220.695312 161.574219 237.914062 152.195312 Z M 237.914062 152.195312 " fill-opacity="1" fill-rule="nonzero"/><path fill="#ffb699" d="M 230.015625 162.105469 C 230.015625 162.105469 221.628906 141.121094 198.707031 146.335938 C 191.292969 148.023438 181.3125 158.234375 183.183594 172.496094 C 184.25 180.636719 190.472656 191.464844 205.9375 196.152344 Z M 230.015625 162.105469 " fill-opacity="1" fill-rule="nonzero"/><path fill="#504543" d="M 216.171875 174.640625 L 203.144531 174.640625 C 202.644531 174.640625 202.238281 174.234375 202.238281 173.734375 C 202.238281 173.234375 202.644531 172.828125 203.144531 172.828125 L 214.609375 172.828125 L 205.203125 156.40625 C 204.953125 155.972656 205.101562 155.417969 205.535156 155.167969 C 205.96875 154.917969 206.523438 155.070312 206.773438 155.503906 L 216.957031 173.28125 C 217.121094 173.5625 217.117188 173.910156 216.957031 174.1875 C 216.792969 174.46875 216.496094 174.640625 216.171875 174.640625 Z M 216.171875 174.640625 " fill-opacity="1" fill-rule="nonzero"/><path fill="#504543" d="M 270.902344 144.464844 C 270.664062 144.464844 270.425781 144.371094 270.246094 144.183594 C 269.902344 143.820312 269.914062 143.25 270.277344 142.902344 C 277.800781 135.730469 287.550781 140.542969 287.648438 140.59375 C 288.097656 140.820312 288.273438 141.363281 288.046875 141.808594 C 287.824219 142.253906 287.28125 142.4375 286.832031 142.210938 C 286.480469 142.035156 278.113281 137.9375 271.527344 144.214844 C 271.351562 144.382812 271.125 144.464844 270.902344 144.464844 Z M 270.902344 144.464844 " fill-opacity="1" fill-rule="nonzero"/><path fill="#504543" d="M 313.417969 179.679688 C 313.179688 179.679688 312.945312 179.589844 312.765625 179.40625 C 312.417969 179.046875 312.425781 178.472656 312.785156 178.125 L 322.179688 168.980469 C 306.261719 143.269531 308.707031 130.507812 308.820312 129.972656 C 308.921875 129.484375 309.398438 129.175781 309.894531 129.273438 C 310.382812 129.375 310.695312 129.855469 310.59375 130.34375 C 310.554688 130.535156 308.257812 143.3125 324.101562 168.640625 C 324.328125 169.003906 324.273438 169.472656 323.964844 169.769531 L 314.046875 179.425781 C 313.871094 179.59375 313.644531 179.679688 313.417969 179.679688 Z M 313.417969 179.679688 " fill-opacity="1" fill-rule="nonzero"/><path fill="#504543" d="M 298.738281 211.761719 C 295.535156 208.890625 292.726562 205.207031 291.425781 200.578125 L 327.519531 198.402344 C 327.519531 198.402344 327.964844 200.410156 327.195312 203.554688 C 324.109375 216.203125 308.429688 220.449219 298.738281 211.761719 Z M 298.738281 211.761719 " fill-opacity="1" fill-rule="nonzero"/><path fill="#504543" d="M 321.742188 143.558594 C 321.574219 143.558594 321.40625 143.511719 321.257812 143.414062 C 320.832031 143.148438 320.707031 142.585938 320.976562 142.164062 C 326.210938 133.910156 336.609375 138.988281 336.714844 139.039062 C 337.160156 139.261719 337.34375 139.804688 337.121094 140.253906 C 336.898438 140.703125 336.355469 140.882812 335.90625 140.660156 C 335.542969 140.476562 326.863281 136.265625 322.503906 143.136719 C 322.332031 143.40625 322.039062 143.558594 321.742188 143.558594 Z M 321.742188 143.558594 " fill-opacity="1" fill-rule="nonzero"/><path fill="#504543" d="M 356.445312 132.453125 C 356.335938 132.453125 356.222656 132.433594 356.113281 132.390625 C 355.648438 132.207031 355.421875 131.679688 355.601562 131.214844 C 361.527344 116.125 359.167969 99.210938 359.140625 99.042969 C 359.070312 98.546875 359.414062 98.085938 359.910156 98.015625 C 360.398438 97.941406 360.863281 98.285156 360.933594 98.78125 C 361.035156 99.492188 363.386719 116.34375 357.289062 131.878906 C 357.148438 132.234375 356.808594 132.453125 356.445312 132.453125 Z M 356.445312 132.453125 " fill-opacity="1" fill-rule="nonzero"/><path fill="#504543" d="M 229.640625 162.183594 C 229.300781 162.183594 228.976562 161.992188 228.824219 161.667969 C 228.363281 160.707031 228.363281 160.707031 242.421875 152.789062 C 242.859375 152.542969 243.410156 152.699219 243.652344 153.136719 C 243.898438 153.570312 243.746094 154.125 243.308594 154.371094 C 238.699219 156.964844 231.214844 161.234375 230.3125 161.886719 C 230.234375 161.972656 230.140625 162.042969 230.03125 162.09375 C 229.90625 162.15625 229.773438 162.183594 229.640625 162.183594 Z M 229.640625 162.183594 " fill-opacity="1" fill-rule="nonzero"/><path fill="#504543" d="M 190.910156 149.324219 C 190.429688 149.324219 190.027344 148.945312 190.007812 148.457031 C 190.003906 148.390625 189.65625 141.609375 185.382812 131.722656 C 183.800781 128.0625 181.863281 125.304688 179.988281 122.636719 C 177.027344 118.414062 173.960938 114.050781 172.445312 106.273438 C 169.976562 93.632812 177.5625 80.925781 177.886719 80.394531 C 178.144531 79.964844 178.703125 79.828125 179.128906 80.089844 C 179.558594 80.347656 179.691406 80.90625 179.433594 81.332031 C 179.359375 81.457031 171.890625 93.984375 174.222656 105.929688 C 175.664062 113.324219 178.484375 117.339844 181.472656 121.59375 C 183.398438 124.335938 185.390625 127.171875 187.042969 131.003906 C 191.460938 141.226562 191.804688 148.089844 191.816406 148.378906 C 191.839844 148.878906 191.449219 149.300781 190.953125 149.324219 C 190.9375 149.324219 190.925781 149.324219 190.910156 149.324219 Z M 190.910156 149.324219 " fill-opacity="1" fill-rule="nonzero"/><path fill="#504543" d="M 283.765625 155.816406 C 283.765625 156.171875 283.746094 156.527344 283.703125 156.878906 C 283.660156 157.230469 283.597656 157.574219 283.515625 157.90625 C 283.433594 158.238281 283.332031 158.550781 283.214844 158.851562 C 283.09375 159.148438 282.960938 159.421875 282.808594 159.675781 C 282.65625 159.929688 282.492188 160.15625 282.3125 160.355469 C 282.132812 160.554688 281.945312 160.722656 281.746094 160.863281 C 281.546875 161 281.34375 161.101562 281.132812 161.171875 C 280.921875 161.242188 280.710938 161.277344 280.496094 161.277344 C 280.28125 161.277344 280.066406 161.242188 279.859375 161.171875 C 279.648438 161.101562 279.441406 161 279.242188 160.863281 C 279.046875 160.722656 278.855469 160.554688 278.679688 160.355469 C 278.5 160.15625 278.335938 159.929688 278.183594 159.675781 C 278.03125 159.421875 277.894531 159.148438 277.777344 158.851562 C 277.65625 158.550781 277.554688 158.238281 277.472656 157.90625 C 277.390625 157.574219 277.328125 157.230469 277.289062 156.878906 C 277.246094 156.527344 277.226562 156.171875 277.226562 155.816406 C 277.226562 155.457031 277.246094 155.101562 277.289062 154.75 C 277.328125 154.398438 277.390625 154.054688 277.472656 153.722656 C 277.554688 153.394531 277.65625 153.078125 277.777344 152.78125 C 277.894531 152.480469 278.03125 152.207031 278.183594 151.953125 C 278.335938 151.699219 278.5 151.472656 278.679688 151.273438 C 278.855469 151.074219 279.046875 150.90625 279.242188 150.769531 C 279.441406 150.628906 279.648438 150.527344 279.859375 150.457031 C 280.066406 150.386719 280.28125 150.351562 280.496094 150.351562 C 280.710938 150.351562 280.921875 150.386719 281.132812 150.457031 C 281.34375 150.527344 281.546875 150.628906 281.746094 150.769531 C 281.945312 150.90625 282.132812 151.074219 282.3125 151.273438 C 282.492188 151.472656 282.65625 151.699219 282.808594 151.953125 C 282.960938 152.207031 283.09375 152.480469 283.214844 152.78125 C 283.332031 153.078125 283.433594 153.394531 283.515625 153.722656 C 283.597656 154.054688 283.660156 154.398438 283.703125 154.75 C 283.746094 155.101562 283.765625 155.457031 283.765625 155.816406 Z M 283.765625 155.816406 " fill-opacity="1" fill-rule="nonzero"/><path fill="#504543" d="M 332.296875 155.816406 C 332.296875 156.171875 332.273438 156.527344 332.234375 156.878906 C 332.191406 157.230469 332.128906 157.574219 332.046875 157.90625 C 331.964844 158.238281 331.863281 158.550781 331.746094 158.851562 C 331.625 159.148438 331.488281 159.421875 331.339844 159.675781 C 331.1875 159.929688 331.019531 160.15625 330.84375 160.355469 C 330.664062 160.554688 330.476562 160.722656 330.277344 160.863281 C 330.078125 161 329.875 161.101562 329.664062 161.171875 C 329.453125 161.242188 329.242188 161.277344 329.027344 161.277344 C 328.8125 161.277344 328.597656 161.242188 328.386719 161.171875 C 328.175781 161.101562 327.972656 161 327.773438 160.863281 C 327.574219 160.722656 327.386719 160.554688 327.207031 160.355469 C 327.03125 160.15625 326.867188 159.929688 326.714844 159.675781 C 326.5625 159.421875 326.425781 159.148438 326.308594 158.851562 C 326.1875 158.550781 326.085938 158.238281 326.003906 157.90625 C 325.921875 157.574219 325.859375 157.230469 325.820312 156.878906 C 325.777344 156.527344 325.753906 156.171875 325.753906 155.816406 C 325.753906 155.457031 325.777344 155.101562 325.820312 154.75 C 325.859375 154.398438 325.921875 154.054688 326.003906 153.722656 C 326.085938 153.394531 326.1875 153.078125 326.308594 152.78125 C 326.425781 152.480469 326.5625 152.207031 326.714844 151.953125 C 326.867188 151.699219 327.03125 151.472656 327.207031 151.273438 C 327.386719 151.074219 327.574219 150.90625 327.773438 150.769531 C 327.972656 150.628906 328.175781 150.527344 328.386719 150.457031 C 328.597656 150.386719 328.8125 150.351562 329.027344 150.351562 C 329.242188 150.351562 329.453125 150.386719 329.664062 150.457031 C 329.875 150.527344 330.078125 150.628906 330.277344 150.769531 C 330.476562 150.90625 330.664062 151.074219 330.84375 151.273438 C 331.019531 151.472656 331.1875 151.699219 331.339844 151.953125 C 331.488281 152.207031 331.625 152.480469 331.746094 152.78125 C 331.863281 153.078125 331.964844 153.394531 332.046875 153.722656 C 332.128906 154.054688 332.191406 154.398438 332.234375 154.75 C 332.273438 155.101562 332.296875 155.457031 332.296875 155.816406 Z M 332.296875 155.816406 " fill-opacity="1" fill-rule="nonzero"/><path fill="#504543" d="M 505.523438 291.011719 C 505.523438 291.011719 496.679688 375.824219 567.425781 385.042969 C 567.425781 385.042969 595.355469 383.179688 593.773438 387.4375 C 592.1875 391.699219 585.492188 452.503906 585.492188 452.503906 L 584.363281 487.554688 L 625.027344 483.167969 C 669.050781 478.417969 700.136719 437.980469 693.742188 394.132812 C 685.734375 339.253906 663.125 272.683594 602.0625 249.15625 C 541.382812 225.777344 510.3125 255.242188 510.3125 255.242188 C 510.3125 255.242188 464.292969 262.894531 447.859375 281.792969 C 421.882812 311.660156 450.914062 362.179688 452.304688 357.023438 C 452.988281 354.484375 458.753906 340.15625 464.429688 326.257812 C 471.65625 308.570312 486.953125 295.449219 505.523438 291.011719 Z M 505.523438 291.011719 " fill-opacity="1" fill-rule="nonzero"/><path fill="#504543" d="M 644.859375 218.320312 C 644.859375 219.21875 644.769531 220.109375 644.597656 220.992188 C 644.421875 221.875 644.160156 222.730469 643.816406 223.5625 C 643.472656 224.394531 643.050781 225.183594 642.550781 225.929688 C 642.054688 226.679688 641.484375 227.371094 640.851562 228.007812 C 640.214844 228.640625 639.523438 229.210938 638.777344 229.710938 C 638.027344 230.210938 637.238281 230.632812 636.410156 230.976562 C 635.578125 231.320312 634.722656 231.578125 633.839844 231.753906 C 632.960938 231.929688 632.070312 232.019531 631.171875 232.019531 C 630.273438 232.019531 629.382812 231.929688 628.5 231.753906 C 627.621094 231.578125 626.761719 231.320312 625.933594 230.976562 C 625.101562 230.632812 624.3125 230.210938 623.566406 229.710938 C 622.820312 229.210938 622.128906 228.640625 621.492188 228.007812 C 620.855469 227.371094 620.289062 226.679688 619.789062 225.929688 C 619.289062 225.183594 618.871094 224.394531 618.523438 223.5625 C 618.179688 222.730469 617.921875 221.875 617.746094 220.992188 C 617.570312 220.109375 617.484375 219.21875 617.484375 218.320312 C 617.484375 217.421875 617.570312 216.53125 617.746094 215.648438 C 617.921875 214.765625 618.179688 213.910156 618.523438 213.078125 C 618.871094 212.246094 619.289062 211.457031 619.789062 210.710938 C 620.289062 209.960938 620.855469 209.269531 621.492188 208.632812 C 622.128906 207.996094 622.820312 207.429688 623.566406 206.929688 C 624.3125 206.429688 625.101562 206.007812 625.933594 205.664062 C 626.761719 205.320312 627.621094 205.058594 628.5 204.886719 C 629.382812 204.710938 630.273438 204.621094 631.171875 204.621094 C 632.070312 204.621094 632.960938 204.710938 633.839844 204.886719 C 634.722656 205.058594 635.578125 205.320312 636.410156 205.664062 C 637.238281 206.007812 638.027344 206.429688 638.777344 206.929688 C 639.523438 207.429688 640.214844 207.996094 640.851562 208.632812 C 641.484375 209.269531 642.054688 209.960938 642.550781 210.710938 C 643.050781 211.457031 643.472656 212.246094 643.816406 213.078125 C 644.160156 213.910156 644.421875 214.765625 644.597656 215.648438 C 644.769531 216.53125 644.859375 217.421875 644.859375 218.320312 Z M 644.859375 218.320312 " fill-opacity="1" fill-rule="nonzero"/><path fill="#f9aa4e" d="M 510.3125 255.242188 C 510.3125 255.242188 486.332031 230.816406 528.554688 207.363281 C 561.851562 188.867188 634.804688 188.867188 657.886719 245.691406 C 683.027344 307.585938 702.652344 363.847656 688.878906 367.992188 C 666.648438 374.683594 623.066406 256.347656 510.3125 255.242188 Z M 510.3125 255.242188 " fill-opacity="1" fill-rule="nonzero"/><path fill="#ffb699" d="M 580.089844 392.023438 C 580.089844 392.023438 601.652344 370.054688 622.867188 390.890625 C 629.132812 397.046875 635.152344 411.976562 625.3125 425.363281 C 616.417969 437.464844 605.273438 441.488281 587.132812 437.070312 Z M 580.089844 392.023438 " fill-opacity="1" fill-rule="nonzero"/><path fill="#ed6444" d="M 606.429688 323.929688 C 606.429688 338.183594 598.328125 349.742188 598.328125 349.742188 C 598.328125 349.742188 590.226562 338.183594 590.226562 323.929688 C 590.226562 309.671875 598.328125 298.117188 598.328125 298.117188 C 598.328125 298.117188 606.429688 309.671875 606.429688 323.929688 Z M 606.429688 323.929688 " fill-opacity="1" fill-rule="nonzero"/><path fill="#ed6444" d="M 624.121094 357.847656 C 609.875 357.847656 598.328125 349.742188 598.328125 349.742188 C 598.328125 349.742188 609.875 341.632812 624.121094 341.632812 C 638.367188 341.632812 649.914062 349.742188 649.914062 349.742188 C 649.914062 349.742188 638.367188 357.847656 624.121094 357.847656 Z M 624.121094 357.847656 " fill-opacity="1" fill-rule="nonzero"/><path fill="#ed6444" d="M 590.226562 375.554688 C 590.226562 361.296875 598.328125 349.742188 598.328125 349.742188 C 598.328125 349.742188 606.429688 361.296875 606.429688 375.554688 C 606.429688 389.808594 598.328125 401.367188 598.328125 401.367188 C 598.328125 401.367188 590.226562 389.808594 590.226562 375.554688 Z M 590.226562 375.554688 " fill-opacity="1" fill-rule="nonzero"/><path fill="#ed6444" d="M 572.535156 341.632812 C 586.78125 341.632812 598.328125 349.742188 598.328125 349.742188 C 598.328125 349.742188 586.78125 357.847656 572.535156 357.847656 C 558.289062 357.847656 546.742188 349.742188 546.742188 349.742188 C 546.742188 349.742188 558.289062 341.632812 572.535156 341.632812 Z M 572.535156 341.632812 " fill-opacity="1" fill-rule="nonzero"/><path fill="#a7d4ad" d="M 622.292969 337.21875 C 612.222656 347.300781 598.328125 349.742188 598.328125 349.742188 C 598.328125 349.742188 600.765625 335.835938 610.839844 325.757812 C 620.910156 315.675781 634.804688 313.234375 634.804688 313.234375 C 634.804688 313.234375 632.367188 327.140625 622.292969 337.21875 Z M 622.292969 337.21875 " fill-opacity="1" fill-rule="nonzero"/><path fill="#a7d4ad" d="M 610.839844 373.726562 C 600.765625 363.644531 598.328125 349.742188 598.328125 349.742188 C 598.328125 349.742188 612.222656 352.179688 622.292969 362.261719 C 632.367188 372.339844 634.804688 386.246094 634.804688 386.246094 C 634.804688 386.246094 620.910156 383.804688 610.839844 373.726562 Z M 610.839844 373.726562 " fill-opacity="1" fill-rule="nonzero"/><path fill="#a7d4ad" d="M 574.363281 362.261719 C 584.433594 352.179688 598.328125 349.742188 598.328125 349.742188 C 598.328125 349.742188 595.890625 363.644531 585.816406 373.726562 C 575.746094 383.804688 561.851562 386.246094 561.851562 386.246094 C 561.851562 386.246094 564.289062 372.339844 574.363281 362.261719 Z M 574.363281 362.261719 " fill-opacity="1" fill-rule="nonzero"/><path fill="#a7d4ad" d="M 585.816406 325.757812 C 595.890625 335.835938 598.328125 349.742188 598.328125 349.742188 C 598.328125 349.742188 584.433594 347.300781 574.363281 337.21875 C 564.289062 327.140625 561.851562 313.234375 561.851562 313.234375 C 561.851562 313.234375 575.746094 315.675781 585.816406 325.757812 Z M 585.816406 325.757812 " fill-opacity="1" fill-rule="nonzero"/><path fill="#f9aa4e" d="M 608.28125 349.371094 C 608.28125 350 608.21875 350.625 608.097656 351.238281 C 607.972656 351.855469 607.792969 352.453125 607.550781 353.035156 C 607.3125 353.617188 607.015625 354.167969 606.667969 354.691406 C 606.320312 355.214844 605.921875 355.695312 605.476562 356.140625 C 605.035156 356.585938 604.550781 356.984375 604.027344 357.332031 C 603.503906 357.679688 602.953125 357.976562 602.375 358.21875 C 601.792969 358.457031 601.195312 358.640625 600.578125 358.761719 C 599.964844 358.882812 599.339844 358.945312 598.714844 358.945312 C 598.085938 358.945312 597.460938 358.882812 596.847656 358.761719 C 596.230469 358.640625 595.632812 358.457031 595.050781 358.21875 C 594.472656 357.976562 593.921875 357.679688 593.398438 357.332031 C 592.875 356.984375 592.390625 356.585938 591.949219 356.140625 C 591.503906 355.695312 591.109375 355.214844 590.757812 354.691406 C 590.410156 354.167969 590.113281 353.617188 589.875 353.035156 C 589.632812 352.453125 589.453125 351.855469 589.332031 351.238281 C 589.207031 350.625 589.144531 350 589.144531 349.371094 C 589.144531 348.742188 589.207031 348.121094 589.332031 347.503906 C 589.453125 346.886719 589.632812 346.289062 589.875 345.707031 C 590.113281 345.128906 590.410156 344.574219 590.757812 344.050781 C 591.109375 343.53125 591.503906 343.046875 591.949219 342.601562 C 592.390625 342.15625 592.875 341.761719 593.398438 341.410156 C 593.921875 341.0625 594.472656 340.765625 595.050781 340.527344 C 595.632812 340.285156 596.230469 340.105469 596.847656 339.980469 C 597.460938 339.859375 598.085938 339.796875 598.714844 339.796875 C 599.339844 339.796875 599.964844 339.859375 600.578125 339.980469 C 601.195312 340.105469 601.792969 340.285156 602.375 340.527344 C 602.953125 340.765625 603.503906 341.0625 604.027344 341.410156 C 604.550781 341.761719 605.035156 342.15625 605.476562 342.601562 C 605.921875 343.046875 606.320312 343.53125 606.667969 344.050781 C 607.015625 344.574219 607.3125 345.128906 607.550781 345.707031 C 607.792969 346.289062 607.972656 346.886719 608.097656 347.503906 C 608.21875 348.121094 608.28125 348.742188 608.28125 349.371094 Z M 608.28125 349.371094 " fill-opacity="1" fill-rule="nonzero"/><path fill="#504543" d="M 598.714844 355.65625 C 595.25 355.65625 592.433594 352.839844 592.433594 349.371094 C 592.433594 345.90625 595.25 343.085938 598.714844 343.085938 C 602.175781 343.085938 604.996094 345.90625 604.996094 349.371094 C 604.996094 352.839844 602.175781 355.65625 598.714844 355.65625 Z M 598.714844 344.898438 C 596.25 344.898438 594.242188 346.90625 594.242188 349.371094 C 594.242188 351.839844 596.25 353.84375 598.714844 353.84375 C 601.179688 353.84375 603.183594 351.839844 603.183594 349.371094 C 603.183594 346.90625 601.179688 344.898438 598.714844 344.898438 Z M 598.714844 344.898438 " fill-opacity="1" fill-rule="nonzero"/><path fill="#504543" d="M 608.117188 420.238281 C 608.042969 420.238281 607.96875 420.230469 607.894531 420.210938 L 595.253906 417.058594 C 594.941406 416.980469 594.691406 416.742188 594.605469 416.429688 C 594.515625 416.117188 594.597656 415.785156 594.820312 415.550781 L 609 400.765625 C 609.347656 400.402344 609.917969 400.390625 610.28125 400.738281 C 610.644531 401.085938 610.65625 401.660156 610.308594 402.019531 L 597.210938 415.675781 L 608.335938 418.453125 C 608.820312 418.574219 609.117188 419.066406 608.992188 419.550781 C 608.890625 419.964844 608.523438 420.238281 608.117188 420.238281 Z M 608.117188 420.238281 " fill-opacity="1" fill-rule="nonzero"/><path fill="#504543" d="M 582.441406 421.585938 C 582.0625 421.585938 581.710938 421.347656 581.582031 420.96875 C 574.300781 399.1875 589.109375 384.6875 589.257812 384.542969 C 589.617188 384.195312 590.191406 384.210938 590.539062 384.570312 C 590.882812 384.933594 590.871094 385.507812 590.511719 385.851562 C 590.367188 385.988281 576.390625 399.730469 583.300781 420.394531 C 583.460938 420.867188 583.203125 421.382812 582.730469 421.542969 C 582.632812 421.574219 582.539062 421.585938 582.441406 421.585938 Z M 582.441406 421.585938 " fill-opacity="1" fill-rule="nonzero"/><path fill="#504543" d="M 573.71875 412.246094 C 573.710938 412.246094 573.707031 412.246094 573.699219 412.246094 C 573.199219 412.234375 572.800781 411.820312 572.8125 411.320312 C 573.289062 391.761719 589.355469 384.441406 589.519531 384.371094 C 589.976562 384.164062 590.507812 384.375 590.710938 384.832031 C 590.914062 385.289062 590.707031 385.824219 590.25 386.027344 C 590.097656 386.09375 575.070312 392.984375 574.625 411.363281 C 574.613281 411.855469 574.210938 412.246094 573.71875 412.246094 Z M 573.71875 412.246094 " fill-opacity="1" fill-rule="nonzero"/><path fill="#504543" d="M 569.164062 401.566406 C 569.054688 401.566406 568.941406 401.546875 568.832031 401.503906 C 568.367188 401.320312 568.136719 400.792969 568.324219 400.328125 C 574.355469 385.011719 589.175781 383.882812 589.328125 383.875 C 589.792969 383.84375 590.253906 384.21875 590.289062 384.71875 C 590.320312 385.21875 589.941406 385.648438 589.445312 385.683594 C 588.882812 385.722656 575.609375 386.773438 570.007812 400.992188 C 569.867188 401.347656 569.523438 401.566406 569.164062 401.566406 Z M 569.164062 401.566406 " fill-opacity="1" fill-rule="nonzero"/><path fill="#504543" d="M 623.769531 310.5625 C 623.429688 310.140625 589.589844 268.375 558.78125 255.660156 C 540.035156 247.925781 519.539062 247.585938 519.335938 247.582031 L 519.347656 246.675781 C 519.554688 246.679688 540.214844 247.019531 559.125 254.824219 C 590.148438 267.625 624.132812 309.570312 624.472656 309.992188 Z M 623.769531 310.5625 " fill-opacity="1" fill-rule="nonzero"/><path fill="#a7d4ad" d="M 370.253906 519.523438 L 369.347656 519.523438 L 369.347656 507.789062 L 370.253906 507.789062 Z M 377.078125 505.851562 L 372.734375 505.851562 L 372.734375 504.945312 L 377.078125 504.945312 Z M 367.085938 505.851562 L 362.636719 505.851562 L 362.636719 504.945312 L 367.085938 504.945312 Z M 370.253906 502.355469 L 369.347656 502.355469 L 369.347656 491.601562 L 370.253906 491.601562 Z M 370.253906 502.355469 " fill-opacity="1" fill-rule="nonzero"/><path fill="#ed6444" d="M 285.839844 441.195312 L 284.933594 441.195312 L 284.933594 429.460938 L 285.839844 429.460938 Z M 292.660156 427.523438 L 288.320312 427.523438 L 288.320312 426.617188 L 292.660156 426.617188 Z M 282.671875 427.523438 L 278.222656 427.523438 L 278.222656 426.617188 L 282.671875 426.617188 Z M 285.839844 424.03125 L 284.933594 424.03125 L 284.933594 413.273438 L 285.839844 413.273438 Z M 285.839844 424.03125 " fill-opacity="1" fill-rule="nonzero"/><path fill="#a7d4ad" d="M 176.132812 327.199219 L 175.226562 327.199219 L 175.226562 315.464844 L 176.132812 315.464844 Z M 182.953125 313.527344 L 178.609375 313.527344 L 178.609375 312.621094 L 182.953125 312.621094 Z M 172.964844 313.527344 L 168.515625 313.527344 L 168.515625 312.621094 L 172.964844 312.621094 Z M 176.132812 310.03125 L 175.226562 310.03125 L 175.226562 299.273438 L 176.132812 299.273438 Z M 176.132812 310.03125 " fill-opacity="1" fill-rule="nonzero"/><path fill="#f9aa4e" d="M 354.53125 369.558594 L 353.625 369.558594 L 353.625 357.824219 L 354.53125 357.824219 Z M 361.351562 355.886719 L 357.011719 355.886719 L 357.011719 354.980469 L 361.351562 354.980469 Z M 351.367188 355.886719 L 346.914062 355.886719 L 346.914062 354.980469 L 351.367188 354.980469 Z M 354.53125 352.390625 L 353.625 352.390625 L 353.625 341.632812 L 354.53125 341.632812 Z M 354.53125 352.390625 " fill-opacity="1" fill-rule="nonzero"/><path fill="#a7d4ad" d="M 460.695312 96.925781 L 459.792969 96.925781 L 459.792969 86.171875 L 460.695312 86.171875 Z M 467.410156 83.582031 L 462.957031 83.582031 L 462.957031 82.675781 L 467.410156 82.675781 Z M 457.3125 83.582031 L 452.96875 83.582031 L 452.96875 82.675781 L 457.3125 82.675781 Z M 460.695312 80.738281 L 459.792969 80.738281 L 459.792969 69.003906 L 460.695312 69.003906 Z M 460.695312 80.738281 " fill-opacity="1" fill-rule="nonzero"/><path fill="#f9aa4e" d="M 527.066406 158.0625 L 526.164062 158.0625 L 526.164062 147.308594 L 527.066406 147.308594 Z M 533.78125 144.71875 L 529.328125 144.71875 L 529.328125 143.8125 L 533.78125 143.8125 Z M 523.683594 144.71875 L 519.339844 144.71875 L 519.339844 143.8125 L 523.683594 143.8125 Z M 527.066406 141.875 L 526.164062 141.875 L 526.164062 130.140625 L 527.066406 130.140625 Z M 527.066406 141.875 " fill-opacity="1" fill-rule="nonzero"/><path fill="#ed6444" d="M 585.675781 121.351562 L 584.769531 121.351562 L 584.769531 110.59375 L 585.675781 110.59375 Z M 592.390625 108.003906 L 587.9375 108.003906 L 587.9375 107.097656 L 592.390625 107.097656 Z M 582.292969 108.003906 L 577.949219 108.003906 L 577.949219 107.097656 L 582.292969 107.097656 Z M 585.675781 105.160156 L 584.769531 105.160156 L 584.769531 93.429688 L 585.675781 93.429688 Z M 585.675781 105.160156 " fill-opacity="1" fill-rule="nonzero"/><path fill="#ed6444" d="M 478.203125 232.546875 L 477.296875 232.546875 L 477.296875 221.789062 L 478.203125 221.789062 Z M 484.914062 219.199219 L 480.464844 219.199219 L 480.464844 218.292969 L 484.914062 218.292969 Z M 474.820312 219.199219 L 470.476562 219.199219 L 470.476562 218.292969 L 474.820312 218.292969 Z M 478.203125 216.355469 L 477.296875 216.355469 L 477.296875 204.621094 L 478.203125 204.621094 Z M 478.203125 216.355469 " fill-opacity="1" fill-rule="nonzero"/><path fill="#f9aa4e" d="M 310.066406 51.21875 C 309.09375 50.960938 258.867188 63.449219 232.875 91.28125 C 197.007812 129.679688 184.929688 178.773438 184.929688 178.773438 C 173.835938 175.796875 170.113281 163.347656 172.261719 144.808594 C 172.261719 144.808594 150.28125 159.035156 147.527344 137.433594 C 144.769531 115.832031 138.597656 63.976562 175.945312 33.152344 C 216.050781 0.0546875 263.214844 18.550781 275.359375 24.226562 C 277.253906 25.113281 279.34375 25.367188 281.414062 24.964844 C 284.050781 24.457031 288.277344 23.886719 293.675781 23.984375 C 303.167969 24.160156 315.957031 33.820312 320.460938 38.96875 C 325.296875 44.5 323.335938 51.453125 323.335938 51.453125 Z M 310.066406 51.21875 " fill-opacity="1" fill-rule="nonzero"/><path fill="#504543" d="M 172.261719 145.714844 C 172.203125 145.714844 172.140625 145.710938 172.078125 145.695312 C 171.585938 145.59375 171.273438 145.113281 171.375 144.625 C 179.355469 106.441406 201.511719 79.511719 203.324219 78.136719 C 203.726562 77.832031 204.292969 77.914062 204.59375 78.3125 C 204.894531 78.710938 204.820312 79.277344 204.421875 79.582031 C 202.363281 81.210938 180.984375 107.511719 173.148438 144.996094 C 173.058594 145.421875 172.683594 145.714844 172.261719 145.714844 Z M 172.261719 145.714844 " fill-opacity="1" fill-rule="nonzero"/><path fill="#504543" d="M 234.683594 49.738281 C 234.476562 49.738281 234.265625 49.664062 234.089844 49.515625 C 233.714844 49.1875 233.671875 48.617188 234 48.238281 C 249.433594 30.398438 277.875 24.867188 278.160156 24.8125 C 278.652344 24.714844 279.125 25.042969 279.21875 25.535156 C 279.308594 26.027344 278.988281 26.5 278.496094 26.59375 C 278.214844 26.648438 250.382812 32.070312 235.371094 49.425781 C 235.191406 49.632812 234.9375 49.738281 234.683594 49.738281 Z M 234.683594 49.738281 " fill-opacity="1" fill-rule="nonzero"/><path fill="#504543" d="M 323.730469 53.753906 C 323.648438 53.753906 323.570312 53.746094 323.488281 53.722656 C 323.34375 53.683594 308.839844 49.765625 294.554688 51.246094 C 294.039062 51.296875 293.609375 50.933594 293.558594 50.4375 C 293.507812 49.9375 293.871094 49.492188 294.367188 49.441406 C 309.007812 47.929688 323.820312 51.933594 323.96875 51.972656 C 324.449219 52.105469 324.734375 52.605469 324.601562 53.085938 C 324.492188 53.488281 324.128906 53.753906 323.730469 53.753906 Z M 323.730469 53.753906 " fill-opacity="1" fill-rule="nonzero"/><path fill="#504543" d="M 265.464844 29.367188 C 265.328125 29.367188 265.191406 29.335938 265.058594 29.269531 C 249.539062 21.460938 233.796875 22.167969 233.640625 22.175781 C 233.097656 22.195312 232.714844 21.816406 232.691406 21.316406 C 232.664062 20.816406 233.050781 20.390625 233.546875 20.363281 C 234.203125 20.328125 249.910156 19.617188 265.875 27.652344 C 266.320312 27.875 266.5 28.421875 266.277344 28.867188 C 266.117188 29.183594 265.796875 29.367188 265.464844 29.367188 Z M 265.464844 29.367188 " fill-opacity="1" fill-rule="nonzero"/><path fill="#504543" d="M 246.070312 39.601562 C 245.972656 39.601562 245.871094 39.582031 245.773438 39.550781 C 234.539062 35.640625 223.167969 35.996094 223.058594 36.003906 C 222.527344 36.035156 222.136719 35.628906 222.121094 35.128906 C 222.101562 34.628906 222.496094 34.210938 222.992188 34.191406 C 223.476562 34.175781 234.820312 33.816406 246.367188 37.835938 C 246.839844 38 247.089844 38.519531 246.925781 38.992188 C 246.796875 39.367188 246.445312 39.601562 246.070312 39.601562 Z M 246.070312 39.601562 " fill-opacity="1" fill-rule="nonzero"/><path fill="#504543" d="M 457.746094 502.523438 L 455.480469 502.523438 C 452.527344 506.277344 450.902344 510.894531 450.902344 515.703125 L 450.902344 523.824219 C 451.480469 524.171875 452.0625 524.515625 452.644531 524.855469 L 452.644531 515.703125 C 452.644531 510.816406 454.457031 506.140625 457.746094 502.523438 Z M 457.746094 502.523438 " fill-opacity="1" fill-rule="nonzero"/><path fill="#504543" d="M 486.910156 502.523438 L 485.023438 502.523438 C 483.511719 506.265625 482.675781 510.890625 482.675781 515.703125 L 482.675781 537.960938 C 483.253906 538.136719 483.835938 538.316406 484.417969 538.484375 L 484.417969 515.703125 C 484.417969 510.820312 485.304688 506.160156 486.910156 502.523438 Z M 486.910156 502.523438 " fill-opacity="1" fill-rule="nonzero"/><path fill="#504543" d="M 514.449219 547.539062 C 514.449219 548.019531 514.839844 548.40625 515.320312 548.40625 C 515.800781 548.40625 516.191406 548.019531 516.191406 547.539062 L 516.191406 502.523438 L 514.449219 502.523438 Z M 514.449219 547.539062 " fill-opacity="1" fill-rule="nonzero"/><path fill="#504543" d="M 545.617188 502.523438 L 543.730469 502.523438 C 545.332031 506.160156 546.21875 510.820312 546.21875 515.703125 L 546.21875 542.527344 C 546.800781 542.4375 547.382812 542.34375 547.960938 542.246094 L 547.960938 515.703125 C 547.960938 510.890625 547.128906 506.265625 545.617188 502.523438 Z M 545.617188 502.523438 " fill-opacity="1" fill-rule="nonzero"/><path fill="#504543" d="M 575.160156 502.523438 L 572.894531 502.523438 C 576.179688 506.140625 577.992188 510.816406 577.992188 515.703125 L 577.992188 533.816406 C 578.574219 533.582031 579.15625 533.347656 579.734375 533.105469 L 579.734375 515.703125 C 579.734375 510.894531 578.113281 506.277344 575.160156 502.523438 Z M 575.160156 502.523438 " fill-opacity="1" fill-rule="nonzero"/></svg>