<svg xmlns="http://www.w3.org/2000/svg" xmlns:xlink="http://www.w3.org/1999/xlink" width="374" zoomAndPan="magnify" viewBox="0 0 841.92 595.499987" height="264" preserveAspectRatio="xMidYMid meet" version="1.0"><defs><clipPath id="72f5ba38cf"><path d="M 239.054688 0 L 602.390625 0 L 602.390625 594.824219 L 239.054688 594.824219 Z M 239.054688 0 " clip-rule="nonzero"/></clipPath></defs><path fill="#dff0fe" d="M 290.84375 586.5625 C 266.867188 586.5625 247.351562 567.03125 247.351562 543.042969 L 247.351562 51.78125 C 247.351562 27.792969 266.867188 8.261719 290.84375 8.261719 L 550.605469 8.261719 C 574.578125 8.261719 594.097656 27.792969 594.097656 51.78125 L 594.097656 543.042969 C 594.097656 567.03125 574.578125 586.5625 550.605469 586.5625 Z M 290.84375 586.5625 " fill-opacity="1" fill-rule="nonzero"/><g clip-path="url(#72f5ba38cf)"><path fill="#4788c7" d="M 550.605469 16.523438 C 570.039062 16.523438 585.839844 32.335938 585.839844 51.78125 L 585.839844 543.042969 C 585.839844 562.488281 570.039062 578.300781 550.605469 578.300781 L 290.84375 578.300781 C 271.410156 578.300781 255.609375 562.488281 255.609375 543.042969 L 255.609375 51.78125 C 255.609375 32.335938 271.410156 16.523438 290.84375 16.523438 L 550.605469 16.523438 M 550.605469 0 L 290.84375 0 C 262.261719 0 239.097656 23.179688 239.097656 51.78125 L 239.097656 543.042969 C 239.097656 571.640625 262.261719 594.824219 290.84375 594.824219 L 550.605469 594.824219 C 579.1875 594.824219 602.351562 571.640625 602.351562 543.042969 L 602.351562 51.78125 C 602.351562 23.179688 579.1875 0 550.605469 0 Z M 550.605469 0 " fill-opacity="1" fill-rule="nonzero"/></g><path fill="#4788c7" d="M 424.933594 231.4375 C 430.085938 225.257812 438.324219 221.125 445.539062 220.101562 C 446.566406 228.347656 443.476562 236.589844 439.367188 241.746094 C 434.214844 247.925781 427 252.054688 418.757812 252.054688 C 416.695312 244.835938 419.78125 237.617188 424.933594 231.4375 Z M 469.234375 335.5625 C 463.058594 343.808594 454.804688 355.160156 445.539062 355.160156 C 436.277344 355.160156 434.214844 348.980469 422.871094 350.003906 C 410.503906 350.003906 408.4375 356.183594 399.175781 355.160156 C 388.875 355.160156 381.65625 345.875 376.507812 336.605469 C 361.050781 312.894531 358.988281 284.027344 369.289062 268.5625 C 376.507812 258.253906 386.808594 252.074219 397.113281 252.074219 C 407.414062 252.074219 414.632812 258.253906 422.871094 258.253906 C 431.109375 258.253906 436.261719 252.074219 448.628906 252.074219 C 457.90625 252.074219 467.171875 257.226562 474.386719 265.472656 C 451.714844 277.847656 455.84375 309.804688 478.515625 319.089844 C 474.386719 326.277344 472.339844 329.382812 469.234375 335.5625 Z M 486.769531 0 L 354.675781 0 C 345.5625 0 338.167969 7.402344 338.167969 16.523438 C 338.167969 25.644531 345.5625 33.046875 354.675781 33.046875 L 486.769531 33.046875 C 495.886719 33.046875 503.28125 25.644531 503.28125 16.523438 C 503.28125 7.402344 495.886719 0 486.769531 0 Z M 486.769531 0 " fill-opacity="1" fill-rule="nonzero"/></svg>