<svg xmlns="http://www.w3.org/2000/svg" xmlns:xlink="http://www.w3.org/1999/xlink" width="374" zoomAndPan="magnify" viewBox="0 0 841.92 595.499987" height="264" preserveAspectRatio="xMidYMid meet" version="1.0"><path fill="#000000" d="M 25.730469 38.316406 C 35.625 34.195312 47.878906 34.007812 58.398438 33.382812 C 82.851562 31.949219 107.300781 30.78125 131.753906 29.371094 C 232.410156 23.707031 333.117188 15.492188 433.878906 12.214844 C 456.542969 11.480469 479.125 10.640625 501.761719 8.527344 C 520.410156 6.847656 539.359375 -0.171875 557.820312 5.492188 C 568.988281 8.90625 572.675781 19.558594 575.632812 29.5625 C 582.734375 53.742188 584.792969 79.492188 589.566406 104.1875 C 599.433594 155.226562 609.058594 206.320312 618.464844 257.417969 C 622.71875 280.648438 626.867188 303.851562 630.851562 327.105469 C 633.96875 345.214844 639.769531 362.425781 639.253906 380.832031 C 643.945312 380.96875 648.609375 381.535156 653.242188 382.324219 C 654.652344 382.566406 655.765625 383.351562 656.605469 384.382812 C 717.355469 412.300781 777.890625 442.039062 832.59375 480.636719 C 834.683594 482.128906 835.578125 484.160156 835.683594 486.195312 C 836.605469 487.332031 837.203125 488.878906 837.203125 490.773438 C 837.257812 490.773438 837.203125 497.335938 838.152344 500.886719 C 838.34375 501.535156 838.371094 502.160156 838.371094 502.753906 C 839.128906 504.871094 838.722656 507.28125 836.390625 509.207031 C 822.457031 520.429688 804.671875 522.707031 787.433594 524.902344 C 756.609375 528.804688 725.707031 531.324219 694.910156 535.609375 C 620.332031 546.125 544.484375 549.703125 470.394531 562.957031 C 440.195312 568.351562 409.5625 572.445312 378.984375 575.644531 C 343.636719 579.277344 302.375 583.34375 267.109375 579.222656 C 242.140625 576.296875 217.933594 557.671875 197.410156 544.554688 C 167.429688 525.390625 136.335938 507.90625 107.382812 487.222656 C 96.839844 479.714844 77.15625 469.984375 72.519531 456.945312 C 70.136719 450.304688 69.105469 443.066406 67.695312 436.128906 C 62.058594 407.722656 57.421875 379.015625 52.652344 350.390625 C 40.398438 276.527344 29.039062 202.582031 17.546875 128.582031 C 15.214844 113.671875 13.316406 98.519531 10.902344 83.503906 C 10.578125 82.988281 10.199219 82.472656 9.953125 81.824219 C 1.769531 62.199219 5.617188 46.71875 25.730469 38.316406 " fill-opacity="1" fill-rule="nonzero"/><path fill="#4d4d4d" d="M 153.222656 469.902344 C 158.023438 473.019531 163.171875 475.839844 167.429688 478.117188 C 167.671875 478.0625 167.835938 477.925781 168.078125 477.925781 C 177.40625 477.355469 186.703125 476.679688 196 475.921875 C 192.394531 472.613281 188.789062 469.28125 185.15625 465.972656 C 174.476562 467.273438 163.824219 468.546875 153.222656 469.902344 " fill-opacity="1" fill-rule="nonzero"/><path fill="#4d4d4d" d="M 178.652344 451.199219 C 181.605469 453.613281 184.480469 456.160156 187.355469 458.707031 C 202.316406 456.890625 217.28125 455.15625 232.21875 453.476562 C 229.128906 451.0625 226.066406 448.625 223.109375 446.105469 C 208.253906 447.675781 193.425781 449.355469 178.652344 451.199219 " fill-opacity="1" fill-rule="nonzero"/><path fill="#4d4d4d" d="M 178.460938 484.1875 C 182.90625 486.761719 187.542969 489.390625 192.261719 491.804688 C 198.523438 490.828125 204.785156 489.90625 211.046875 488.957031 C 208.390625 486.816406 205.707031 484.621094 203.160156 482.316406 C 194.917969 483.023438 186.703125 483.644531 178.460938 484.1875 " fill-opacity="1" fill-rule="nonzero"/><path fill="#4d4d4d" d="M 240.269531 459.546875 C 224.898438 461.285156 209.5 463.070312 194.132812 464.886719 C 197.871094 468.304688 201.558594 471.773438 205.355469 475.132812 C 221.671875 473.671875 238.019531 472.042969 254.394531 470.175781 C 249.730469 466.570312 244.988281 463.070312 240.269531 459.546875 " fill-opacity="1" fill-rule="nonzero"/><path fill="#4d4d4d" d="M 218.960938 494.8125 C 213.8125 495.546875 208.660156 496.359375 203.566406 497.144531 C 207.304688 498.691406 211.15625 500.046875 214.976562 501.019531 C 215.167969 501.074219 215.25 501.15625 215.382812 501.210938 C 219.125 500.695312 222.894531 500.234375 226.660156 499.71875 C 224.003906 498.175781 221.429688 496.496094 218.960938 494.8125 " fill-opacity="1" fill-rule="nonzero"/><path fill="#4d4d4d" d="M 212.78125 481.449219 C 215.355469 483.539062 217.960938 485.542969 220.644531 487.46875 C 236.257812 485.273438 251.871094 483.265625 267.542969 481.34375 C 265.753906 479.660156 263.9375 478.035156 262.066406 476.4375 C 245.609375 478.304688 229.183594 479.988281 212.78125 481.449219 " fill-opacity="1" fill-rule="nonzero"/><path fill="#4d4d4d" d="M 232.84375 445.074219 C 235.933594 447.539062 239.023438 449.980469 242.140625 452.367188 C 256.265625 450.765625 270.332031 449.195312 284.457031 447.59375 C 282.453125 445.480469 280.390625 443.394531 278.386719 441.277344 C 278.195312 441.035156 278.140625 440.871094 278.003906 440.628906 C 262.933594 442.066406 247.886719 443.527344 232.84375 445.074219 " fill-opacity="1" fill-rule="nonzero"/><path fill="#4d4d4d" d="M 229.5625 493.269531 C 232.570312 495.003906 235.632812 496.628906 238.859375 498.039062 C 252.0625 496.304688 265.292969 494.679688 278.519531 493.132812 C 276.976562 491.207031 275.375 489.339844 273.695312 487.523438 C 258.976562 489.339844 244.253906 491.207031 229.5625 493.269531 " fill-opacity="1" fill-rule="nonzero"/><path fill="#4d4d4d" d="M 290.476562 453.9375 C 277.082031 455.402344 263.664062 456.890625 250.191406 458.4375 C 254.800781 461.90625 259.410156 465.457031 263.882812 469.144531 C 276.214844 467.679688 288.578125 466.1875 300.914062 464.644531 C 297.441406 461.09375 293.945312 457.515625 290.476562 453.9375 " fill-opacity="1" fill-rule="nonzero"/><path fill="#4d4d4d" d="M 307.09375 471.015625 C 295.058594 472.503906 283.101562 473.96875 271.09375 475.351562 C 272.855469 476.949219 274.589844 478.578125 276.214844 480.257812 C 288.144531 478.875 300.070312 477.464844 312.027344 476.164062 C 310.347656 474.429688 308.71875 472.75 307.09375 471.015625 " fill-opacity="1" fill-rule="nonzero"/><path fill="#4d4d4d" d="M 282.070312 486.546875 C 283.671875 488.363281 285.1875 490.234375 286.652344 492.183594 C 298.90625 490.773438 311.105469 489.472656 323.304688 488.171875 C 321.515625 486.25 319.753906 484.324219 317.992188 482.425781 C 306.007812 483.726562 294.054688 485.082031 282.070312 486.546875 " fill-opacity="1" fill-rule="nonzero"/><path fill="#4d4d4d" d="M 286.707031 439.789062 C 288.902344 442.066406 291.042969 444.367188 293.242188 446.644531 C 310.074219 444.777344 326.910156 442.90625 343.742188 441.089844 C 342.386719 438.949219 341.03125 436.832031 339.625 434.773438 C 322.003906 436.453125 304.382812 438.160156 286.707031 439.789062 " fill-opacity="1" fill-rule="nonzero"/><path fill="#4d4d4d" d="M 299.3125 452.960938 C 302.726562 456.484375 306.199219 460.035156 309.613281 463.585938 C 324.660156 461.664062 339.703125 459.738281 354.777344 457.839844 C 352.417969 454.453125 350.140625 451.0625 347.890625 447.59375 C 331.734375 449.355469 315.550781 451.199219 299.3125 452.960938 " fill-opacity="1" fill-rule="nonzero"/><path fill="#4d4d4d" d="M 315.742188 469.929688 C 317.476562 471.664062 319.15625 473.453125 320.835938 475.214844 C 335.421875 473.644531 350.007812 472.097656 364.535156 470.554688 C 362.800781 468.546875 361.121094 466.488281 359.492188 464.320312 C 344.9375 466.1875 330.351562 468.058594 315.742188 469.929688 " fill-opacity="1" fill-rule="nonzero"/><path fill="#4d4d4d" d="M 326.664062 481.476562 C 328.453125 483.402344 330.269531 485.328125 332.03125 487.222656 C 347.050781 485.679688 362.125 484.160156 377.113281 482.644531 C 374.785156 480.828125 372.585938 478.875 370.445312 476.816406 C 355.835938 478.359375 341.25 479.90625 326.664062 481.476562 " fill-opacity="1" fill-rule="nonzero"/><path fill="#4d4d4d" d="M 347.484375 434.042969 C 348.839844 436.046875 350.140625 438.105469 351.441406 440.195312 C 363.097656 438.949219 374.703125 437.648438 386.332031 436.320312 C 388.71875 436.046875 391.15625 435.804688 393.570312 435.53125 C 392.078125 433.609375 390.535156 431.710938 389.042969 429.785156 C 387.363281 429.976562 385.707031 430.164062 384.082031 430.328125 C 371.882812 431.601562 359.683594 432.820312 347.484375 434.042969 " fill-opacity="1" fill-rule="nonzero"/><path fill="#4d4d4d" d="M 355.671875 446.753906 C 357.867188 450.167969 360.089844 453.53125 362.476562 456.835938 C 376.980469 455.023438 391.375 453.261719 405.824219 451.550781 C 403.355469 448.378906 400.917969 445.15625 398.476562 441.984375 C 397.554688 442.066406 396.660156 442.171875 395.765625 442.253906 C 382.402344 443.800781 369.035156 445.261719 355.671875 446.753906 " fill-opacity="1" fill-rule="nonzero"/><path fill="#4d4d4d" d="M 367.492188 463.34375 C 369.226562 465.539062 371.097656 467.652344 372.996094 469.660156 C 387.6875 468.113281 402.324219 466.515625 416.910156 464.835938 C 414.902344 462.636719 412.925781 460.363281 410.972656 457.976562 C 396.46875 459.710938 381.96875 461.472656 367.492188 463.34375 " fill-opacity="1" fill-rule="nonzero"/><path fill="#4d4d4d" d="M 379.691406 475.839844 C 381.5625 477.355469 383.484375 478.820312 385.492188 480.175781 C 386.140625 480.582031 386.519531 481.097656 386.738281 481.667969 C 401.1875 480.230469 415.609375 478.820312 430.003906 477.332031 C 427.5625 475.351562 425.261719 473.292969 423.035156 471.148438 C 408.589844 472.75 394.140625 474.320312 379.691406 475.839844 " fill-opacity="1" fill-rule="nonzero"/><path fill="#4d4d4d" d="M 397.230469 428.945312 C 398.667969 430.816406 400.15625 432.714844 401.621094 434.691406 C 414.929688 433.226562 428.296875 431.871094 441.6875 430.570312 C 440.035156 428.835938 438.40625 427.15625 436.78125 425.476562 C 436.535156 425.257812 436.457031 425.015625 436.320312 424.742188 C 423.253906 426.125 410.214844 427.535156 397.230469 428.945312 " fill-opacity="1" fill-rule="nonzero"/><path fill="#4d4d4d" d="M 406.472656 441.089844 C 408.914062 444.261719 411.324219 447.460938 413.820312 450.578125 C 427.890625 449.003906 441.957031 447.351562 456.027344 445.722656 C 453.234375 442.769531 450.417969 439.789062 447.679688 436.832031 C 433.878906 438.1875 420.191406 439.597656 406.472656 441.089844 " fill-opacity="1" fill-rule="nonzero"/><path fill="#4d4d4d" d="M 422.902344 456.566406 C 421.679688 456.703125 420.40625 456.835938 419.1875 457 C 421.246094 459.386719 423.363281 461.664062 425.558594 463.859375 C 429.625 463.398438 433.691406 462.964844 437.757812 462.503906 C 448.058594 461.285156 458.386719 460.0625 468.714844 458.871094 C 466.464844 456.621094 464.214844 454.371094 462.019531 452.066406 C 448.980469 453.585938 435.941406 455.074219 422.902344 456.566406 " fill-opacity="1" fill-rule="nonzero"/><path fill="#4d4d4d" d="M 447.21875 468.386719 C 442.230469 468.953125 437.242188 469.523438 432.28125 470.066406 C 434.855469 472.289062 437.566406 474.320312 440.414062 476.191406 C 447.21875 475.515625 454.023438 474.808594 460.800781 474.050781 C 468.0625 473.265625 475.355469 472.503906 482.648438 471.71875 C 480.128906 469.550781 477.605469 467.355469 475.167969 465.078125 C 465.867188 466.1875 456.488281 467.273438 447.21875 468.386719 " fill-opacity="1" fill-rule="nonzero"/><path fill="#4d4d4d" d="M 444.96875 423.847656 C 446.839844 425.746094 448.683594 427.726562 450.578125 429.675781 C 463.699219 428.429688 476.847656 427.15625 490.023438 425.910156 C 487.5 424.175781 485.035156 422.441406 482.484375 420.757812 C 482.132812 420.515625 481.835938 420.246094 481.617188 419.917969 C 469.394531 421.21875 457.167969 422.519531 444.96875 423.847656 " fill-opacity="1" fill-rule="nonzero"/><path fill="#4d4d4d" d="M 456.460938 435.9375 C 459.226562 438.894531 461.964844 441.847656 464.730469 444.75 C 479.695312 443.011719 494.65625 441.277344 509.675781 439.542969 C 506.070312 436.96875 502.464844 434.421875 498.832031 431.871094 C 484.683594 433.226562 470.585938 434.582031 456.460938 435.9375 " fill-opacity="1" fill-rule="nonzero"/><path fill="#4d4d4d" d="M 518.078125 445.589844 C 502.355469 447.40625 486.605469 449.222656 470.855469 451.0625 C 473.105469 453.339844 475.355469 455.589844 477.6875 457.785156 C 494.089844 455.863281 510.515625 453.910156 526.917969 451.984375 C 523.960938 449.84375 521.007812 447.675781 518.078125 445.589844 " fill-opacity="1" fill-rule="nonzero"/><path fill="#4d4d4d" d="M 535.183594 458.003906 C 518.269531 460.035156 501.355469 461.988281 484.410156 463.992188 C 486.984375 466.296875 489.617188 468.546875 492.382812 470.6875 C 509.839844 468.820312 527.378906 466.949219 544.863281 465.078125 C 541.636719 462.746094 538.410156 460.363281 535.183594 458.003906 " fill-opacity="1" fill-rule="nonzero"/><path fill="#4d4d4d" d="M 492.027344 418.808594 C 494.984375 420.8125 497.964844 422.765625 500.867188 424.824219 C 515.234375 423.390625 529.574219 421.925781 543.941406 420.324219 C 540.390625 418.507812 536.867188 416.695312 533.316406 414.90625 C 533.097656 414.824219 532.960938 414.632812 532.746094 414.445312 C 519.164062 415.933594 505.582031 417.34375 492.027344 418.808594 " fill-opacity="1" fill-rule="nonzero"/><path fill="#4d4d4d" d="M 509.433594 430.816406 C 512.984375 433.335938 516.480469 435.804688 520.003906 438.324219 C 535.566406 436.507812 551.125 434.691406 566.738281 432.875 C 562.726562 430.492188 558.714844 428.1875 554.59375 425.992188 C 539.578125 427.726562 524.53125 429.324219 509.433594 430.816406 " fill-opacity="1" fill-rule="nonzero"/><path fill="#4d4d4d" d="M 528.328125 444.367188 C 531.226562 446.511719 534.15625 448.625 537.109375 450.765625 C 553.265625 448.839844 569.503906 446.972656 585.714844 445.074219 C 582.652344 442.878906 579.507812 440.765625 576.28125 438.703125 C 560.289062 440.628906 544.320312 442.5 528.328125 444.367188 " fill-opacity="1" fill-rule="nonzero"/><path fill="#4d4d4d" d="M 545.242188 413.140625 C 548.875 415.011719 552.535156 416.9375 556.167969 418.835938 C 568.015625 417.480469 579.804688 415.933594 591.570312 414.308594 C 589.105469 412.953125 586.609375 411.652344 584.199219 410.242188 C 583.765625 410.050781 583.519531 409.78125 583.25 409.484375 C 570.535156 410.757812 557.765625 411.789062 545.242188 413.140625 " fill-opacity="1" fill-rule="nonzero"/><path fill="#4d4d4d" d="M 545.378906 456.8125 C 548.578125 459.140625 551.804688 461.472656 554.976562 463.804688 C 555.054688 463.859375 555.054688 463.914062 555.164062 463.964844 C 571.105469 462.257812 587.042969 460.550781 603.039062 458.871094 C 600.03125 456.160156 596.9375 453.585938 593.820312 451.089844 C 577.691406 453.015625 561.507812 454.941406 545.378906 456.8125 " fill-opacity="1" fill-rule="nonzero"/><path fill="#4d4d4d" d="M 566.46875 424.582031 C 570.398438 426.777344 574.222656 429.136719 578.015625 431.519531 C 578.992188 431.414062 579.996094 431.277344 581 431.195312 C 592.519531 429.785156 604.476562 428.890625 616.484375 427.808594 C 611.578125 425.203125 606.671875 422.519531 601.820312 419.917969 C 590.082031 421.601562 578.289062 423.144531 566.46875 424.582031 " fill-opacity="1" fill-rule="nonzero"/><path fill="#4d4d4d" d="M 591.84375 436.886719 C 590.269531 437.078125 588.671875 437.265625 587.070312 437.457031 C 590.082031 439.515625 593.007812 441.660156 595.9375 443.855469 C 609.761719 442.226562 623.613281 440.574219 637.441406 438.949219 C 633.96875 437.160156 630.582031 435.34375 627.164062 433.527344 C 615.238281 434.636719 603.308594 435.53125 591.84375 436.886719 " fill-opacity="1" fill-rule="nonzero"/><path fill="#4d4d4d" d="M 594.988281 408.183594 C 597.753906 409.671875 600.492188 411.21875 603.253906 412.707031 C 611.226562 411.488281 619.167969 410.1875 627.058594 408.886719 C 623.914062 407.53125 620.792969 406.175781 617.703125 404.875 C 610.195312 406.230469 602.605469 407.289062 594.988281 408.183594 " fill-opacity="1" fill-rule="nonzero"/><path fill="#4d4d4d" d="M 648.230469 444.695312 C 633.375 446.429688 618.464844 448.191406 603.582031 449.980469 C 606.398438 452.3125 609.136719 454.777344 611.820312 457.324219 C 611.957031 457.515625 612.066406 457.679688 612.148438 457.867188 C 618.925781 457.164062 625.703125 456.429688 632.480469 455.671875 C 642.210938 454.695312 652.105469 453.339844 662.027344 452.039062 C 657.445312 449.601562 652.863281 447.132812 648.230469 444.695312 " fill-opacity="1" fill-rule="nonzero"/><path fill="#4d4d4d" d="M 613.367188 418.183594 C 618.542969 421.003906 623.804688 423.796875 629.0625 426.613281 C 638.796875 425.53125 648.472656 424.230469 657.824219 422.25 C 651.507812 419.402344 645.136719 416.640625 638.796875 413.875 C 638.660156 413.984375 638.523438 414.0625 638.28125 414.117188 C 630.011719 415.582031 621.6875 416.882812 613.367188 418.183594 " fill-opacity="1" fill-rule="nonzero"/><path fill="#4d4d4d" d="M 639.582031 432.199219 C 642.941406 433.933594 646.332031 435.722656 649.636719 437.484375 C 660.402344 436.238281 671.136719 434.964844 681.898438 433.714844 C 677.425781 431.414062 672.871094 429.214844 668.289062 427.074219 C 659.046875 429.460938 649.394531 431.003906 639.582031 432.199219 " fill-opacity="1" fill-rule="nonzero"/><path fill="#4d4d4d" d="M 660.425781 443.230469 C 665.007812 445.671875 669.5625 448.109375 674.089844 450.550781 C 685.070312 449.222656 696.074219 448.164062 706.972656 447.730469 C 702.335938 444.882812 697.648438 442.066406 692.796875 439.460938 C 682.035156 440.710938 671.242188 441.984375 660.425781 443.230469 " fill-opacity="1" fill-rule="nonzero"/><path fill="#4d4d4d" d="M 139.101562 456.378906 C 140.078125 458.871094 142.246094 461.390625 145.039062 463.859375 C 156.070312 462.449219 167.15625 461.148438 178.191406 459.847656 C 175.671875 457.652344 173.039062 455.535156 170.410156 453.476562 C 169.949219 453.152344 169.625 452.746094 169.40625 452.3125 C 159.296875 453.585938 149.210938 454.941406 139.101562 456.378906 " fill-opacity="1" fill-rule="nonzero"/><path fill="#27206b" d="M 443.640625 392.109375 C 477.117188 388.828125 510.542969 385.519531 544.023438 382.242188 C 562.402344 380.453125 580.78125 378.636719 599.136719 376.820312 C 617.703125 375.03125 612.554688 366.683594 609.109375 351.613281 C 601.953125 320.195312 596.53125 288.453125 590.648438 256.820312 C 590.082031 253.8125 589.484375 250.882812 588.914062 247.875 C 532.339844 284.117188 446.703125 314.585938 443.640625 392.109375 " fill-opacity="1" fill-rule="nonzero"/><path fill="#4d32a0" d="M 297.929688 406.394531 C 303.949219 405.796875 309.964844 405.226562 316.011719 404.632812 C 356.214844 400.699219 396.390625 396.714844 436.589844 392.8125 C 439.195312 310.300781 528.410156 279.019531 587.503906 240.449219 C 583.4375 219.222656 579.238281 197.945312 574.980469 176.695312 C 540.933594 179.949219 511.03125 201.605469 486.714844 224.320312 C 466.222656 243.484375 452.585938 267.664062 430.21875 285.148438 C 409.753906 301.167969 384.730469 308.457031 362.421875 321.226562 C 331.519531 338.84375 300.964844 369.285156 297.929688 406.394531 " fill-opacity="1" fill-rule="nonzero"/><path fill="#e02791" d="M 94.074219 413.46875 C 94.832031 416.964844 96.1875 420.324219 98.195312 423.414062 C 112.128906 427.996094 131.535156 422.765625 145.6875 421.355469 C 163.824219 419.59375 182.011719 417.804688 200.148438 415.988281 C 230.402344 413.035156 260.601562 410.050781 290.855469 407.097656 C 292.96875 377.417969 310.292969 354.242188 331.761719 334.777344 C 356.511719 312.441406 387.957031 303.46875 415.960938 286.503906 C 447.328125 267.554688 464.917969 233.941406 491.972656 210.0625 C 514.773438 190.058594 543.101562 173.035156 573.625 169.808594 C 569.503906 148.773438 565.4375 127.742188 561.617188 106.652344 C 508.484375 124.570312 487.257812 176.695312 443.367188 207.597656 C 399.640625 238.335938 350.929688 256.199219 310.644531 292.464844 C 279.441406 320.574219 249.351562 349.875 214.328125 373.269531 C 178.191406 397.394531 137.09375 409.78125 94.074219 413.46875 " fill-opacity="1" fill-rule="nonzero"/><path fill="#ff4848" d="M 79.867188 318.515625 C 79.433594 318.757812 79.027344 318.839844 78.59375 318.894531 C 83.3125 348.113281 88.136719 377.335938 93.125 406.554688 C 140.320312 402.625 182.285156 387.203125 221.160156 360.175781 C 259.898438 333.152344 291.613281 297.617188 328.15625 267.988281 C 367.816406 235.8125 418.023438 220.199219 457.816406 187.945312 C 477.308594 172.140625 490.132812 149.425781 507.238281 131.238281 C 521.578125 115.949219 540.605469 106.082031 560.34375 99.632812 C 556.84375 80.140625 553.621094 60.652344 550.800781 41.164062 C 550.449219 38.589844 549.554688 36.664062 548.332031 35.171875 C 510.921875 53.496094 470.992188 67.699219 436.996094 92.257812 C 397.175781 120.964844 383.351562 169.050781 353.773438 206.320312 C 323.925781 243.945312 284.457031 255.628906 238.265625 259.613281 C 209.746094 262.050781 181.796875 263.300781 154.308594 272.109375 C 125.058594 281.40625 106.136719 304.5 79.867188 318.515625 " fill-opacity="1" fill-rule="nonzero"/><path fill="#e23042" d="M 71.734375 276.636719 C 73.660156 288.371094 75.503906 300.109375 77.429688 311.792969 C 98.246094 300.378906 114.511719 282.953125 135.792969 272.136719 C 155.609375 262.078125 177.867188 258.121094 199.742188 255.601562 C 228.449219 252.238281 256.859375 252.078125 285.1875 245.492188 C 315.414062 238.441406 338.648438 215.347656 356.511719 191.304688 C 381.886719 157.179688 393.894531 116.65625 428.785156 89.820312 C 459.957031 65.75 497.042969 51.4375 532.582031 34.929688 C 484.65625 44.417969 427.671875 48.726562 391.890625 84.074219 C 381.046875 94.832031 373.238281 108.578125 365.429688 121.996094 C 365.296875 122.457031 365.050781 122.863281 364.671875 123.242188 C 361.582031 128.582031 358.410156 133.867188 355.046875 138.855469 C 348.921875 148.015625 341.574219 155.929688 333.386719 162.898438 C 333.117188 163.628906 332.464844 164.199219 331.492188 164.441406 C 326.71875 168.375 321.675781 171.953125 316.335938 175.230469 C 277.492188 199.355469 229.292969 205.238281 188.65625 226.246094 C 164.71875 238.578125 142.40625 253.433594 119.878906 268.070312 C 105.429688 277.476562 89.601562 277.015625 73.035156 276.90625 C 72.519531 276.90625 72.140625 276.769531 71.734375 276.636719 " fill-opacity="1" fill-rule="nonzero"/><path fill="#072c6d" d="M 77.941406 57.046875 C 69.703125 57.507812 35.574219 53.550781 38.472656 71.035156 C 42.1875 93.042969 45.738281 115.109375 49.289062 137.175781 C 94.453125 105.242188 158.457031 96.976562 211.996094 97.898438 C 248.890625 98.519531 284.457031 98.980469 318.667969 83.285156 C 342.929688 72.144531 364.320312 55.230469 386.519531 40.40625 C 375.109375 41.027344 363.75 41.625 352.335938 42.21875 C 278.4375 46.257812 204.515625 50.21875 130.589844 54.257812 C 113.050781 55.175781 95.507812 56.125 77.941406 57.046875 " fill-opacity="1" fill-rule="nonzero"/><path fill="#1a5baa" d="M 50.507812 144.789062 C 52.515625 157.234375 54.519531 169.675781 56.527344 182.117188 C 57.230469 186.398438 57.9375 190.761719 58.640625 195.046875 C 83.472656 187.5625 107.03125 185.179688 132.457031 181.546875 C 158.402344 177.859375 179.382812 155.742188 201.503906 143.410156 C 222.351562 131.753906 244.527344 136.523438 267.214844 134.191406 C 298.851562 130.964844 329.835938 122.535156 361.175781 117.304688 C 361.308594 117.277344 361.445312 117.304688 361.582031 117.304688 C 373.046875 98.792969 383.8125 79.761719 402.136719 66.15625 C 426.667969 47.886719 459.117188 40.648438 490.972656 35.066406 C 484.140625 35.308594 477.308594 35.5 470.585938 35.824219 C 446.867188 37.125 423.117188 38.398438 399.425781 39.699219 C 399.128906 40.214844 398.773438 40.730469 398.152344 41.109375 C 372.804688 57.183594 349.058594 75.695312 322.246094 89.359375 C 298.011719 101.636719 271.5 104.699219 244.769531 105.296875 C 209.421875 106.082031 175.316406 103.425781 140.265625 110.066406 C 111.042969 115.570312 74.773438 127.035156 50.644531 144.761719 C 50.589844 144.789062 50.5625 144.789062 50.507812 144.789062 " fill-opacity="1" fill-rule="nonzero"/><path fill="#f2f2f2" d="M 59.699219 202.011719 C 61.757812 214.5625 63.792969 227.113281 65.796875 239.664062 C 65.851562 239.664062 65.851562 239.664062 65.851562 239.664062 C 112.914062 227.03125 155.039062 202.203125 199.632812 183.28125 C 242.140625 165.230469 283.5625 164.007812 328.453125 157.9375 C 330.054688 156.664062 331.625 155.417969 333.117188 154.0625 C 342.578125 145.605469 349.925781 135.628906 356.59375 125.246094 C 330 129.9375 303.625 135.925781 276.867188 139.992188 C 246.449219 144.574219 220.265625 139.503906 192.640625 156.824219 C 173.3125 168.914062 157.019531 183.039062 134.328125 188.324219 C 109.605469 194.070312 84.640625 194.503906 59.941406 201.984375 C 59.863281 202.011719 59.808594 201.984375 59.699219 202.011719 " fill-opacity="1" fill-rule="nonzero"/><path fill="#ff9831" d="M 66.910156 246.4375 C 68.183594 254.570312 69.484375 262.648438 70.785156 270.753906 C 71.355469 270.238281 72.0625 269.886719 73.035156 269.886719 C 99.167969 270.046875 114.351562 263.273438 136.011719 249.09375 C 158.320312 234.457031 181.605469 221.367188 205.625 209.953125 C 241.871094 192.714844 282.992188 187.671875 316.742188 166.3125 C 302.078125 167.804688 287.386719 168.78125 272.664062 170.269531 C 243.035156 173.28125 215.222656 183.824219 188.140625 195.804688 C 148.15625 213.53125 110.203125 234.972656 67.695312 246.386719 C 67.425781 246.464844 67.152344 246.4375 66.910156 246.4375 " fill-opacity="1" fill-rule="nonzero"/><path fill="#333333" d="M 31.75 72.851562 C 30.855469 67.238281 28.46875 60.054688 33.214844 55.285156 C 42.863281 45.609375 73.660156 50.269531 85.480469 49.675781 C 124.378906 47.5625 163.28125 45.445312 202.128906 43.359375 C 276.597656 39.347656 351.035156 35.308594 425.503906 31.296875 C 457.628906 29.507812 490.671875 29.832031 522.527344 25.578125 C 531.171875 24.410156 553.648438 20.15625 556.410156 33.574219 C 570.777344 103.996094 582.515625 175.148438 595.691406 245.816406 C 601.574219 277.367188 606.101562 309.542969 613.691406 340.714844 C 615.699219 349.171875 625.242188 372.753906 617.433594 380.5625 C 613.367188 384.625 604.042969 383.652344 599.136719 383.8125 C 580.835938 384.574219 562.292969 387.472656 544.023438 389.261719 C 504.144531 393.164062 464.269531 397.09375 424.390625 400.972656 C 367.734375 406.554688 311.050781 412.167969 254.394531 417.722656 C 224.25 420.652344 194.023438 423.605469 163.824219 426.613281 C 144.007812 428.511719 115.246094 436.886719 95.996094 430.109375 C 95.15625 430.164062 94.316406 429.839844 93.558594 428.945312 C 87.023438 421.003906 86.863281 411.21875 85.152344 401.214844 C 82.117188 383.597656 79.351562 365.921875 76.453125 348.25 C 70 308.457031 63.546875 268.71875 57.097656 228.957031 C 51.1875 192.957031 45.359375 156.960938 39.53125 120.964844 C 36.902344 104.917969 34.269531 88.898438 31.75 72.851562 Z M 44.925781 48.457031 C 32.375 49.675781 23.402344 53.632812 21.230469 62.007812 C 31.207031 108.65625 36.007812 156.960938 43.378906 204.019531 C 54.46875 274.902344 65.285156 345.917969 78.214844 416.449219 C 79.757812 424.90625 80.519531 434.449219 83.746094 442.363281 C 97.433594 436.5625 112.832031 439.164062 127.253906 437.671875 C 143.355469 435.992188 159.378906 433.90625 175.507812 432.359375 C 237.34375 426.316406 299.097656 420.246094 360.847656 414.035156 C 422.984375 407.800781 485.117188 401.542969 547.195312 394.953125 C 567.90625 392.757812 588.589844 390.5625 609.246094 388.175781 C 614.070312 387.664062 619.710938 387.554688 625.1875 386.902344 C 625.105469 386.363281 625.050781 385.683594 625.105469 385.035156 C 626.460938 368.632812 622.203125 353.101562 618.597656 337.273438 C 614.261719 317.945312 611.632812 298.078125 608.136719 278.558594 C 600.597656 236.898438 592.738281 195.234375 584.792969 153.628906 C 577.691406 116.273438 572.027344 78.515625 564.082031 41.300781 C 557.253906 9.230469 532.609375 18.71875 510.082031 21.675781 C 490.511719 24.195312 470.640625 24.925781 450.851562 25.6875 C 371.179688 28.722656 291.640625 34.195312 212.050781 38.832031 C 170.898438 41.191406 129.695312 43.550781 88.515625 45.796875 C 73.984375 46.585938 59.429688 47.046875 44.925781 48.457031 " fill-opacity="1" fill-rule="nonzero"/><path fill="#b3b3b3" d="M 361.636719 491.128906 C 381.371094 506.441406 402.136719 520.238281 424.066406 532.167969 C 424.71875 532.546875 425.097656 533.007812 425.367188 533.519531 C 503.0625 523.980469 580.78125 513.734375 658.53125 504.355469 C 635.757812 492.292969 612.417969 481.261719 590.597656 467.519531 C 590.460938 467.410156 590.351562 467.273438 590.269531 467.191406 C 550.230469 471.421875 510.273438 475.730469 470.289062 480.039062 C 434.339844 483.972656 397.960938 487.46875 361.636719 491.128906 " fill-opacity="1" fill-rule="nonzero"/><path fill="#b3b3b3" d="M 102.476562 446.835938 C 110.339844 449.925781 117.167969 455.210938 124.570312 460.957031 C 147.503906 478.875 172.90625 496.710938 197.4375 512.351562 C 226.527344 530.8125 261.441406 551.410156 296.710938 549.027344 C 329.757812 546.804688 362.964844 541.03125 395.875 537.125 C 402.082031 536.367188 408.34375 535.582031 414.605469 534.824219 C 392.457031 522.300781 371.449219 508.042969 351.550781 492.128906 C 344.613281 492.890625 337.699219 493.59375 330.785156 494.351562 C 330.652344 494.351562 330.570312 494.351562 330.40625 494.351562 C 291.886719 498.417969 253.5 502.808594 215.765625 508.175781 C 214.976562 508.3125 214.273438 508.121094 213.675781 507.851562 C 213.488281 507.796875 213.351562 507.851562 213.105469 507.796875 C 195.214844 503.164062 177.867188 492.238281 162.195312 482.804688 C 157.804688 480.121094 149.945312 475.921875 143.25 470.824219 C 142.707031 470.636719 142.273438 470.226562 142 469.792969 C 135.957031 464.941406 131.238281 459.332031 131.484375 453.394531 C 131.535156 452.175781 132.050781 451.335938 132.839844 450.765625 C 133.054688 450.550781 133.351562 450.386719 133.679688 450.25 C 133.761719 450.25 133.8125 450.195312 133.894531 450.195312 C 134.113281 450.167969 134.222656 450.035156 134.4375 450.035156 C 212.347656 438.703125 291.476562 433.09375 369.769531 424.824219 C 424.527344 419.023438 479.316406 413.222656 534.101562 407.34375 C 561.699219 404.359375 590.214844 402.949219 617.515625 397.800781 C 618.679688 397.582031 619.65625 397.910156 620.414062 398.503906 C 620.523438 398.558594 620.578125 398.503906 620.660156 398.558594 C 644.8125 408.96875 670.863281 419.539062 694.664062 432.441406 C 695.234375 432.578125 695.695312 432.820312 696.019531 433.199219 C 703.640625 437.347656 711.011719 441.738281 718.035156 446.457031 C 719.441406 447.40625 719.824219 448.894531 719.550781 450.195312 C 719.957031 452.230469 718.875 454.5625 716.273438 454.5625 C 702.933594 454.507812 689.433594 455.78125 675.960938 457.40625 C 675.121094 457.976562 674.144531 458.164062 673.007812 457.785156 C 660.644531 459.277344 648.230469 461.066406 636.136719 462.3125 C 624.589844 463.53125 613.070312 464.753906 601.574219 465.972656 C 624.019531 479.335938 647.714844 490.3125 670.59375 502.890625 C 719.335938 497.0625 768.128906 491.640625 816.925781 486.953125 C 763.875 450.765625 705.78125 422.304688 647.578125 395.605469 C 642.453125 394.820312 637.304688 394.519531 632.097656 394.953125 C 630.527344 395.089844 629.007812 394.492188 627.84375 393.492188 C 623.613281 393.925781 619.304688 394.003906 615.5625 394.492188 C 595.175781 396.878906 574.738281 399.074219 554.324219 401.214844 C 491.433594 407.910156 428.511719 414.253906 365.566406 420.570312 C 303.378906 426.777344 241.246094 432.957031 179.085938 439 C 153.738281 441.46875 128.011719 445.210938 102.476562 446.835938 " fill-opacity="1" fill-rule="nonzero"/><path fill="#b3b3b3" d="M 102.3125 454.695312 C 92.175781 448.625 90.984375 451.550781 90.929688 457.867188 C 96.972656 464.292969 105.621094 468.546875 114.457031 475.132812 C 140.863281 494.8125 170.277344 510.101562 197.816406 528.101562 C 210.992188 536.691406 224.410156 544.742188 238.019531 552.683594 C 248.078125 558.621094 257.621094 561.984375 267.433594 563.773438 C 267.703125 560.492188 268.464844 557.320312 269.683594 554.230469 C 252.660156 550.191406 236.855469 541.410156 221.105469 533.140625 C 193.289062 518.558594 169.921875 499.800781 143.761719 482.644531 C 135.441406 477.195312 127.417969 471.800781 119.609375 465.648438 C 113.945312 461.203125 108.386719 458.382812 102.3125 454.695312 " fill-opacity="1" fill-rule="nonzero"/><path fill="#e6e6e6" d="M 276.324219 556.238281 C 275.050781 558.894531 274.535156 561.792969 274.34375 564.746094 C 282.476562 565.613281 290.992188 565.667969 300.261719 565.207031 C 337.101562 563.390625 373.699219 562.824219 410.269531 557.726562 C 443.695312 553.066406 476.929688 547.019531 510.355469 542.683594 C 587.234375 532.679688 664.332031 525.578125 741.183594 515.0625 C 766.207031 511.59375 801.960938 516.253906 823.839844 501.128906 C 823.433594 498.5 823.269531 495.871094 823.242188 493.324219 C 680.542969 506.820312 538.195312 527.070312 395.875 544.09375 C 362.800781 547.996094 329.757812 551.980469 296.710938 555.992188 C 289.742188 556.832031 282.992188 556.617188 276.460938 555.585938 C 276.40625 555.800781 276.40625 556.046875 276.324219 556.238281 " fill-opacity="1" fill-rule="nonzero"/><path fill="#000000" d="M 674.089844 450.550781 C 669.5625 448.109375 665.007812 445.671875 660.425781 443.230469 C 671.242188 441.984375 682.035156 440.710938 692.796875 439.460938 C 697.648438 442.066406 702.335938 444.882812 706.972656 447.730469 C 696.074219 448.164062 685.070312 449.222656 674.089844 450.550781 Z M 649.636719 437.484375 C 646.332031 435.722656 642.941406 433.933594 639.582031 432.199219 C 649.394531 431.003906 659.046875 429.460938 668.289062 427.074219 C 672.871094 429.214844 677.425781 431.414062 681.898438 433.714844 C 671.136719 434.964844 660.402344 436.238281 649.636719 437.484375 Z M 629.0625 426.613281 C 623.804688 423.796875 618.542969 421.003906 613.367188 418.183594 C 621.6875 416.882812 630.011719 415.582031 638.28125 414.117188 C 638.523438 414.0625 638.660156 413.984375 638.796875 413.875 C 645.136719 416.640625 651.507812 419.402344 657.824219 422.25 C 648.472656 424.230469 638.796875 425.53125 629.0625 426.613281 Z M 603.582031 449.980469 C 618.464844 448.191406 633.375 446.429688 648.230469 444.695312 C 652.863281 447.132812 657.445312 449.601562 662.027344 452.039062 C 652.105469 453.339844 642.210938 454.695312 632.480469 455.671875 C 625.703125 456.429688 618.925781 457.164062 612.148438 457.867188 C 612.066406 457.679688 611.957031 457.515625 611.820312 457.324219 C 609.136719 454.777344 606.398438 452.3125 603.582031 449.980469 Z M 603.253906 412.707031 C 600.492188 411.21875 597.753906 409.671875 594.988281 408.183594 C 602.605469 407.289062 610.195312 406.230469 617.703125 404.875 C 620.792969 406.175781 623.914062 407.53125 627.058594 408.886719 C 619.167969 410.1875 611.226562 411.488281 603.253906 412.707031 Z M 587.070312 437.457031 C 588.671875 437.265625 590.269531 437.078125 591.84375 436.886719 C 603.308594 435.53125 615.238281 434.636719 627.164062 433.527344 C 630.582031 435.34375 633.96875 437.160156 637.441406 438.949219 C 623.613281 440.574219 609.761719 442.226562 595.9375 443.855469 C 593.007812 441.660156 590.082031 439.515625 587.070312 437.457031 Z M 578.015625 431.519531 C 574.222656 429.136719 570.398438 426.777344 566.46875 424.582031 C 578.289062 423.144531 590.082031 421.601562 601.820312 419.917969 C 606.671875 422.519531 611.578125 425.203125 616.484375 427.808594 C 604.476562 428.890625 592.519531 429.785156 581 431.195312 C 579.996094 431.277344 578.992188 431.414062 578.015625 431.519531 Z M 554.976562 463.804688 C 551.804688 461.472656 548.578125 459.140625 545.378906 456.8125 C 561.507812 454.941406 577.691406 453.015625 593.820312 451.089844 C 596.9375 453.585938 600.03125 456.160156 603.039062 458.871094 C 587.042969 460.550781 571.105469 462.257812 555.164062 463.964844 C 555.054688 463.914062 555.054688 463.859375 554.976562 463.804688 Z M 556.167969 418.835938 C 552.535156 416.9375 548.875 415.011719 545.242188 413.140625 C 557.765625 411.789062 570.535156 410.757812 583.25 409.484375 C 583.519531 409.78125 583.765625 410.050781 584.199219 410.242188 C 586.609375 411.652344 589.105469 412.953125 591.570312 414.308594 C 579.804688 415.933594 568.015625 417.480469 556.167969 418.835938 Z M 537.109375 450.765625 C 534.15625 448.625 531.226562 446.511719 528.328125 444.367188 C 544.320312 442.5 560.289062 440.628906 576.28125 438.703125 C 579.507812 440.765625 582.652344 442.878906 585.714844 445.074219 C 569.503906 446.972656 553.265625 448.839844 537.109375 450.765625 Z M 520.003906 438.324219 C 516.480469 435.804688 512.984375 433.335938 509.433594 430.816406 C 524.53125 429.324219 539.578125 427.726562 554.59375 425.992188 C 558.714844 428.1875 562.726562 430.492188 566.738281 432.875 C 551.125 434.691406 535.566406 436.507812 520.003906 438.324219 Z M 500.867188 424.824219 C 497.964844 422.765625 494.984375 420.8125 492.027344 418.808594 C 505.582031 417.34375 519.164062 415.933594 532.746094 414.445312 C 532.960938 414.632812 533.097656 414.824219 533.316406 414.90625 C 536.867188 416.695312 540.390625 418.507812 543.941406 420.324219 C 529.574219 421.925781 515.234375 423.390625 500.867188 424.824219 Z M 484.410156 463.992188 C 501.355469 461.988281 518.269531 460.035156 535.183594 458.003906 C 538.410156 460.363281 541.636719 462.746094 544.863281 465.078125 C 527.378906 466.949219 509.839844 468.820312 492.382812 470.6875 C 489.617188 468.546875 486.984375 466.296875 484.410156 463.992188 Z M 470.855469 451.0625 C 486.605469 449.222656 502.355469 447.40625 518.078125 445.589844 C 521.007812 447.675781 523.960938 449.84375 526.917969 451.984375 C 510.515625 453.910156 494.089844 455.863281 477.6875 457.785156 C 475.355469 455.589844 473.105469 453.339844 470.855469 451.0625 Z M 464.730469 444.75 C 461.964844 441.847656 459.226562 438.894531 456.460938 435.9375 C 470.585938 434.582031 484.683594 433.226562 498.832031 431.871094 C 502.464844 434.421875 506.070312 436.96875 509.675781 439.542969 C 494.65625 441.277344 479.695312 443.011719 464.730469 444.75 Z M 450.578125 429.675781 C 448.683594 427.726562 446.839844 425.746094 444.96875 423.847656 C 457.167969 422.519531 469.394531 421.21875 481.617188 419.917969 C 481.835938 420.246094 482.132812 420.515625 482.484375 420.757812 C 485.035156 422.441406 487.5 424.175781 490.023438 425.910156 C 476.847656 427.15625 463.699219 428.429688 450.578125 429.675781 Z M 432.28125 470.066406 C 437.242188 469.523438 442.230469 468.953125 447.21875 468.386719 C 456.488281 467.273438 465.867188 466.1875 475.167969 465.078125 C 477.605469 467.355469 480.128906 469.550781 482.648438 471.71875 C 475.355469 472.503906 468.0625 473.265625 460.800781 474.050781 C 454.023438 474.808594 447.21875 475.515625 440.414062 476.191406 C 437.566406 474.320312 434.855469 472.289062 432.28125 470.066406 Z M 419.1875 457 C 420.40625 456.835938 421.679688 456.703125 422.902344 456.566406 C 435.941406 455.074219 448.980469 453.585938 462.019531 452.066406 C 464.214844 454.371094 466.464844 456.621094 468.714844 458.871094 C 458.386719 460.0625 448.058594 461.285156 437.757812 462.503906 C 433.691406 462.964844 429.625 463.398438 425.558594 463.859375 C 423.363281 461.664062 421.246094 459.386719 419.1875 457 Z M 424.066406 532.167969 C 402.136719 520.238281 381.371094 506.441406 361.636719 491.128906 C 397.960938 487.46875 434.339844 483.972656 470.289062 480.039062 C 510.273438 475.730469 550.230469 471.421875 590.269531 467.191406 C 590.351562 467.273438 590.460938 467.410156 590.597656 467.519531 C 612.417969 481.261719 635.757812 492.292969 658.53125 504.355469 C 580.78125 513.734375 503.0625 523.980469 425.367188 533.519531 C 425.097656 533.007812 424.71875 532.546875 424.066406 532.167969 Z M 413.820312 450.578125 C 411.324219 447.460938 408.914062 444.261719 406.472656 441.089844 C 420.191406 439.597656 433.878906 438.1875 447.679688 436.832031 C 450.417969 439.789062 453.234375 442.769531 456.027344 445.722656 C 441.957031 447.351562 427.890625 449.003906 413.820312 450.578125 Z M 401.621094 434.691406 C 400.15625 432.714844 398.667969 430.816406 397.230469 428.945312 C 410.214844 427.535156 423.253906 426.125 436.320312 424.742188 C 436.457031 425.015625 436.535156 425.257812 436.78125 425.476562 C 438.40625 427.15625 440.035156 428.835938 441.6875 430.570312 C 428.296875 431.871094 414.929688 433.226562 401.621094 434.691406 Z M 385.492188 480.175781 C 383.484375 478.820312 381.5625 477.355469 379.691406 475.839844 C 394.140625 474.320312 408.589844 472.75 423.035156 471.148438 C 425.261719 473.292969 427.5625 475.351562 430.003906 477.332031 C 415.609375 478.820312 401.1875 480.230469 386.738281 481.667969 C 386.519531 481.097656 386.140625 480.582031 385.492188 480.175781 Z M 372.996094 469.660156 C 371.097656 467.652344 369.226562 465.539062 367.492188 463.34375 C 381.96875 461.472656 396.46875 459.710938 410.972656 457.976562 C 412.925781 460.363281 414.902344 462.636719 416.910156 464.835938 C 402.324219 466.515625 387.6875 468.113281 372.996094 469.660156 Z M 362.476562 456.835938 C 360.089844 453.53125 357.867188 450.167969 355.671875 446.753906 C 369.035156 445.261719 382.402344 443.800781 395.765625 442.253906 C 396.660156 442.171875 397.554688 442.066406 398.476562 441.984375 C 400.917969 445.15625 403.355469 448.378906 405.824219 451.550781 C 391.375 453.261719 376.980469 455.023438 362.476562 456.835938 Z M 351.441406 440.195312 C 350.140625 438.105469 348.839844 436.046875 347.484375 434.042969 C 359.683594 432.820312 371.882812 431.601562 384.082031 430.328125 C 385.707031 430.164062 387.363281 429.976562 389.042969 429.785156 C 390.535156 431.710938 392.078125 433.609375 393.570312 435.53125 C 391.15625 435.804688 388.71875 436.046875 386.332031 436.320312 C 374.703125 437.648438 363.097656 438.949219 351.441406 440.195312 Z M 332.03125 487.222656 C 330.269531 485.328125 328.453125 483.402344 326.664062 481.476562 C 341.25 479.90625 355.835938 478.359375 370.445312 476.816406 C 372.585938 478.875 374.785156 480.828125 377.113281 482.644531 C 362.125 484.160156 347.050781 485.679688 332.03125 487.222656 Z M 320.835938 475.214844 C 319.15625 473.453125 317.476562 471.664062 315.742188 469.929688 C 330.351562 468.058594 344.9375 466.1875 359.492188 464.320312 C 361.121094 466.488281 362.800781 468.546875 364.535156 470.554688 C 350.007812 472.097656 335.421875 473.644531 320.835938 475.214844 Z M 309.613281 463.585938 C 306.199219 460.035156 302.726562 456.484375 299.3125 452.960938 C 315.550781 451.199219 331.734375 449.355469 347.890625 447.59375 C 350.140625 451.0625 352.417969 454.453125 354.777344 457.839844 C 339.703125 459.738281 324.660156 461.664062 309.613281 463.585938 Z M 293.242188 446.644531 C 291.042969 444.367188 288.902344 442.066406 286.707031 439.789062 C 304.382812 438.160156 322.003906 436.453125 339.625 434.773438 C 341.03125 436.832031 342.386719 438.949219 343.742188 441.089844 C 326.910156 442.90625 310.074219 444.777344 293.242188 446.644531 Z M 286.652344 492.183594 C 285.1875 490.234375 283.671875 488.363281 282.070312 486.546875 C 294.054688 485.082031 306.007812 483.726562 317.992188 482.425781 C 319.753906 484.324219 321.515625 486.25 323.304688 488.171875 C 311.105469 489.472656 298.90625 490.773438 286.652344 492.183594 Z M 274.34375 564.746094 C 274.535156 561.792969 275.050781 558.894531 276.324219 556.238281 C 276.40625 556.046875 276.40625 555.800781 276.460938 555.585938 C 282.992188 556.617188 289.742188 556.832031 296.710938 555.992188 C 329.757812 551.980469 362.800781 547.996094 395.875 544.09375 C 538.195312 527.070312 680.542969 506.820312 823.242188 493.324219 C 823.269531 495.871094 823.433594 498.5 823.839844 501.128906 C 801.960938 516.253906 766.207031 511.59375 741.183594 515.0625 C 664.332031 525.578125 587.234375 532.679688 510.355469 542.683594 C 476.929688 547.019531 443.695312 553.066406 410.269531 557.726562 C 373.699219 562.824219 337.101562 563.390625 300.261719 565.207031 C 290.992188 565.667969 282.476562 565.613281 274.34375 564.746094 Z M 271.09375 475.351562 C 283.101562 473.96875 295.058594 472.503906 307.09375 471.015625 C 308.71875 472.75 310.347656 474.429688 312.027344 476.164062 C 300.070312 477.464844 288.144531 478.875 276.214844 480.257812 C 274.589844 478.578125 272.855469 476.949219 271.09375 475.351562 Z M 250.191406 458.4375 C 263.664062 456.890625 277.082031 455.402344 290.476562 453.9375 C 293.945312 457.515625 297.441406 461.09375 300.914062 464.644531 C 288.578125 466.1875 276.214844 467.679688 263.882812 469.144531 C 259.410156 465.457031 254.800781 461.90625 250.191406 458.4375 Z M 238.859375 498.039062 C 235.632812 496.628906 232.570312 495.003906 229.5625 493.269531 C 244.253906 491.207031 258.976562 489.339844 273.695312 487.523438 C 275.375 489.339844 276.976562 491.207031 278.519531 493.132812 C 265.292969 494.679688 252.0625 496.304688 238.859375 498.039062 Z M 242.140625 452.367188 C 239.023438 449.980469 235.933594 447.539062 232.84375 445.074219 C 247.886719 443.527344 262.933594 442.066406 278.003906 440.628906 C 278.140625 440.871094 278.195312 441.035156 278.386719 441.277344 C 280.390625 443.394531 282.453125 445.480469 284.457031 447.59375 C 270.332031 449.195312 256.265625 450.765625 242.140625 452.367188 Z M 220.644531 487.46875 C 217.960938 485.542969 215.355469 483.539062 212.78125 481.449219 C 229.183594 479.988281 245.609375 478.304688 262.066406 476.4375 C 263.9375 478.035156 265.753906 479.660156 267.542969 481.34375 C 251.871094 483.265625 236.257812 485.273438 220.644531 487.46875 Z M 203.566406 497.144531 C 208.660156 496.359375 213.8125 495.546875 218.960938 494.8125 C 221.429688 496.496094 224.003906 498.175781 226.660156 499.71875 C 222.894531 500.234375 219.125 500.695312 215.382812 501.210938 C 215.25 501.15625 215.167969 501.074219 214.976562 501.019531 C 211.15625 500.046875 207.304688 498.691406 203.566406 497.144531 Z M 194.132812 464.886719 C 209.5 463.070312 224.898438 461.285156 240.269531 459.546875 C 244.988281 463.070312 249.730469 466.570312 254.394531 470.175781 C 238.019531 472.042969 221.671875 473.671875 205.355469 475.132812 C 201.558594 471.773438 197.871094 468.304688 194.132812 464.886719 Z M 192.261719 491.804688 C 187.542969 489.390625 182.90625 486.761719 178.460938 484.1875 C 186.703125 483.644531 194.917969 483.023438 203.160156 482.316406 C 205.707031 484.621094 208.390625 486.816406 211.046875 488.957031 C 204.785156 489.90625 198.523438 490.828125 192.261719 491.804688 Z M 187.355469 458.707031 C 184.480469 456.160156 181.605469 453.613281 178.652344 451.199219 C 193.425781 449.355469 208.253906 447.675781 223.109375 446.105469 C 226.066406 448.625 229.128906 451.0625 232.21875 453.476562 C 217.28125 455.15625 202.316406 456.890625 187.355469 458.707031 Z M 167.429688 478.117188 C 163.171875 475.839844 158.023438 473.019531 153.222656 469.902344 C 163.824219 468.546875 174.476562 467.273438 185.15625 465.972656 C 188.789062 469.28125 192.394531 472.613281 196 475.921875 C 186.703125 476.679688 177.40625 477.355469 168.078125 477.925781 C 167.835938 477.925781 167.671875 478.0625 167.429688 478.117188 Z M 145.039062 463.859375 C 142.246094 461.390625 140.078125 458.871094 139.101562 456.378906 C 149.210938 454.941406 159.296875 453.585938 169.40625 452.3125 C 169.625 452.746094 169.949219 453.152344 170.410156 453.476562 C 173.039062 455.535156 175.671875 457.652344 178.191406 459.847656 C 167.15625 461.148438 156.070312 462.449219 145.039062 463.859375 Z M 124.570312 460.957031 C 117.167969 455.210938 110.339844 449.925781 102.476562 446.835938 C 128.011719 445.210938 153.738281 441.46875 179.085938 439 C 241.246094 432.957031 303.378906 426.777344 365.566406 420.570312 C 428.511719 414.253906 491.433594 407.910156 554.324219 401.214844 C 574.738281 399.074219 595.175781 396.878906 615.5625 394.492188 C 619.304688 394.003906 623.613281 393.925781 627.84375 393.492188 C 629.007812 394.492188 630.527344 395.089844 632.097656 394.953125 C 637.304688 394.519531 642.453125 394.820312 647.578125 395.605469 C 705.78125 422.304688 763.875 450.765625 816.925781 486.953125 C 768.128906 491.640625 719.335938 497.0625 670.59375 502.890625 C 647.714844 490.3125 624.019531 479.335938 601.574219 465.972656 C 613.070312 464.753906 624.589844 463.53125 636.136719 462.3125 C 648.230469 461.066406 660.644531 459.277344 673.007812 457.785156 C 674.144531 458.164062 675.121094 457.976562 675.960938 457.40625 C 689.433594 455.78125 702.933594 454.507812 716.273438 454.5625 C 718.875 454.5625 719.957031 452.230469 719.550781 450.195312 C 719.824219 448.894531 719.441406 447.40625 718.035156 446.457031 C 711.011719 441.738281 703.640625 437.347656 696.019531 433.199219 C 695.695312 432.820312 695.234375 432.578125 694.664062 432.441406 C 670.863281 419.539062 644.8125 408.96875 620.660156 398.558594 C 620.578125 398.503906 620.523438 398.558594 620.414062 398.503906 C 619.65625 397.910156 618.679688 397.582031 617.515625 397.800781 C 590.214844 402.949219 561.699219 404.359375 534.101562 407.34375 C 479.316406 413.222656 424.527344 419.023438 369.769531 424.824219 C 291.476562 433.09375 212.347656 438.703125 134.4375 450.035156 C 134.222656 450.035156 134.113281 450.167969 133.894531 450.195312 C 133.8125 450.195312 133.761719 450.25 133.679688 450.25 C 133.351562 450.386719 133.054688 450.550781 132.839844 450.765625 C 132.050781 451.335938 131.535156 452.175781 131.484375 453.394531 C 131.238281 459.332031 135.957031 464.941406 142 469.792969 C 142.273438 470.226562 142.707031 470.636719 143.25 470.824219 C 149.945312 475.921875 157.804688 480.121094 162.195312 482.804688 C 177.867188 492.238281 195.214844 503.164062 213.105469 507.796875 C 213.351562 507.851562 213.488281 507.796875 213.675781 507.851562 C 214.273438 508.121094 214.976562 508.3125 215.765625 508.175781 C 253.5 502.808594 291.886719 498.417969 330.40625 494.351562 C 330.570312 494.351562 330.652344 494.351562 330.785156 494.351562 C 337.699219 493.59375 344.613281 492.890625 351.550781 492.128906 C 371.449219 508.042969 392.457031 522.300781 414.605469 534.824219 C 408.34375 535.582031 402.082031 536.367188 395.875 537.125 C 362.964844 541.03125 329.757812 546.804688 296.710938 549.027344 C 261.441406 551.410156 226.527344 530.8125 197.4375 512.351562 C 172.90625 496.710938 147.503906 478.875 124.570312 460.957031 Z M 90.929688 457.867188 C 90.984375 451.550781 92.175781 448.625 102.3125 454.695312 C 108.386719 458.382812 113.945312 461.203125 119.609375 465.648438 C 127.417969 471.800781 135.441406 477.195312 143.761719 482.644531 C 169.921875 499.800781 193.289062 518.558594 221.105469 533.140625 C 236.855469 541.410156 252.660156 550.191406 269.683594 554.230469 C 268.464844 557.320312 267.703125 560.492188 267.433594 563.773438 C 257.621094 561.984375 248.078125 558.621094 238.019531 552.683594 C 224.410156 544.742188 210.992188 536.691406 197.816406 528.101562 C 170.277344 510.101562 140.863281 494.8125 114.457031 475.132812 C 105.621094 468.546875 96.972656 464.292969 90.929688 457.867188 Z M 21.230469 62.007812 C 23.402344 53.632812 32.375 49.675781 44.925781 48.457031 C 59.429688 47.046875 73.984375 46.585938 88.515625 45.796875 C 129.695312 43.550781 170.898438 41.191406 212.050781 38.832031 C 291.640625 34.195312 371.179688 28.722656 450.851562 25.6875 C 470.640625 24.925781 490.511719 24.195312 510.082031 21.675781 C 532.609375 18.71875 557.253906 9.230469 564.082031 41.300781 C 572.027344 78.515625 577.691406 116.273438 584.792969 153.628906 C 592.738281 195.234375 600.597656 236.898438 608.136719 278.558594 C 611.632812 298.078125 614.261719 317.945312 618.597656 337.273438 C 622.203125 353.101562 626.460938 368.632812 625.105469 385.035156 C 625.050781 385.683594 625.105469 386.363281 625.1875 386.902344 C 619.710938 387.554688 614.070312 387.664062 609.246094 388.175781 C 588.589844 390.5625 567.90625 392.757812 547.195312 394.953125 C 485.117188 401.542969 422.984375 407.800781 360.847656 414.035156 C 299.097656 420.246094 237.34375 426.316406 175.507812 432.359375 C 159.378906 433.90625 143.355469 435.992188 127.253906 437.671875 C 112.832031 439.164062 97.433594 436.5625 83.746094 442.363281 C 80.519531 434.449219 79.757812 424.90625 78.214844 416.449219 C 65.285156 345.917969 54.46875 274.902344 43.378906 204.019531 C 36.007812 156.960938 31.207031 108.65625 21.230469 62.007812 Z M 25.730469 38.316406 C 5.617188 46.71875 1.792969 62.199219 9.953125 81.824219 C 10.199219 82.472656 10.578125 82.988281 10.902344 83.503906 C 13.316406 98.519531 15.214844 113.671875 17.546875 128.582031 C 29.039062 202.582031 40.398438 276.527344 52.652344 350.390625 C 57.421875 379.015625 62.058594 407.722656 67.695312 436.128906 C 69.105469 443.066406 70.136719 450.304688 72.519531 456.945312 C 77.15625 469.984375 96.839844 479.714844 107.382812 487.222656 C 136.335938 507.90625 167.429688 525.390625 197.410156 544.554688 C 217.933594 557.671875 242.140625 576.296875 267.109375 579.222656 C 302.375 583.34375 343.636719 579.277344 378.984375 575.644531 C 409.5625 572.445312 440.195312 568.351562 470.394531 562.957031 C 544.484375 549.703125 620.332031 546.125 694.910156 535.609375 C 725.707031 531.324219 756.609375 528.804688 787.433594 524.902344 C 804.671875 522.707031 822.457031 520.429688 836.390625 509.207031 C 838.722656 507.28125 839.128906 504.871094 838.371094 502.753906 C 838.371094 502.160156 838.34375 501.535156 838.152344 500.886719 C 837.203125 497.335938 837.257812 490.773438 837.203125 490.773438 C 837.203125 488.878906 836.605469 487.332031 835.683594 486.195312 C 835.578125 484.160156 834.683594 482.128906 832.59375 480.636719 C 777.890625 442.039062 717.355469 412.300781 656.605469 384.382812 C 655.765625 383.351562 654.652344 382.566406 653.242188 382.324219 C 648.609375 381.535156 643.945312 380.96875 639.253906 380.832031 C 639.769531 362.425781 633.96875 345.214844 630.851562 327.105469 C 626.867188 303.851562 622.71875 280.648438 618.464844 257.417969 C 609.058594 206.320312 599.433594 155.226562 589.566406 104.1875 C 584.792969 79.492188 582.734375 53.742188 575.632812 29.5625 C 572.675781 19.558594 568.988281 8.90625 557.820312 5.492188 C 539.359375 -0.171875 520.410156 6.847656 501.761719 8.527344 C 479.125 10.640625 456.542969 11.480469 433.878906 12.214844 C 333.117188 15.492188 232.410156 23.707031 131.753906 29.371094 C 107.300781 30.78125 82.851562 31.949219 58.398438 33.382812 C 47.878906 34.007812 35.625 34.195312 25.730469 38.316406 " fill-opacity="1" fill-rule="nonzero"/><path fill="#000000" d="M 544.023438 382.242188 C 510.542969 385.519531 477.117188 388.828125 443.640625 392.109375 C 446.703125 314.585938 532.339844 284.117188 588.914062 247.875 C 589.484375 250.882812 590.082031 253.8125 590.648438 256.820312 C 596.53125 288.453125 601.953125 320.195312 609.109375 351.613281 C 612.554688 366.683594 617.703125 375.03125 599.136719 376.820312 C 580.78125 378.636719 562.402344 380.453125 544.023438 382.242188 Z M 316.011719 404.632812 C 309.964844 405.226562 303.949219 405.796875 297.929688 406.394531 C 300.964844 369.285156 331.519531 338.84375 362.421875 321.226562 C 384.730469 308.457031 409.753906 301.167969 430.21875 285.148438 C 452.585938 267.664062 466.222656 243.484375 486.714844 224.320312 C 511.03125 201.605469 540.933594 179.949219 574.980469 176.695312 C 579.238281 197.945312 583.4375 219.222656 587.503906 240.449219 C 528.410156 279.019531 439.195312 310.300781 436.589844 392.8125 C 396.390625 396.714844 356.214844 400.699219 316.011719 404.632812 Z M 98.195312 423.414062 C 96.1875 420.324219 94.832031 416.964844 94.074219 413.46875 C 137.09375 409.78125 178.191406 397.394531 214.328125 373.269531 C 249.351562 349.875 279.441406 320.574219 310.644531 292.464844 C 350.929688 256.199219 399.640625 238.335938 443.367188 207.597656 C 487.257812 176.695312 508.484375 124.570312 561.617188 106.652344 C 565.4375 127.742188 569.503906 148.773438 573.625 169.808594 C 543.101562 173.035156 514.773438 190.058594 491.972656 210.0625 C 464.917969 233.941406 447.328125 267.554688 415.960938 286.503906 C 387.957031 303.46875 356.511719 312.441406 331.761719 334.777344 C 310.292969 354.242188 292.96875 377.417969 290.855469 407.097656 C 260.601562 410.050781 230.402344 413.035156 200.148438 415.988281 C 182.011719 417.804688 163.824219 419.59375 145.6875 421.355469 C 131.535156 422.765625 112.128906 427.996094 98.195312 423.414062 Z M 78.59375 318.894531 C 79.027344 318.839844 79.433594 318.757812 79.867188 318.515625 C 106.136719 304.5 125.058594 281.40625 154.308594 272.109375 C 181.796875 263.300781 209.746094 262.050781 238.265625 259.613281 C 284.457031 255.628906 323.925781 243.945312 353.773438 206.320312 C 383.351562 169.050781 397.175781 120.964844 436.996094 92.257812 C 470.992188 67.699219 510.921875 53.496094 548.332031 35.171875 C 549.554688 36.664062 550.449219 38.589844 550.800781 41.164062 C 553.621094 60.652344 556.84375 80.140625 560.34375 99.632812 C 540.605469 106.082031 521.578125 115.949219 507.238281 131.238281 C 490.132812 149.425781 477.308594 172.140625 457.816406 187.945312 C 418.023438 220.199219 367.816406 235.8125 328.15625 267.988281 C 291.613281 297.617188 259.898438 333.152344 221.160156 360.175781 C 182.285156 387.203125 140.320312 402.625 93.125 406.554688 C 88.136719 377.335938 83.3125 348.113281 78.59375 318.894531 Z M 77.429688 311.792969 C 75.503906 300.109375 73.660156 288.371094 71.734375 276.636719 C 72.140625 276.769531 72.519531 276.90625 73.035156 276.90625 C 89.601562 277.015625 105.429688 277.476562 119.878906 268.070312 C 142.40625 253.433594 164.71875 238.578125 188.65625 226.246094 C 229.292969 205.238281 277.492188 199.355469 316.335938 175.230469 C 321.675781 171.953125 326.71875 168.375 331.492188 164.441406 C 332.464844 164.199219 333.117188 163.628906 333.386719 162.898438 C 341.574219 155.929688 348.921875 148.015625 355.046875 138.855469 C 358.410156 133.867188 361.582031 128.582031 364.671875 123.242188 C 365.050781 122.863281 365.296875 122.457031 365.429688 121.996094 C 373.238281 108.578125 381.046875 94.832031 391.890625 84.074219 C 427.671875 48.726562 484.65625 44.417969 532.582031 34.929688 C 497.042969 51.4375 459.957031 65.75 428.785156 89.820312 C 393.894531 116.65625 381.886719 157.179688 356.511719 191.304688 C 338.648438 215.347656 315.414062 238.441406 285.1875 245.492188 C 256.859375 252.078125 228.449219 252.238281 199.742188 255.601562 C 177.867188 258.121094 155.609375 262.078125 135.792969 272.136719 C 114.511719 282.953125 98.246094 300.378906 77.429688 311.792969 Z M 70.785156 270.753906 C 69.484375 262.648438 68.183594 254.570312 66.910156 246.4375 C 67.152344 246.4375 67.425781 246.464844 67.695312 246.386719 C 110.203125 234.972656 148.15625 213.53125 188.140625 195.804688 C 215.222656 183.824219 243.035156 173.28125 272.664062 170.269531 C 287.386719 168.78125 302.078125 167.804688 316.742188 166.3125 C 282.992188 187.671875 241.871094 192.714844 205.625 209.953125 C 181.605469 221.367188 158.320312 234.457031 136.011719 249.09375 C 114.351562 263.273438 99.167969 270.046875 73.035156 269.886719 C 72.0625 269.886719 71.355469 270.238281 70.785156 270.753906 Z M 65.796875 239.664062 C 63.792969 227.113281 61.757812 214.5625 59.699219 202.011719 C 59.808594 201.984375 59.863281 202.011719 59.941406 201.984375 C 84.640625 194.503906 109.605469 194.070312 134.328125 188.324219 C 157.019531 183.039062 173.3125 168.914062 192.640625 156.824219 C 220.265625 139.503906 246.449219 144.574219 276.867188 139.992188 C 303.625 135.925781 330 129.9375 356.59375 125.246094 C 349.925781 135.628906 342.578125 145.605469 333.117188 154.0625 C 331.625 155.417969 330.054688 156.664062 328.453125 157.9375 C 283.5625 164.007812 242.140625 165.230469 199.632812 183.28125 C 155.039062 202.203125 112.914062 227.03125 65.851562 239.664062 C 65.851562 239.664062 65.851562 239.664062 65.796875 239.664062 Z M 56.527344 182.117188 C 54.519531 169.675781 52.515625 157.234375 50.507812 144.789062 C 50.5625 144.789062 50.589844 144.789062 50.644531 144.761719 C 74.773438 127.035156 111.042969 115.570312 140.265625 110.066406 C 175.316406 103.425781 209.421875 106.082031 244.769531 105.296875 C 271.5 104.699219 298.011719 101.636719 322.246094 89.359375 C 349.058594 75.695312 372.804688 57.183594 398.152344 41.109375 C 398.773438 40.730469 399.128906 40.214844 399.425781 39.699219 C 423.117188 38.398438 446.867188 37.125 470.585938 35.824219 C 477.308594 35.5 484.140625 35.308594 490.972656 35.066406 C 459.117188 40.648438 426.667969 47.886719 402.136719 66.15625 C 383.8125 79.761719 373.046875 98.792969 361.582031 117.304688 C 361.445312 117.304688 361.308594 117.277344 361.175781 117.304688 C 329.835938 122.535156 298.851562 130.964844 267.214844 134.191406 C 244.527344 136.523438 222.351562 131.753906 201.503906 143.410156 C 179.382812 155.742188 158.402344 177.859375 132.457031 181.546875 C 107.03125 185.179688 83.472656 187.5625 58.640625 195.046875 C 57.9375 190.761719 57.230469 186.398438 56.527344 182.117188 Z M 38.472656 71.035156 C 35.574219 53.550781 69.703125 57.507812 77.941406 57.046875 C 95.507812 56.125 113.050781 55.175781 130.589844 54.257812 C 204.515625 50.21875 278.4375 46.257812 352.335938 42.21875 C 363.75 41.625 375.109375 41.027344 386.519531 40.40625 C 364.320312 55.230469 342.929688 72.144531 318.667969 83.285156 C 284.457031 98.980469 248.890625 98.519531 211.996094 97.898438 C 158.457031 96.976562 94.453125 105.242188 49.289062 137.175781 C 45.738281 115.109375 42.1875 93.042969 38.472656 71.035156 Z M 33.214844 55.285156 C 28.46875 60.054688 30.855469 67.238281 31.75 72.851562 C 34.269531 88.898438 36.902344 104.917969 39.53125 120.964844 C 45.359375 156.960938 51.1875 192.957031 57.097656 228.957031 C 63.546875 268.71875 70 308.457031 76.453125 348.25 C 79.351562 365.921875 82.117188 383.597656 85.152344 401.214844 C 86.863281 411.21875 87.023438 421.003906 93.558594 428.945312 C 94.316406 429.839844 95.15625 430.164062 95.996094 430.109375 C 115.246094 436.886719 144.007812 428.511719 163.824219 426.613281 C 194.023438 423.605469 224.25 420.652344 254.394531 417.722656 C 311.050781 412.167969 367.734375 406.554688 424.390625 400.972656 C 464.269531 397.09375 504.144531 393.164062 544.023438 389.261719 C 562.292969 387.472656 580.835938 384.574219 599.136719 383.8125 C 604.042969 383.652344 613.367188 384.625 617.433594 380.5625 C 625.242188 372.753906 615.699219 349.171875 613.691406 340.714844 C 606.101562 309.542969 601.574219 277.367188 595.691406 245.816406 C 582.515625 175.148438 570.777344 103.996094 556.410156 33.574219 C 553.648438 20.15625 531.171875 24.410156 522.527344 25.578125 C 490.671875 29.832031 457.628906 29.507812 425.503906 31.296875 C 351.035156 35.308594 276.597656 39.347656 202.128906 43.359375 C 163.28125 45.445312 124.378906 47.5625 85.480469 49.675781 C 73.660156 50.269531 42.863281 45.609375 33.214844 55.285156 " fill-opacity="1" fill-rule="nonzero"/></svg>