<svg xmlns="http://www.w3.org/2000/svg" xmlns:xlink="http://www.w3.org/1999/xlink" width="374" zoomAndPan="magnify" viewBox="0 0 841.92 595.499987" height="264" preserveAspectRatio="xMidYMid meet" version="1.0"><path fill="#caddff" d="M 283.835938 64.59375 C 280.105469 66.796875 276.878906 69.757812 273.335938 72.253906 C 243.425781 93.277344 130.042969 169.246094 143.574219 338.179688 C 162.765625 577.789062 261.394531 573.933594 408.667969 573.933594 C 555.9375 573.933594 665.515625 594.71875 696.21875 471.300781 C 727.421875 345.871094 670.953125 339.542969 661.136719 196.460938 C 651.3125 53.375 571.203125 0.105469 453.550781 13.855469 C 379.800781 22.472656 336.246094 33.652344 283.835938 64.59375 " fill-opacity="1" fill-rule="nonzero"/><path fill="#000000" d="M 460.515625 198.210938 C 460.25 198.210938 459.988281 198.113281 459.789062 197.910156 L 456.453125 194.546875 C 456.054688 194.144531 456.054688 193.5 456.453125 193.097656 C 456.855469 192.703125 457.503906 192.707031 457.898438 193.105469 L 461.238281 196.472656 C 461.636719 196.871094 461.632812 197.519531 461.234375 197.914062 C 461.035156 198.113281 460.773438 198.210938 460.515625 198.210938 " fill-opacity="1" fill-rule="nonzero"/><path fill="#000000" d="M 472.207031 209.996094 C 471.941406 209.996094 471.679688 209.894531 471.480469 209.691406 L 468.140625 206.324219 C 467.746094 205.925781 467.746094 205.277344 468.148438 204.882812 C 468.542969 204.484375 469.195312 204.488281 469.589844 204.886719 L 472.929688 208.253906 C 473.324219 208.65625 473.324219 209.300781 472.921875 209.695312 C 472.726562 209.894531 472.464844 209.996094 472.207031 209.996094 " fill-opacity="1" fill-rule="nonzero"/><path fill="#000000" d="M 457.171875 209.996094 C 456.914062 209.996094 456.652344 209.894531 456.453125 209.695312 C 456.054688 209.300781 456.054688 208.65625 456.453125 208.253906 L 459.789062 204.886719 C 460.1875 204.488281 460.832031 204.484375 461.234375 204.882812 C 461.632812 205.277344 461.636719 205.925781 461.238281 206.324219 L 457.898438 209.691406 C 457.699219 209.894531 457.433594 209.996094 457.171875 209.996094 " fill-opacity="1" fill-rule="nonzero"/><path fill="#000000" d="M 468.863281 198.210938 C 468.605469 198.210938 468.34375 198.113281 468.148438 197.914062 C 467.746094 197.519531 467.746094 196.871094 468.140625 196.472656 L 471.480469 193.105469 C 471.878906 192.707031 472.523438 192.703125 472.921875 193.097656 C 473.324219 193.5 473.324219 194.144531 472.929688 194.546875 L 469.589844 197.910156 C 469.390625 198.113281 469.128906 198.210938 468.863281 198.210938 " fill-opacity="1" fill-rule="nonzero"/><path fill="#000000" d="M 493.527344 240.46875 C 490.742188 240.46875 488.480469 242.753906 488.480469 245.566406 C 488.480469 248.375 490.742188 250.65625 493.527344 250.65625 C 496.308594 250.65625 498.578125 248.375 498.578125 245.566406 C 498.578125 242.753906 496.308594 240.46875 493.527344 240.46875 Z M 493.527344 252.699219 C 489.621094 252.699219 486.4375 249.5 486.4375 245.566406 C 486.4375 241.628906 489.621094 238.425781 493.527344 238.425781 C 497.433594 238.425781 500.613281 241.628906 500.613281 245.566406 C 500.613281 249.5 497.433594 252.699219 493.527344 252.699219 " fill-opacity="1" fill-rule="nonzero"/><path fill="#000000" d="M 668.277344 124.5 C 668.050781 124.5 667.824219 124.429688 667.640625 124.277344 C 667.199219 123.921875 667.125 123.28125 667.480469 122.84375 C 677.875 109.859375 684.375 94.199219 686.28125 77.546875 C 686.34375 76.984375 686.855469 76.582031 687.410156 76.648438 C 687.972656 76.714844 688.375 77.21875 688.3125 77.777344 C 686.355469 94.8125 679.707031 110.835938 669.074219 124.117188 C 668.871094 124.367188 668.574219 124.5 668.277344 124.5 " fill-opacity="1" fill-rule="nonzero"/><path fill="#000000" d="M 606.023438 555.785156 C 605.59375 555.785156 605.199219 555.515625 605.054688 555.085938 C 604.878906 554.550781 605.171875 553.972656 605.707031 553.792969 C 627.128906 546.710938 646.070312 533.65625 660.488281 516.042969 C 660.839844 515.605469 661.484375 515.539062 661.921875 515.894531 C 662.355469 516.253906 662.421875 516.894531 662.066406 517.332031 C 647.402344 535.25 628.136719 548.527344 606.34375 555.734375 C 606.238281 555.769531 606.128906 555.785156 606.023438 555.785156 " fill-opacity="1" fill-rule="nonzero"/><path fill="#000000" d="M 640.777344 565.019531 C 640.390625 565.019531 640.019531 564.796875 639.847656 564.421875 C 639.617188 563.910156 639.84375 563.300781 640.359375 563.070312 C 655.4375 556.199219 668.238281 545.171875 677.382812 531.171875 C 677.691406 530.699219 678.320312 530.570312 678.792969 530.878906 C 679.265625 531.1875 679.398438 531.816406 679.089844 532.292969 C 669.734375 546.613281 656.628906 557.898438 641.199219 564.925781 C 641.066406 564.992188 640.917969 565.019531 640.777344 565.019531 " fill-opacity="1" fill-rule="nonzero"/><path fill="#000000" d="M 429.113281 59.742188 C 428.992188 59.742188 428.871094 59.722656 428.753906 59.675781 C 423.386719 57.625 417.746094 55.925781 411.984375 54.621094 C 411.4375 54.492188 411.089844 53.949219 411.21875 53.394531 C 411.34375 52.847656 411.886719 52.503906 412.4375 52.628906 C 418.289062 53.957031 424.023438 55.6875 429.480469 57.769531 C 430.007812 57.96875 430.269531 58.558594 430.066406 59.085938 C 429.914062 59.492188 429.527344 59.742188 429.113281 59.742188 " fill-opacity="1" fill-rule="nonzero"/><path fill="#000000" d="M 343.09375 55.691406 C 342.628906 55.691406 342.210938 55.375 342.101562 54.902344 C 341.976562 54.351562 342.316406 53.804688 342.863281 53.675781 C 363.324219 48.917969 383.3125 47.925781 402.28125 50.730469 C 402.839844 50.8125 403.226562 51.332031 403.144531 51.890625 C 403.0625 52.445312 402.539062 52.832031 401.984375 52.75 C 383.269531 49.984375 363.535156 50.964844 343.324219 55.664062 C 343.25 55.683594 343.171875 55.691406 343.09375 55.691406 " fill-opacity="1" fill-rule="nonzero"/><path fill="#000000" d="M 246.761719 113.464844 C 246.476562 113.464844 246.191406 113.347656 245.988281 113.113281 C 245.621094 112.6875 245.667969 112.039062 246.089844 111.671875 C 251.613281 106.890625 257.398438 102.347656 263.285156 98.167969 C 263.746094 97.839844 264.382812 97.945312 264.710938 98.40625 C 265.035156 98.867188 264.925781 99.503906 264.46875 99.828125 C 258.632812 103.972656 252.898438 108.476562 247.425781 113.214844 C 247.234375 113.382812 246.996094 113.464844 246.761719 113.464844 " fill-opacity="1" fill-rule="nonzero"/><path fill="#000000" d="M 175.035156 269.488281 C 174.503906 269.488281 174.058594 269.082031 174.019531 268.546875 C 172.9375 254.519531 173.9375 239.917969 177 225.144531 C 177.117188 224.59375 177.652344 224.238281 178.207031 224.355469 C 178.757812 224.46875 179.113281 225.007812 179 225.558594 C 175.976562 240.144531 174.984375 254.554688 176.050781 268.386719 C 176.097656 268.953125 175.675781 269.441406 175.113281 269.484375 C 175.085938 269.488281 175.0625 269.488281 175.035156 269.488281 " fill-opacity="1" fill-rule="nonzero"/><path fill="#000000" d="M 523.324219 103.398438 C 523.296875 103.398438 523.273438 103.398438 523.25 103.394531 C 522.6875 103.355469 522.265625 102.863281 522.308594 102.300781 C 522.347656 101.769531 522.382812 101.242188 522.40625 100.710938 C 523.542969 75.523438 506.296875 53.367188 481.398438 48.027344 L 464.058594 44.304688 C 463.507812 44.183594 463.15625 43.640625 463.273438 43.089844 C 463.390625 42.539062 463.933594 42.1875 464.484375 42.308594 L 481.828125 46.027344 C 494.195312 48.679688 505.3125 55.640625 513.128906 65.625 C 520.996094 75.671875 525.011719 88.164062 524.441406 100.804688 C 524.417969 101.351562 524.386719 101.902344 524.34375 102.453125 C 524.304688 102.992188 523.855469 103.398438 523.324219 103.398438 " fill-opacity="1" fill-rule="nonzero"/><path fill="#000000" d="M 541.839844 94.511719 C 541.8125 94.511719 541.789062 94.511719 541.765625 94.511719 C 541.199219 94.46875 540.777344 93.984375 540.816406 93.421875 L 541.175781 88.363281 C 542.257812 73.121094 539.226562 57.847656 532.414062 44.199219 C 532.160156 43.691406 532.367188 43.078125 532.875 42.828125 C 533.371094 42.574219 533.988281 42.777344 534.242188 43.285156 C 541.214844 57.261719 544.316406 72.902344 543.214844 88.507812 L 542.851562 93.566406 C 542.816406 94.105469 542.367188 94.511719 541.839844 94.511719 " fill-opacity="1" fill-rule="nonzero"/><path fill="#000000" d="M 585.871094 529.617188 C 585.460938 529.617188 585.074219 529.367188 584.917969 528.957031 C 584.71875 528.433594 584.984375 527.839844 585.511719 527.640625 C 589.050781 526.296875 592.609375 524.867188 596.085938 523.386719 C 596.605469 523.167969 597.203125 523.40625 597.421875 523.929688 C 597.644531 524.445312 597.402344 525.042969 596.882812 525.265625 C 593.382812 526.753906 589.800781 528.195312 586.234375 529.550781 C 586.117188 529.59375 585.992188 529.617188 585.871094 529.617188 " fill-opacity="1" fill-rule="nonzero"/><path fill="#000000" d="M 525.96875 546.664062 C 525.5 546.664062 525.078125 546.34375 524.972656 545.867188 C 524.851562 545.3125 525.199219 544.769531 525.746094 544.648438 C 537.96875 541.9375 552.453125 538.542969 567.226562 533.945312 C 567.761719 533.777344 568.335938 534.082031 568.503906 534.617188 C 568.667969 535.15625 568.371094 535.730469 567.832031 535.894531 C 552.988281 540.515625 538.453125 543.921875 526.1875 546.644531 C 526.117188 546.660156 526.042969 546.664062 525.96875 546.664062 " fill-opacity="1" fill-rule="nonzero"/><path fill="#5479f7" d="M 311.371094 90.347656 L 288.195312 87.515625 C 285.339844 87.167969 282.542969 88.527344 281.035156 90.996094 L 273.378906 103.546875 L 267.511719 88.859375 C 266.507812 86.351562 264.230469 84.589844 261.5625 84.265625 L 240.25 81.660156 C 236.210938 81.167969 233.335938 77.46875 233.824219 73.402344 L 239.308594 27.804688 C 239.796875 23.738281 243.464844 20.835938 247.503906 21.328125 L 318.621094 30.015625 C 322.660156 30.507812 325.535156 34.203125 325.046875 38.273438 L 319.566406 83.871094 C 319.078125 87.941406 315.40625 90.839844 311.371094 90.347656 " fill-opacity="1" fill-rule="nonzero"/><path fill="#ffffff" d="M 289.285156 59.84375 C 287.074219 59.574219 284.988281 60.40625 283.527344 61.890625 L 270.832031 55.074219 C 270.867188 54.898438 270.925781 54.734375 270.949219 54.554688 C 270.988281 54.222656 270.976562 53.894531 270.96875 53.570312 L 285.398438 48.90625 C 286.488281 50.503906 288.199219 51.65625 290.253906 51.910156 C 294.050781 52.382812 297.523438 49.652344 297.988281 45.824219 C 298.457031 41.996094 295.746094 38.492188 291.945312 38.027344 C 288.148438 37.554688 284.675781 40.285156 284.210938 44.113281 C 284.167969 44.449219 284.183594 44.773438 284.1875 45.101562 L 269.757812 49.761719 C 268.671875 48.164062 266.957031 47.011719 264.90625 46.757812 C 261.105469 46.289062 257.636719 49.019531 257.167969 52.847656 C 256.703125 56.675781 259.414062 60.175781 263.210938 60.644531 C 265.425781 60.917969 267.507812 60.085938 268.96875 58.601562 L 281.664062 65.417969 C 281.628906 65.589844 281.570312 65.757812 281.546875 65.9375 C 281.082031 69.765625 283.792969 73.261719 287.589844 73.734375 C 291.390625 74.203125 294.859375 71.472656 295.328125 67.644531 C 295.792969 63.816406 293.082031 60.316406 289.285156 59.84375 " fill-opacity="1" fill-rule="nonzero"/><path fill="#5479f7" d="M 232.960938 134.140625 L 217.992188 141.089844 C 216.148438 141.945312 214.964844 143.808594 214.96875 145.851562 L 214.976562 156.253906 L 206.054688 149.617188 C 204.527344 148.484375 202.511719 148.277344 200.789062 149.074219 L 187.023438 155.464844 C 184.414062 156.675781 181.328125 155.527344 180.125 152.898438 L 166.664062 123.445312 C 165.460938 120.816406 166.605469 117.703125 169.210938 116.492188 L 215.152344 95.167969 C 217.761719 93.957031 220.847656 95.109375 222.050781 97.734375 L 235.511719 127.1875 C 236.710938 129.816406 235.570312 132.929688 232.960938 134.140625 " fill-opacity="1" fill-rule="nonzero"/><path fill="#ffffff" d="M 205.902344 116.066406 C 204.367188 115.410156 202.679688 115.429688 201.144531 116.125 C 199.996094 116.644531 199.105469 117.488281 198.503906 118.628906 C 198.199219 119.203125 197.972656 119.839844 197.832031 120.527344 C 197.226562 120.175781 196.605469 119.925781 195.976562 119.773438 C 194.730469 119.46875 193.515625 119.578125 192.367188 120.101562 C 190.828125 120.792969 189.691406 122.054688 189.164062 123.648438 C 188.644531 125.222656 188.761719 126.992188 189.496094 128.644531 C 190.25 130.335938 191.570312 131.605469 193.644531 132.632812 C 195.503906 133.550781 197.894531 134.253906 200.667969 135.066406 C 201.613281 135.34375 202.6875 135.660156 203.808594 136.007812 C 204.105469 136.097656 204.421875 136.074219 204.707031 135.949219 C 204.988281 135.820312 205.21875 135.59375 205.34375 135.308594 C 205.835938 134.234375 206.3125 133.21875 206.734375 132.320312 C 207.972656 129.691406 209.039062 127.421875 209.589844 125.410156 C 210.207031 123.164062 210.144531 121.332031 209.386719 119.632812 C 208.652344 117.984375 207.414062 116.722656 205.902344 116.066406 " fill-opacity="1" fill-rule="nonzero"/><path fill="#ffffff" d="M 526.660156 121.816406 C 526.660156 121.816406 528.996094 122.851562 532.59375 122.46875 C 535.632812 122.144531 555.109375 116.253906 563.152344 90.394531 C 563.152344 90.394531 604.117188 97.277344 624.925781 95.640625 C 645.734375 94 656.929688 92.328125 656.929688 92.328125 C 656.929688 92.328125 644.433594 157.085938 598.585938 153.808594 C 598.585938 153.808594 585.21875 152.976562 585.144531 152.96875 C 583.257812 152.804688 558.894531 150.664062 550.144531 150.027344 C 541.042969 149.375 516.65625 152.980469 498.777344 147.082031 C 480.894531 141.183594 471.789062 132.335938 441.554688 118.246094 C 437.128906 116.1875 424.222656 112.363281 424.222656 112.363281 C 420.863281 118.804688 418.984375 127.015625 418.296875 138.207031 C 414.097656 206.300781 400.402344 222.40625 388.628906 221.515625 C 388.628906 221.515625 381.597656 220.679688 381.277344 220.644531 C 378.023438 220.285156 358.636719 218.246094 331.121094 217.21875 C 331.097656 217.21875 327.910156 217.152344 327.890625 217.152344 L 327.90625 217.152344 C 329.300781 233.847656 335.023438 253.773438 348.117188 273.894531 C 377.640625 319.273438 382.972656 389.648438 362.996094 387.089844 C 362.996094 387.089844 339.324219 385.265625 314.296875 385.324219 C 314.207031 385.324219 164.75 383.886719 164.75 383.886719 C 164.75 383.886719 113.882812 271.777344 207.636719 285.6875 C 208.753906 285.855469 210.097656 285.925781 211.207031 285.992188 C 211.207031 285.992188 199.945312 260.609375 193.9375 228.535156 C 190.125 208.183594 196.851562 177.828125 229.140625 177.5 C 248.769531 177.300781 293.070312 181.480469 293.070312 181.480469 C 293.070312 181.480469 295.839844 177.863281 295.902344 177.757812 C 297.519531 175.226562 314.117188 154.039062 327.746094 119.082031 C 341.820312 82.96875 403.957031 99.253906 437.128906 96.710938 C 437.421875 96.6875 449.988281 95.75 449.988281 95.75 C 471.046875 94.332031 499.636719 107.710938 526.628906 121.792969 L 526.660156 121.816406 " fill-opacity="1" fill-rule="nonzero"/><path fill="#000000" d="M 315.460938 384.300781 C 339.808594 384.300781 362.84375 386.054688 363.078125 386.074219 C 365.90625 386.433594 368.128906 385.222656 369.914062 382.375 C 374.613281 374.875 375.175781 357.476562 371.378906 336.960938 C 367.199219 314.367188 358.410156 291.585938 347.261719 274.457031 C 332.539062 251.824219 328.0625 230.976562 326.90625 217.410156 C 326.882812 217.332031 326.871094 217.25 326.871094 217.15625 C 326.867188 216.609375 327.300781 216.15625 327.847656 216.132812 C 327.875 216.132812 327.898438 216.132812 327.925781 216.132812 L 329.542969 216.167969 C 330.34375 216.183594 331.140625 216.199219 331.152344 216.199219 C 358.554688 217.21875 377.808594 219.234375 381.390625 219.628906 C 381.707031 219.664062 388.746094 220.5 388.746094 220.5 C 391.789062 220.726562 394.726562 219.652344 397.433594 217.289062 C 404.648438 211 413.949219 192.160156 417.28125 138.140625 C 417.976562 126.796875 419.898438 118.453125 423.320312 111.890625 C 423.542969 111.457031 424.039062 111.242188 424.507812 111.382812 C 425.039062 111.539062 437.542969 115.25 441.984375 117.320312 C 455.953125 123.828125 465.585938 129.316406 473.320312 133.722656 C 482.390625 138.886719 489.550781 142.960938 499.097656 146.113281 C 511.75 150.285156 527.628906 149.636719 539.222656 149.164062 C 543.714844 148.980469 547.589844 148.824219 550.21875 149.011719 C 559.203125 149.660156 584.175781 151.855469 585.234375 151.953125 C 585.417969 151.964844 594.09375 152.503906 598.652344 152.789062 C 617.246094 154.121094 632.519531 144.363281 644.0625 123.796875 C 651.246094 110.996094 654.648438 97.792969 655.621094 93.542969 C 651.949219 94.035156 641.402344 95.363281 625.003906 96.65625 C 606 98.15625 569.921875 92.523438 563.859375 91.542969 C 555.84375 116.132812 537.289062 122.992188 532.703125 123.484375 C 528.878906 123.894531 526.351562 122.792969 526.246094 122.746094 C 526.203125 122.722656 526.160156 122.703125 526.121094 122.679688 C 498.746094 108.402344 470.589844 95.367188 450.058594 96.765625 C 450.066406 96.765625 437.496094 97.703125 437.210938 97.726562 C 428.609375 98.390625 418.136719 97.792969 407.050781 97.167969 C 375.097656 95.363281 338.882812 93.316406 328.695312 119.453125 C 320.664062 140.0625 310.289062 159.339844 297.859375 176.746094 C 297.324219 177.496094 296.9375 178.039062 296.765625 178.304688 C 296.738281 178.351562 296.675781 178.445312 293.882812 182.097656 C 293.667969 182.378906 293.324219 182.527344 292.976562 182.492188 C 292.53125 182.457031 248.492188 178.3125 229.148438 178.523438 C 217.828125 178.636719 208.972656 182.488281 202.828125 189.976562 C 193.777344 201 192.820312 217.023438 194.9375 228.34375 C 200.855469 259.9375 212.027344 285.324219 212.140625 285.578125 C 212.28125 285.902344 212.25 286.28125 212.046875 286.574219 C 211.84375 286.863281 211.511719 287.042969 211.148438 287.007812 L 210.980469 287 C 209.859375 286.933594 208.59375 286.863281 207.484375 286.699219 C 184.339844 283.261719 168.226562 287.339844 159.585938 298.8125 C 140.738281 323.832031 162.734375 376.675781 165.417969 382.871094 C 176.21875 382.976562 313.882812 384.300781 314.304688 384.304688 C 314.691406 384.300781 315.078125 384.300781 315.460938 384.300781 Z M 364.027344 388.179688 C 363.648438 388.179688 363.261719 388.152344 362.871094 388.105469 C 362.6875 388.089844 338.988281 386.308594 314.300781 386.34375 C 314.207031 386.34375 189.699219 385.148438 164.738281 384.90625 C 164.34375 384.898438 163.984375 384.664062 163.820312 384.304688 C 163.753906 384.160156 157.101562 369.398438 153.066406 351.488281 C 147.605469 327.273438 149.253906 309.136719 157.957031 297.578125 C 167.082031 285.46875 183.84375 281.125 207.785156 284.679688 C 208.351562 284.761719 208.984375 284.824219 209.621094 284.871094 C 207.121094 278.882812 198.0625 256.105469 192.933594 228.722656 C 190.730469 216.949219 191.757812 200.25 201.25 188.675781 C 207.796875 180.707031 217.175781 176.601562 229.132812 176.480469 C 247.382812 176.300781 287.382812 179.925781 292.605469 180.410156 C 293.617188 179.085938 294.957031 177.332031 295.066406 177.175781 C 295.246094 176.894531 295.625 176.363281 296.199219 175.5625 C 308.527344 158.289062 318.824219 139.164062 326.796875 118.710938 C 337.519531 91.195312 374.519531 93.285156 407.164062 95.128906 C 418.183594 95.75 428.589844 96.339844 437.054688 95.691406 C 437.34375 95.667969 449.914062 94.730469 449.914062 94.730469 C 470.964844 93.3125 499.453125 106.464844 527.097656 120.886719 C 527.109375 120.890625 527.109375 120.894531 527.117188 120.898438 C 527.457031 121.03125 529.511719 121.769531 532.484375 121.453125 C 532.695312 121.429688 553.644531 117.542969 562.175781 90.089844 C 562.328125 89.601562 562.820312 89.304688 563.320312 89.386719 C 563.730469 89.453125 604.402344 96.230469 624.84375 94.621094 C 645.371094 93.003906 656.667969 91.335938 656.78125 91.320312 C 657.109375 91.265625 657.433594 91.382812 657.667969 91.621094 C 657.894531 91.859375 657.996094 92.199219 657.933594 92.519531 C 657.902344 92.683594 654.675781 109.058594 645.84375 124.796875 C 634.738281 144.582031 619.578125 154.945312 601.851562 154.945312 C 600.746094 154.945312 599.632812 154.90625 598.515625 154.824219 C 592.421875 154.445312 585.128906 153.996094 585.054688 153.988281 C 584.796875 153.964844 559.039062 151.695312 550.074219 151.046875 C 547.558594 150.867188 543.734375 151.023438 539.308594 151.203125 C 527.558594 151.6875 511.464844 152.34375 498.457031 148.050781 C 488.722656 144.835938 481.480469 140.714844 472.3125 135.496094 C 464.605469 131.105469 455.019531 125.648438 441.125 119.171875 C 437.453125 117.460938 427.644531 114.457031 424.746094 113.585938 C 421.699219 119.773438 419.964844 127.652344 419.316406 138.269531 C 416.605469 182.199219 409.695312 209.304688 398.773438 218.828125 C 395.636719 221.566406 392.195312 222.808594 388.550781 222.535156 C 388.503906 222.53125 381.484375 221.695312 381.164062 221.65625 C 377.597656 221.265625 358.410156 219.257812 331.082031 218.238281 L 329.5 218.203125 C 329.339844 218.203125 329.179688 218.203125 329.023438 218.199219 C 330.289062 231.539062 334.824219 251.589844 348.972656 273.339844 C 373.03125 310.3125 382.136719 366.722656 371.640625 383.457031 C 369.691406 386.566406 367.078125 388.179688 364.027344 388.179688 " fill-opacity="1" fill-rule="nonzero"/><path fill="#000000" d="M 238.085938 289.136719 C 230.195312 289.136719 222.640625 288.730469 216.105469 287.710938 C 215.550781 287.625 215.171875 287.101562 215.257812 286.542969 C 215.34375 285.988281 215.867188 285.613281 216.421875 285.695312 C 247.976562 290.625 303.890625 281.03125 304.449219 280.929688 C 305.003906 280.832031 305.535156 281.203125 305.628906 281.761719 C 305.726562 282.316406 305.351562 282.84375 304.796875 282.941406 C 304.351562 283.019531 268.703125 289.136719 238.085938 289.136719 " fill-opacity="1" fill-rule="nonzero"/><path fill="#000000" d="M 297.644531 182.636719 C 295.964844 182.636719 294.316406 182.574219 292.691406 182.460938 C 292.128906 182.421875 291.707031 181.933594 291.746094 181.367188 C 291.785156 180.808594 292.269531 180.375 292.835938 180.425781 C 304.378906 181.242188 317.378906 179.066406 332.574219 173.765625 C 333.105469 173.578125 333.6875 173.863281 333.875 174.390625 C 334.058594 174.925781 333.777344 175.503906 333.246094 175.691406 C 319.90625 180.347656 308.199219 182.636719 297.644531 182.636719 " fill-opacity="1" fill-rule="nonzero"/><path fill="#000000" d="M 364.046875 388.179688 C 361.394531 388.179688 358.03125 386.964844 353.835938 383.453125 C 339.980469 371.847656 335.101562 347.625 330.796875 326.257812 C 325.769531 301.308594 321.425781 279.761719 305.179688 282.855469 C 300.089844 283.820312 296.078125 286.664062 293.253906 291.304688 C 284.683594 305.390625 288.40625 333.167969 294.199219 352.679688 C 294.359375 353.21875 294.050781 353.789062 293.511719 353.949219 C 292.96875 354.113281 292.402344 353.800781 292.242188 353.261719 C 286.046875 332.394531 282.601562 304.882812 291.511719 290.242188 C 294.648438 285.085938 299.117188 281.929688 304.800781 280.847656 C 323.027344 277.378906 327.773438 300.925781 332.796875 325.855469 C 337.035156 346.894531 341.839844 370.742188 355.148438 381.886719 C 360.597656 386.453125 364.964844 387.347656 368.121094 384.546875 C 373.976562 379.347656 375.503906 362.117188 372.019531 340.652344 C 368.148438 316.8125 359.125 292.683594 347.261719 274.457031 C 321.75 235.25 323.445312 195.199219 332.796875 179.28125 C 335.269531 175.070312 338.242188 172.867188 341.140625 173.066406 C 349.519531 173.648438 357.839844 185.914062 365.882812 197.777344 C 369.882812 203.671875 373.664062 209.242188 377.015625 212.621094 C 379.054688 214.675781 386.304688 221.144531 394.0625 218.160156 C 403.089844 214.683594 414.449219 197.976562 417.273438 138.160156 C 417.300781 137.597656 417.789062 137.164062 418.339844 137.1875 C 418.902344 137.214844 419.339844 137.695312 419.3125 138.257812 C 417 187.167969 408.753906 214.691406 394.792969 220.066406 C 385.886719 223.496094 377.824219 216.335938 375.570312 214.0625 C 372.082031 210.546875 368.25 204.898438 364.195312 198.921875 C 356.789062 188 348.390625 175.617188 341 175.101562 C 338.898438 174.960938 336.617188 176.808594 334.554688 180.316406 C 325.46875 195.777344 323.9375 234.867188 348.96875 273.34375 C 360.980469 291.800781 370.117188 316.210938 374.03125 340.320312 C 377.6875 362.804688 375.9375 380.335938 369.476562 386.070312 C 368.175781 387.230469 366.386719 388.179688 364.046875 388.179688 " fill-opacity="1" fill-rule="nonzero"/><path fill="#000000" d="M 424.476562 113.050781 C 424.28125 113.050781 424.082031 112.996094 423.90625 112.875 C 423.441406 112.554688 423.316406 111.921875 423.636719 111.453125 C 423.636719 111.453125 423.707031 111.328125 423.800781 111.152344 C 424.238281 110.355469 424.730469 109.46875 425.003906 109.066406 C 429.519531 102.414062 436.429688 95.496094 453.429688 94.632812 C 454.007812 94.621094 454.46875 95.042969 454.496094 95.605469 C 454.527344 96.164062 454.09375 96.644531 453.527344 96.675781 C 437.429688 97.488281 430.925781 103.976562 426.691406 110.21875 C 426.449219 110.570312 425.867188 111.628906 425.589844 112.140625 C 425.441406 112.402344 425.339844 112.582031 425.324219 112.605469 C 425.125 112.894531 424.800781 113.050781 424.476562 113.050781 " fill-opacity="1" fill-rule="nonzero"/><path fill="#000000" d="M 605.710938 154.742188 C 602.515625 154.742188 592.292969 153.996094 582.640625 150.53125 C 572.625 146.9375 558.652344 139.621094 543.859375 131.882812 C 537.851562 128.738281 531.632812 125.480469 525.761719 122.535156 C 525.257812 122.28125 525.054688 121.667969 525.308594 121.160156 C 525.5625 120.660156 526.171875 120.453125 526.675781 120.710938 C 532.5625 123.664062 538.785156 126.921875 544.808594 130.074219 C 559.535156 137.777344 573.449219 145.058594 583.332031 148.613281 C 592.949219 152.0625 603.121094 152.746094 605.917969 152.695312 C 605.921875 152.695312 605.929688 152.695312 605.933594 152.695312 C 606.488281 152.695312 606.945312 153.144531 606.953125 153.703125 C 606.960938 154.265625 606.511719 154.730469 605.945312 154.738281 C 605.875 154.738281 605.792969 154.742188 605.710938 154.742188 " fill-opacity="1" fill-rule="nonzero"/><path fill="#000000" d="M 296.746094 178.304688 C 296.742188 178.324219 296.734375 178.34375 296.726562 178.363281 C 296.738281 178.339844 296.742188 178.320312 296.746094 178.304688 Z M 295.777344 179.003906 C 295.671875 179.003906 295.566406 178.984375 295.457031 178.953125 C 294.925781 178.777344 294.632812 178.195312 294.8125 177.660156 C 294.90625 177.375 295.113281 177.082031 296.195312 175.566406 C 308.527344 158.292969 318.820312 139.167969 326.792969 118.710938 C 337.519531 91.199219 374.519531 93.289062 407.160156 95.132812 C 418.566406 95.777344 429.332031 96.386719 437.957031 95.621094 C 438.507812 95.578125 439.011719 95.984375 439.058594 96.546875 C 439.109375 97.109375 438.695312 97.605469 438.132812 97.65625 C 429.367188 98.433594 418.523438 97.820312 407.046875 97.171875 C 375.09375 95.367188 338.882812 93.320312 328.695312 119.453125 C 320.660156 140.066406 310.285156 159.34375 297.855469 176.75 C 297.328125 177.492188 296.828125 178.191406 296.71875 178.378906 C 296.554688 178.765625 296.179688 179.003906 295.777344 179.003906 " fill-opacity="1" fill-rule="nonzero"/><path fill="#000000" d="M 381.761719 221.71875 C 381.722656 221.71875 381.683594 221.71875 381.644531 221.714844 C 381.441406 221.691406 360.890625 219.347656 331.019531 218.234375 C 330.457031 218.214844 330.015625 217.746094 330.039062 217.179688 C 330.058594 216.613281 330.527344 216.171875 331.09375 216.195312 C 361.046875 217.3125 381.671875 219.660156 381.875 219.6875 C 382.4375 219.75 382.839844 220.253906 382.773438 220.816406 C 382.714844 221.335938 382.273438 221.71875 381.761719 221.71875 " fill-opacity="1" fill-rule="nonzero"/><path fill="#000000" d="M 233.144531 308.855469 C 206.269531 308.855469 175.722656 307.359375 173.796875 307.265625 C 173.234375 307.238281 172.800781 306.757812 172.832031 306.195312 C 172.859375 305.632812 173.339844 305.195312 173.898438 305.226562 C 174.613281 305.257812 245.4375 308.730469 267.117188 305.238281 C 267.671875 305.140625 268.195312 305.527344 268.285156 306.082031 C 268.375 306.636719 267.996094 307.164062 267.441406 307.253906 C 259.976562 308.457031 247.050781 308.855469 233.144531 308.855469 " fill-opacity="1" fill-rule="nonzero"/><path fill="#000000" d="M 249.980469 326.300781 C 249.421875 326.300781 248.96875 325.851562 248.960938 325.292969 C 248.953125 324.730469 249.402344 324.265625 249.964844 324.257812 C 255.203125 324.1875 259.527344 324.058594 262.816406 323.878906 C 263.375 323.859375 263.859375 324.28125 263.890625 324.84375 C 263.917969 325.40625 263.488281 325.886719 262.925781 325.917969 C 259.609375 326.097656 255.261719 326.226562 249.996094 326.300781 C 249.992188 326.300781 249.984375 326.300781 249.980469 326.300781 " fill-opacity="1" fill-rule="nonzero"/><path fill="#000000" d="M 235.546875 326.375 C 205.78125 326.332031 167.59375 325.261719 167.210938 325.253906 C 166.648438 325.238281 166.203125 324.769531 166.21875 324.203125 C 166.234375 323.640625 166.730469 323.179688 167.265625 323.210938 C 167.648438 323.222656 205.8125 324.289062 235.550781 324.335938 C 236.113281 324.335938 236.566406 324.792969 236.566406 325.355469 C 236.566406 325.917969 236.109375 326.375 235.546875 326.375 " fill-opacity="1" fill-rule="nonzero"/><path fill="#000000" d="M 265.074219 344.128906 L 169.441406 344.128906 C 168.878906 344.128906 168.421875 343.671875 168.421875 343.109375 C 168.421875 342.546875 168.878906 342.089844 169.441406 342.089844 L 265.074219 342.089844 C 265.636719 342.089844 266.09375 342.546875 266.09375 343.109375 C 266.09375 343.671875 265.636719 344.128906 265.074219 344.128906 " fill-opacity="1" fill-rule="nonzero"/><path fill="#99b9ff" d="M 237.222656 185.207031 L 277.1875 188.289062 C 283.84375 188.804688 290.527344 188.890625 297.195312 188.546875 L 310.078125 187.882812 C 312.976562 187.734375 315.246094 190.371094 314.675781 193.238281 C 313.25 200.4375 311.433594 213.425781 313.574219 225.71875 C 314.0625 228.507812 311.917969 231.054688 309.109375 230.996094 L 210.886719 229.105469 C 208.707031 229.0625 206.875 227.445312 206.5625 225.273438 C 205.980469 221.253906 205.476562 214.503906 207.023438 207.425781 C 210.074219 193.488281 223.105469 184.117188 237.222656 185.207031 " fill-opacity="1" fill-rule="nonzero"/><path fill="#000000" d="M 243.257812 243.589844 C 241.300781 243.589844 239.328125 243.527344 237.382812 243.40625 L 209.484375 241.675781 C 208.921875 241.640625 208.492188 241.160156 208.527344 240.59375 C 208.5625 240.03125 209.050781 239.609375 209.609375 239.636719 L 237.507812 241.371094 C 239.609375 241.5 241.746094 241.558594 243.855469 241.546875 L 264.890625 241.40625 C 264.894531 241.40625 264.894531 241.40625 264.898438 241.40625 C 265.457031 241.40625 265.914062 241.855469 265.917969 242.417969 C 265.921875 242.984375 265.46875 243.445312 264.90625 243.445312 L 243.867188 243.585938 C 243.664062 243.589844 243.460938 243.589844 243.257812 243.589844 " fill-opacity="1" fill-rule="nonzero"/><path fill="#000000" d="M 235.472656 274.882812 C 232.613281 274.882812 229.734375 274.722656 226.894531 274.417969 L 219.71875 273.648438 C 219.160156 273.589844 218.753906 273.085938 218.816406 272.527344 C 218.875 271.96875 219.378906 271.5625 219.9375 271.621094 L 227.113281 272.390625 C 230.335938 272.738281 233.609375 272.882812 236.847656 272.824219 L 240.992188 272.75 C 241.566406 272.769531 242.019531 273.1875 242.03125 273.75 C 242.039062 274.316406 241.589844 274.78125 241.027344 274.792969 L 236.886719 274.867188 C 236.414062 274.875 235.945312 274.882812 235.472656 274.882812 " fill-opacity="1" fill-rule="nonzero"/><path fill="#000000" d="M 261.898438 260.476562 C 249.3125 260.476562 236.707031 259.859375 224.226562 258.628906 L 214.441406 257.664062 C 213.878906 257.605469 213.46875 257.105469 213.523438 256.546875 C 213.582031 255.984375 214.082031 255.574219 214.640625 255.628906 L 224.425781 256.597656 C 243.203125 258.449219 262.277344 258.902344 281.113281 257.949219 L 321.140625 255.921875 C 321.695312 255.902344 322.179688 256.328125 322.210938 256.890625 C 322.238281 257.457031 321.804688 257.929688 321.242188 257.960938 L 281.21875 259.992188 C 274.796875 260.3125 268.351562 260.476562 261.898438 260.476562 " fill-opacity="1" fill-rule="nonzero"/><path fill="#000000" d="M 395.964844 197.335938 C 395.945312 197.335938 395.925781 197.335938 395.90625 197.332031 L 368.582031 195.78125 C 368.019531 195.75 367.589844 195.265625 367.621094 194.703125 C 367.652344 194.140625 368.136719 193.722656 368.699219 193.742188 L 396.019531 195.296875 C 396.585938 195.328125 397.015625 195.808594 396.980469 196.375 C 396.949219 196.914062 396.5 197.335938 395.964844 197.335938 " fill-opacity="1" fill-rule="nonzero"/><path fill="#000000" d="M 399.050781 180.679688 C 399.035156 180.679688 399.019531 180.679688 399.003906 180.679688 L 358.457031 178.902344 C 357.898438 178.875 357.460938 178.398438 357.484375 177.835938 C 357.507812 177.273438 358 176.835938 358.546875 176.863281 L 399.09375 178.640625 C 399.65625 178.664062 400.09375 179.140625 400.066406 179.703125 C 400.042969 180.253906 399.589844 180.679688 399.050781 180.679688 " fill-opacity="1" fill-rule="nonzero"/><path fill="#000000" d="M 401.398438 162.320312 C 401.386719 162.320312 401.378906 162.320312 401.363281 162.320312 L 319.394531 159.65625 C 318.832031 159.636719 318.390625 159.164062 318.410156 158.601562 C 318.425781 158.039062 318.910156 157.597656 319.460938 157.617188 L 401.433594 160.28125 C 401.996094 160.300781 402.4375 160.769531 402.417969 161.332031 C 402.402344 161.886719 401.945312 162.320312 401.398438 162.320312 " fill-opacity="1" fill-rule="nonzero"/><path fill="#000000" d="M 404.335938 144.554688 C 404.3125 144.554688 404.28125 144.550781 404.257812 144.550781 C 386.003906 143.09375 330.285156 143.660156 329.722656 143.667969 C 329.71875 143.667969 329.714844 143.667969 329.710938 143.667969 C 329.152344 143.667969 328.695312 143.21875 328.691406 142.65625 C 328.683594 142.089844 329.136719 141.628906 329.699219 141.625 C 330.261719 141.621094 386.074219 141.050781 404.421875 142.515625 C 404.980469 142.5625 405.398438 143.054688 405.351562 143.617188 C 405.308594 144.152344 404.863281 144.554688 404.335938 144.554688 " fill-opacity="1" fill-rule="nonzero"/><path fill="#99b9ff" d="M 339.949219 127.246094 L 405.742188 127.246094 C 406.625 127.246094 407.394531 126.644531 407.597656 125.78125 C 408.40625 122.402344 410.792969 113.929688 415.605469 108.28125 C 416.644531 107.0625 415.871094 105.175781 414.273438 105.097656 C 402.398438 104.507812 369.914062 103.246094 355.484375 106.140625 C 354.339844 106.371094 353.246094 106.792969 352.246094 107.394531 C 348.765625 109.503906 340.445312 115.398438 338.097656 124.847656 C 337.792969 126.066406 338.707031 127.246094 339.949219 127.246094 " fill-opacity="1" fill-rule="nonzero"/><path fill="#000000" d="M 617.769531 109.921875 C 594.992188 109.921875 571.078125 106.097656 570.757812 106.046875 C 570.203125 105.960938 569.828125 105.433594 569.917969 104.875 C 570.007812 104.320312 570.527344 103.941406 571.085938 104.03125 C 571.507812 104.101562 613.234375 110.765625 638.621094 106.40625 C 639.175781 106.308594 639.703125 106.683594 639.796875 107.238281 C 639.894531 107.789062 639.523438 108.320312 638.964844 108.417969 C 632.605469 109.507812 625.25 109.921875 617.769531 109.921875 " fill-opacity="1" fill-rule="nonzero"/><path fill="#000000" d="M 622.238281 125.148438 C 593.140625 125.148438 560.230469 119.433594 559.875 119.371094 C 559.320312 119.273438 558.949219 118.746094 559.046875 118.191406 C 559.140625 117.632812 559.675781 117.265625 560.230469 117.363281 C 560.613281 117.429688 599.261719 124.136719 629.640625 122.972656 C 630.222656 122.957031 630.679688 123.390625 630.699219 123.957031 C 630.722656 124.519531 630.285156 124.988281 629.71875 125.011719 C 627.273438 125.105469 624.765625 125.148438 622.238281 125.148438 " fill-opacity="1" fill-rule="nonzero"/><path fill="#000000" d="M 611.410156 140.609375 C 598.046875 140.609375 581.902344 137.730469 581.097656 137.582031 C 580.542969 137.480469 580.175781 136.949219 580.273438 136.398438 C 580.375 135.839844 580.910156 135.476562 581.460938 135.570312 C 581.691406 135.613281 604.832031 139.742188 618.40625 138.226562 C 618.964844 138.160156 619.46875 138.570312 619.53125 139.128906 C 619.59375 139.6875 619.191406 140.191406 618.628906 140.257812 C 616.410156 140.503906 613.960938 140.609375 611.410156 140.609375 " fill-opacity="1" fill-rule="nonzero"/><path fill="#000000" d="M 203.671875 524.078125 L 462.589844 524.078125 C 464.875 524.078125 466.730469 522.222656 466.730469 519.933594 L 466.730469 510.761719 L 199.53125 510.761719 L 199.53125 519.933594 C 199.53125 522.222656 201.382812 524.078125 203.671875 524.078125 " fill-opacity="1" fill-rule="nonzero"/><path fill="#000000" d="M 199.523438 511.027344 L 355.296875 511.027344 L 305.804688 364.316406 C 302.84375 359.726562 297.683594 356.941406 292.136719 356.941406 L 160.457031 356.941406 C 154.484375 356.941406 150.636719 362.785156 152.585938 367.933594 C 153.359375 369.984375 154.199219 372.011719 154.878906 374.09375 L 199.523438 511.027344 " fill-opacity="1" fill-rule="nonzero"/><path fill="#caddff" d="M 257.734375 431.882812 C 259.667969 438.34375 256.714844 444.953125 251.136719 446.648438 C 245.558594 448.34375 239.46875 444.480469 237.539062 438.019531 C 235.605469 431.558594 238.558594 424.949219 244.136719 423.253906 C 249.714844 421.558594 255.800781 425.421875 257.734375 431.882812 " fill-opacity="1" fill-rule="nonzero"/><path fill="#caddff" d="M 331.621094 510.75 L 222.65625 510.75 C 222.09375 510.75 221.636719 510.292969 221.636719 509.730469 C 221.636719 509.167969 222.09375 508.707031 222.65625 508.707031 L 331.621094 508.707031 C 332.183594 508.707031 332.640625 509.167969 332.640625 509.730469 C 332.640625 510.292969 332.183594 510.75 331.621094 510.75 " fill-opacity="1" fill-rule="nonzero"/><path fill="#caddff" d="M 210.757812 510.75 L 198.085938 510.75 C 197.523438 510.75 197.066406 510.292969 197.066406 509.730469 C 197.066406 509.167969 197.523438 508.707031 198.085938 508.707031 L 210.757812 508.707031 C 211.320312 508.707031 211.777344 509.167969 211.777344 509.730469 C 211.777344 510.292969 211.320312 510.75 210.757812 510.75 " fill-opacity="1" fill-rule="nonzero"/><path fill="#000000" d="M 301.40625 569.003906 C 275.753906 569.003906 254.449219 567.640625 237.667969 564.902344 C 212.140625 560.742188 197.007812 553.40625 192.691406 543.101562 C 186.992188 529.484375 202.0625 516.125 202.707031 515.5625 C 203.128906 515.191406 203.773438 515.234375 204.144531 515.660156 C 204.515625 516.082031 204.472656 516.730469 204.046875 517.097656 C 203.902344 517.230469 189.4375 530.0625 194.578125 542.316406 C 199.667969 554.453125 223.679688 566.988281 301.089844 566.988281 C 324.230469 566.988281 352.136719 565.867188 385.75 563.28125 C 409.371094 561.464844 452.566406 557.253906 474.757812 553.101562 C 475.308594 552.996094 475.84375 553.363281 475.949219 553.917969 C 476.054688 554.472656 475.6875 555.003906 475.132812 555.109375 C 452.863281 559.277344 409.570312 563.496094 385.90625 565.316406 C 353.945312 567.777344 325.722656 569.003906 301.40625 569.003906 " fill-opacity="1" fill-rule="nonzero"/><path fill="#5479f7" d="M 646.226562 296.136719 C 646.226562 296.136719 683.050781 298.421875 697.945312 318.488281 C 707.824219 331.796875 706.90625 359.078125 701.667969 398.894531 C 698.207031 425.160156 691.847656 438.234375 685.710938 454.375 C 670.277344 494.992188 646.597656 506.109375 621.804688 508.378906 C 590.875 511.214844 481.628906 509.660156 455.785156 509.238281 C 452.8125 509.1875 450.121094 507.488281 448.773438 504.820312 L 447.105469 501.523438 C 445.347656 498.035156 444.867188 487.226562 445.632812 481.464844 C 446.109375 477.851562 448.183594 474.589844 451.371094 472.871094 C 452.097656 472.480469 452.820312 472.203125 453.484375 472.15625 L 505.222656 466.222656 C 505.222656 466.222656 555.34375 401.875 532.582031 370.871094 C 524.386719 359.707031 486.523438 383.488281 453.457031 378.730469 C 425.449219 374.695312 395.1875 325.707031 386.574219 310.792969 C 384.839844 307.789062 384.238281 304.253906 384.917969 300.847656 C 385.972656 295.566406 388.46875 288.046875 394.316406 284.832031 C 399.199219 282.148438 408.316406 277.582031 416.917969 286.605469 C 416.917969 286.605469 438.496094 319.210938 464.480469 320.003906 C 490.464844 320.796875 519.058594 285.464844 603.003906 291.53125 L 646.226562 296.136719 " fill-opacity="1" fill-rule="nonzero"/><path fill="#caddff" d="M 504.519531 466.257812 C 504 466.257812 503.550781 465.859375 503.503906 465.328125 C 503.457031 464.765625 503.871094 464.269531 504.433594 464.222656 C 554.875 459.816406 640.640625 440.730469 648.320312 362.417969 C 648.378906 361.855469 648.875 361.445312 649.4375 361.5 C 649.996094 361.554688 650.410156 362.054688 650.351562 362.613281 C 646.660156 400.199219 624.871094 428.441406 585.570312 446.550781 C 563.125 456.894531 535.882812 463.523438 504.609375 466.257812 C 504.582031 466.257812 504.546875 466.257812 504.519531 466.257812 " fill-opacity="1" fill-rule="nonzero"/><path fill="#000000" d="M 401.753906 314.109375 C 394.082031 314.109375 389.128906 305.933594 388.917969 305.582031 C 388.628906 305.097656 388.785156 304.472656 389.273438 304.183594 C 389.753906 303.894531 390.382812 304.054688 390.671875 304.535156 C 390.714844 304.613281 395.25 312.066406 401.757812 312.066406 C 401.800781 312.066406 401.84375 312.066406 401.890625 312.066406 C 406.945312 311.988281 411.972656 307.511719 416.835938 298.765625 C 417.109375 298.273438 417.730469 298.09375 418.222656 298.367188 C 418.714844 298.640625 418.890625 299.265625 418.613281 299.757812 C 413.371094 309.195312 407.753906 314.023438 401.914062 314.109375 C 401.859375 314.109375 401.804688 314.109375 401.753906 314.109375 " fill-opacity="1" fill-rule="nonzero"/><path fill="#000000" d="M 472.058594 495.3125 C 471.945312 495.3125 471.828125 495.292969 471.710938 495.25 C 471.183594 495.0625 470.910156 494.476562 471.101562 493.945312 C 472.242188 490.773438 472.140625 487.9375 470.792969 485.511719 C 467.761719 480.054688 459.421875 478.226562 459.339844 478.210938 C 458.789062 478.09375 458.433594 477.550781 458.550781 476.996094 C 458.667969 476.445312 459.203125 476.097656 459.757812 476.210938 C 460.136719 476.289062 469.082031 478.242188 472.574219 484.511719 C 474.222656 487.480469 474.375 490.882812 473.019531 494.640625 C 472.867188 495.054688 472.476562 495.3125 472.058594 495.3125 " fill-opacity="1" fill-rule="nonzero"/><path fill="#ffffff" d="M 457.976562 487.234375 C 456.636719 485.484375 454.710938 484.265625 452.550781 483.910156 C 451 483.65625 449.441406 483.234375 447.941406 482.757812 L 427.203125 476.214844 C 423.347656 475.136719 419.386719 475.585938 415.941406 477.484375 C 405.53125 483.21875 384.179688 496.140625 387.5625 503.886719 C 391.210938 512.246094 410.164062 504.417969 416.839844 501.34375 C 418.367188 500.640625 420.074219 500.570312 421.710938 501.148438 C 425.792969 502.589844 433.8125 505.292969 438.4375 505.949219 C 442.257812 506.496094 445.699219 504.664062 448.492188 502.449219 C 449.765625 501.4375 451.273438 500.808594 452.976562 500.480469 C 455.582031 499.972656 457.863281 498.410156 459.113281 496.050781 L 459.144531 495.996094 C 460.527344 493.402344 460.265625 490.226562 458.480469 487.894531 L 457.976562 487.234375 " fill-opacity="1" fill-rule="nonzero"/><path fill="#000000" d="M 423.089844 476.664062 C 420.78125 476.664062 418.496094 477.242188 416.429688 478.378906 C 396.800781 489.199219 386.355469 498.582031 388.496094 503.476562 C 389.015625 504.671875 389.925781 505.503906 391.265625 506.011719 C 397.863281 508.527344 412.183594 502.363281 416.414062 500.417969 C 418.179688 499.605469 420.179688 499.523438 422.054688 500.1875 C 426.300781 501.6875 434.089844 504.300781 438.578125 504.9375 C 441.503906 505.355469 444.539062 504.28125 447.855469 501.648438 C 449.207031 500.582031 450.863281 499.847656 452.78125 499.476562 C 455.160156 499.015625 457.140625 497.59375 458.214844 495.574219 C 458.214844 495.574219 458.246094 495.511719 458.246094 495.511719 C 459.4375 493.277344 459.210938 490.527344 457.671875 488.515625 L 457.167969 487.855469 C 455.949219 486.265625 454.253906 485.222656 452.382812 484.917969 C 450.988281 484.691406 449.476562 484.3125 447.640625 483.734375 L 426.898438 477.1875 C 425.644531 476.835938 424.363281 476.664062 423.089844 476.664062 Z M 395.058594 508.632812 C 393.386719 508.632812 391.847656 508.417969 390.542969 507.921875 C 388.683594 507.210938 387.367188 505.992188 386.628906 504.296875 C 383.191406 496.421875 400.402344 484.886719 415.449219 476.589844 C 419.117188 474.570312 423.386719 474.085938 427.480469 475.234375 L 448.25 481.785156 C 449.996094 482.335938 451.414062 482.691406 452.710938 482.902344 C 455.09375 483.292969 457.253906 484.609375 458.785156 486.613281 C 458.789062 486.613281 458.789062 486.613281 458.789062 486.613281 L 459.292969 487.273438 C 461.316406 489.917969 461.613281 493.53125 460.046875 496.476562 C 460.042969 496.480469 460.011719 496.539062 460.011719 496.539062 C 458.648438 499.097656 456.15625 500.902344 453.167969 501.480469 C 451.554688 501.792969 450.230469 502.371094 449.125 503.25 C 445.34375 506.246094 441.800781 507.460938 438.292969 506.960938 C 433.628906 506.300781 425.691406 503.636719 421.371094 502.113281 C 419.984375 501.617188 418.5625 501.671875 417.265625 502.269531 C 412.648438 504.398438 402.507812 508.632812 395.058594 508.632812 " fill-opacity="1" fill-rule="nonzero"/><path fill="#ffffff" d="M 338.507812 236.785156 C 339.144531 234.917969 341.0625 233.824219 342.980469 234.230469 C 348.339844 235.371094 375.933594 241.246094 381.078125 242.375 C 386.226562 243.507812 386.429688 249.046875 389.359375 254.117188 C 391.910156 258.523438 400.6875 274.6875 410.246094 285.945312 C 413.125 289.335938 413.527344 294.207031 411.285156 298.054688 C 410 300.269531 408.363281 302.441406 406.425781 303.71875 C 401.277344 307.121094 397.445312 311.199219 386.679688 285.441406 C 386.679688 285.441406 381.773438 283.097656 377.046875 277.683594 C 377.046875 277.683594 360.269531 297.484375 355.976562 257.277344 C 355.597656 253.699219 357.246094 250.21875 360.359375 248.460938 C 360.605469 248.324219 360.867188 248.179688 361.140625 248.042969 L 341.039062 241.8125 C 338.9375 241.160156 337.789062 238.878906 338.507812 236.785156 " fill-opacity="1" fill-rule="nonzero"/><path fill="#000000" d="M 377.046875 276.664062 C 377.339844 276.664062 377.621094 276.792969 377.816406 277.011719 C 382.328125 282.1875 387.074219 284.496094 387.121094 284.519531 C 387.34375 284.628906 387.527344 284.816406 387.621094 285.046875 C 392.929688 297.742188 396.90625 304.105469 400.148438 305.078125 C 401.75 305.558594 403.105469 304.71875 405.191406 303.316406 C 405.410156 303.167969 405.636719 303.019531 405.863281 302.867188 C 407.417969 301.839844 408.945312 300.050781 410.402344 297.542969 C 412.433594 294.050781 412.058594 289.65625 409.46875 286.605469 C 400.890625 276.507812 392.929688 262.46875 389.53125 256.472656 C 389.109375 255.730469 388.757812 255.105469 388.480469 254.628906 C 387.558594 253.03125 386.914062 251.441406 386.292969 249.902344 C 384.972656 246.628906 383.925781 244.042969 380.859375 243.371094 C 375.277344 242.148438 343.09375 235.296875 342.769531 235.230469 C 341.359375 234.925781 339.941406 235.738281 339.46875 237.113281 C 339.210938 237.871094 339.269531 238.675781 339.628906 239.386719 C 339.984375 240.089844 340.59375 240.605469 341.339844 240.835938 L 361.441406 247.066406 C 361.839844 247.1875 362.121094 247.539062 362.160156 247.953125 C 362.191406 248.367188 361.972656 248.761719 361.605469 248.949219 C 361.347656 249.085938 361.097656 249.21875 360.859375 249.351562 C 358.167969 250.875 356.648438 253.941406 356.992188 257.167969 C 358.921875 275.257812 363.300781 280.277344 366.636719 281.304688 C 371.34375 282.75 376.222656 277.082031 376.269531 277.023438 C 376.460938 276.796875 376.742188 276.667969 377.039062 276.664062 C 377.042969 276.664062 377.046875 276.664062 377.046875 276.664062 Z M 401.050781 307.257812 C 400.570312 307.257812 400.078125 307.1875 399.5625 307.035156 C 395.617188 305.851562 391.523438 299.609375 385.882812 286.179688 C 384.714844 285.566406 380.910156 283.375 377.03125 279.191406 C 375.253906 280.953125 370.773438 284.710938 366.039062 283.253906 C 360.335938 281.496094 356.609375 272.792969 354.964844 257.382812 C 354.585938 253.832031 356.023438 250.425781 358.691406 248.351562 L 340.738281 242.785156 C 339.457031 242.390625 338.417969 241.511719 337.8125 240.3125 C 337.199219 239.105469 337.101562 237.738281 337.539062 236.453125 C 338.347656 234.101562 340.777344 232.714844 343.195312 233.230469 C 343.519531 233.300781 375.707031 240.148438 381.296875 241.378906 C 385.414062 242.28125 386.757812 245.609375 388.183594 249.136719 C 388.78125 250.609375 389.394531 252.132812 390.242188 253.605469 C 390.527344 254.089844 390.878906 254.714844 391.304688 255.464844 C 394.675781 261.410156 402.574219 275.332031 411.019531 285.285156 C 414.167969 288.992188 414.628906 294.332031 412.167969 298.570312 C 410.550781 301.351562 408.808594 303.367188 406.984375 304.570312 C 406.765625 304.71875 406.546875 304.867188 406.332031 305.011719 C 404.6875 306.117188 403 307.257812 401.050781 307.257812 " fill-opacity="1" fill-rule="nonzero"/><path fill="#000000" d="M 380.890625 269.628906 C 380.722656 269.628906 380.546875 269.585938 380.390625 269.496094 C 379.070312 268.75 376.609375 267.066406 375.613281 266.378906 C 370.136719 262.582031 367.082031 258.8125 365.75 256.902344 C 364.789062 255.527344 364.304688 253.984375 364.347656 252.4375 C 364.425781 249.453125 366.449219 248.769531 367.3125 248.480469 C 370.632812 247.359375 375.894531 250.410156 376.480469 250.761719 C 376.964844 251.050781 377.121094 251.675781 376.835938 252.160156 C 376.546875 252.644531 375.917969 252.804688 375.433594 252.515625 C 374.058594 251.695312 370.03125 249.714844 367.964844 250.414062 C 367.140625 250.691406 366.429688 250.929688 366.386719 252.496094 C 366.355469 253.597656 366.714844 254.71875 367.421875 255.730469 C 368.675781 257.53125 371.558594 261.082031 376.757812 264.6875 C 377.746094 265.371094 380.144531 267.015625 381.390625 267.71875 C 381.882812 267.996094 382.054688 268.617188 381.777344 269.109375 C 381.589844 269.441406 381.246094 269.628906 380.890625 269.628906 " fill-opacity="1" fill-rule="nonzero"/><path fill="#000000" d="M 377.273438 278.9375 C 377.007812 278.9375 376.742188 278.832031 376.542969 278.625 C 372.015625 273.972656 372.285156 268.996094 372.300781 268.785156 C 372.332031 268.222656 372.816406 267.796875 373.382812 267.832031 C 373.945312 267.867188 374.367188 268.351562 374.335938 268.914062 C 374.320312 269.089844 374.136719 273.230469 378.003906 277.199219 C 378.394531 277.605469 378.386719 278.253906 377.984375 278.644531 C 377.789062 278.839844 377.527344 278.9375 377.273438 278.9375 " fill-opacity="1" fill-rule="nonzero"/><path fill="#ffffff" d="M 640.683594 294.253906 L 646.113281 250.804688 L 608.324219 262.492188 L 604.503906 287.941406 C 603.585938 294.777344 608.660156 299.570312 608.660156 299.570312 C 614.851562 306.074219 624.957031 306.859375 633.066406 303.0625 L 634.945312 302.1875 C 638.082031 300.710938 640.253906 297.71875 640.683594 294.253906 " fill-opacity="1" fill-rule="nonzero"/><path fill="#000000" d="M 640.683594 294.257812 L 640.691406 294.257812 Z M 609.234375 263.277344 L 605.511719 288.089844 C 604.675781 294.324219 609.308594 298.785156 609.359375 298.832031 C 614.882812 304.632812 624.4375 305.976562 632.628906 302.140625 L 634.507812 301.261719 C 637.351562 299.929688 639.277344 297.261719 639.671875 294.125 L 644.902344 252.25 Z M 622.882812 306.402344 C 617.15625 306.402344 611.753906 304.300781 607.921875 300.277344 C 607.738281 300.105469 602.515625 295.082031 603.492188 287.808594 L 607.3125 262.339844 C 607.371094 261.953125 607.644531 261.632812 608.019531 261.519531 L 645.808594 249.832031 C 646.136719 249.730469 646.503906 249.800781 646.765625 250.023438 C 647.035156 250.25 647.164062 250.59375 647.121094 250.933594 L 641.695312 294.382812 C 641.21875 298.21875 638.851562 301.476562 635.371094 303.109375 L 633.496094 303.988281 C 630.027344 305.609375 626.394531 306.402344 622.882812 306.402344 " fill-opacity="1" fill-rule="nonzero"/><path fill="#000000" d="M 606.445312 187.261719 C 615.804688 188.347656 602.503906 195.867188 638.515625 191.835938 C 652.855469 190.230469 643.199219 204.992188 646.917969 204.582031 C 660.660156 203.082031 660.1875 203.117188 666.289062 205.917969 C 670.328125 207.773438 671.734375 216.070312 669.929688 221.769531 C 667.554688 229.296875 660.863281 230.175781 652.433594 245.480469 C 646.511719 256.230469 646.285156 263.347656 641.421875 264.21875 C 636.503906 265.09375 634.164062 258.28125 628.71875 258.832031 C 621.679688 259.542969 621 271.429688 613.621094 275.121094 C 608.976562 277.449219 599.140625 277.183594 585.058594 266.996094 C 582.773438 265.347656 581.984375 262.285156 583.183594 259.726562 C 584.722656 256.449219 586.6875 252.3125 588.890625 248.523438 C 599.40625 230.460938 607.023438 227.289062 605.402344 221.847656 C 602.910156 213.511719 587.675781 215.378906 586.367188 208.660156 C 585.003906 201.679688 593.625 185.773438 606.445312 187.261719 " fill-opacity="1" fill-rule="nonzero"/><path fill="#ffffff" d="M 633.050781 226.195312 L 629.546875 230.695312 C 627.894531 232.816406 626.394531 235.042969 625.046875 237.371094 C 622.515625 241.738281 618.117188 249.214844 615.339844 253.207031 C 611.253906 259.085938 592.253906 247.710938 592.253906 247.710938 L 591.707031 243.546875 L 589.503906 242.171875 C 589.082031 241.902344 588.707031 241.542969 588.472656 241.101562 C 587.882812 239.988281 588.101562 238.6875 588.910156 237.84375 C 593.351562 233.226562 602.753906 222.761719 607.21875 212.675781 C 607.21875 212.675781 623 211.40625 633.050781 226.195312 " fill-opacity="1" fill-rule="nonzero"/><path fill="#000000" d="M 632.035156 226.160156 C 631.644531 225.789062 631.285156 225.4375 630.964844 225.074219 C 630.613281 224.699219 630.417969 224.347656 629.941406 223.867188 C 629.105469 222.972656 628.308594 222.035156 627.359375 221.257812 C 625.585938 219.574219 623.53125 218.203125 621.378906 217.050781 C 619.222656 215.894531 616.90625 215.042969 614.519531 214.476562 C 613.925781 214.324219 613.320312 214.222656 612.722656 214.097656 C 612.121094 213.996094 611.511719 213.910156 610.90625 213.835938 C 609.703125 213.703125 608.4375 213.640625 607.304688 213.6875 L 608.148438 213.085938 C 605.367188 219.121094 601.488281 224.445312 597.359375 229.484375 C 595.269531 231.988281 593.117188 234.429688 590.890625 236.804688 L 590.050781 237.695312 L 589.628906 238.136719 L 589.421875 238.355469 C 589.371094 238.410156 589.320312 238.464844 589.277344 238.523438 C 588.910156 239 588.753906 239.644531 588.914062 240.230469 C 589.089844 240.847656 589.46875 241.199219 590.117188 241.515625 C 590.835938 241.886719 591.558594 242.261719 592.246094 242.6875 C 592.507812 242.851562 592.671875 243.117188 592.710938 243.398438 L 592.710938 243.417969 L 593.273438 247.578125 L 592.78125 246.824219 C 596.851562 249.15625 601.160156 251.273438 605.574219 252.722656 C 606.683594 253.070312 607.804688 253.371094 608.914062 253.566406 C 610.023438 253.765625 611.144531 253.859375 612.15625 253.738281 C 613.191406 253.628906 613.972656 253.222656 614.460938 252.558594 C 615.125 251.59375 615.777344 250.601562 616.417969 249.601562 C 618.96875 245.589844 621.398438 241.464844 623.808594 237.34375 C 625.011719 235.25 626.355469 233.1875 627.808594 231.246094 C 628.164062 230.765625 628.570312 230.242188 628.898438 229.824219 C 629.230469 229.410156 629.566406 229 629.90625 228.589844 C 630.585938 227.78125 631.300781 226.976562 632.035156 226.160156 Z M 634.074219 226.230469 C 633.335938 227.300781 632.578125 228.386719 631.789062 229.460938 L 629.496094 232.496094 C 628.105469 234.394531 626.851562 236.359375 625.683594 238.429688 C 623.28125 242.582031 620.84375 246.710938 618.257812 250.777344 C 617.613281 251.796875 616.953125 252.808594 616.257812 253.808594 C 615.796875 254.417969 615.191406 255.007812 614.496094 255.3125 C 614.164062 255.507812 613.808594 255.585938 613.464844 255.722656 C 613.121094 255.785156 612.769531 255.882812 612.425781 255.910156 C 611.0625 256.066406 609.769531 255.925781 608.53125 255.703125 C 607.289062 255.476562 606.09375 255.148438 604.917969 254.769531 C 602.585938 254 600.339844 253.050781 598.152344 252.007812 C 595.957031 250.953125 593.832031 249.839844 591.722656 248.597656 C 591.441406 248.429688 591.269531 248.144531 591.230469 247.84375 L 590.703125 243.679688 L 591.171875 244.402344 C 590.484375 243.96875 589.835938 243.484375 589.183594 243 C 588.839844 242.761719 588.398438 242.398438 588.109375 241.96875 C 587.804688 241.527344 587.605469 241.050781 587.507812 240.554688 C 587.285156 239.554688 587.515625 238.472656 588.132812 237.65625 C 588.207031 237.550781 588.292969 237.460938 588.378906 237.363281 L 588.589844 237.140625 L 589.003906 236.699219 L 589.828125 235.8125 C 592.019531 233.453125 594.117188 231 596.105469 228.472656 C 598.101562 225.945312 599.984375 223.335938 601.710938 220.636719 C 603.4375 217.941406 605.027344 215.160156 606.296875 212.261719 L 606.300781 212.246094 C 606.457031 211.898438 606.789062 211.683594 607.144531 211.660156 C 608.539062 211.582031 609.8125 211.664062 611.128906 211.796875 C 611.777344 211.875 612.429688 211.964844 613.078125 212.070312 C 613.714844 212.203125 614.363281 212.304688 615 212.464844 C 617.546875 213.0625 620.027344 213.96875 622.34375 215.199219 C 624.65625 216.429688 626.867188 217.894531 628.773438 219.695312 C 629.785156 220.539062 630.628906 221.546875 631.515625 222.511719 C 631.941406 222.933594 632.429688 223.648438 632.859375 224.277344 C 633.300781 224.925781 633.703125 225.585938 634.074219 226.230469 " fill-opacity="1" fill-rule="nonzero"/><path fill="#ffffff" d="M 626.324219 242.863281 C 626.324219 242.863281 634.746094 232.035156 638.824219 236.9375 C 642.898438 241.839844 633.332031 253.527344 626.324219 242.863281 " fill-opacity="1" fill-rule="nonzero"/></svg>