<svg xmlns="http://www.w3.org/2000/svg" xmlns:xlink="http://www.w3.org/1999/xlink" width="374" zoomAndPan="magnify" viewBox="0 0 841.92 595.499987" height="264" preserveAspectRatio="xMidYMid meet" version="1.0"><defs><clipPath id="0dee9245e0"><path d="M 85.320312 0.242188 L 756.558594 0.242188 L 756.558594 594.457031 L 85.320312 594.457031 Z M 85.320312 0.242188 " clip-rule="nonzero"/></clipPath><clipPath id="74073be6f1"><path d="M 497 0.242188 L 756.558594 0.242188 L 756.558594 582.875 L 497 582.875 Z M 497 0.242188 " clip-rule="nonzero"/></clipPath><clipPath id="0f46707249"><path d="M 494 3 L 756.558594 3 L 756.558594 591 L 494 591 Z M 494 3 " clip-rule="nonzero"/></clipPath><clipPath id="d92fa67072"><path d="M 645.109375 538 L 748 538 L 748 594.457031 L 645.109375 594.457031 Z M 645.109375 538 " clip-rule="nonzero"/></clipPath><clipPath id="dc50922695"><path d="M 85.320312 99 L 500 99 L 500 175 L 85.320312 175 Z M 85.320312 99 " clip-rule="nonzero"/></clipPath><clipPath id="ef06ab21d0"><path d="M 85.320312 83 L 478 83 L 478 556 L 85.320312 556 Z M 85.320312 83 " clip-rule="nonzero"/></clipPath></defs><g clip-path="url(#0dee9245e0)"><path fill="#ed9870" d="M 503.273438 55.453125 L 503.523438 53.929688 L 503.273438 56.085938 Z M 519.425781 8.890625 L 519.425781 9.148438 L 519.046875 8.132812 Z M 520.957031 12.070312 L 519.941406 10.421875 L 519.941406 10.292969 Z M 564.847656 36.4375 L 572.105469 37.265625 L 564.847656 37.265625 C 558.488281 34.71875 553.308594 35.347656 549.324219 33.984375 C 553.90625 35.257812 559.085938 35.921875 564.847656 36.4375 Z M 569.042969 55.390625 C 559.203125 54.199219 552.464844 52.6875 548.816406 50.652344 C 544.492188 48.277344 539.664062 47.429688 534.316406 47.015625 L 533.679688 47.441406 L 534.1875 47.441406 C 539.445312 47.441406 544.285156 48.605469 548.6875 50.808594 C 552.671875 53.097656 559.421875 55.074219 568.925781 55.074219 L 571.589844 55.074219 Z M 577.570312 278.839844 L 576.804688 278.460938 L 576.804688 278.203125 Z M 610.015625 263.703125 L 609.886719 264.210938 L 604.417969 265.222656 C 603.226562 265.738281 602.003906 266.285156 600.730469 267.132812 C 595.382812 270.011719 591.398438 273.878906 588.761719 281.511719 L 588.515625 281.511719 C 591.226562 276.421875 595.292969 270.082031 600.730469 266.941406 L 604.160156 265.003906 L 609.378906 263.703125 Z M 648.558594 421.824219 L 648.558594 421.953125 L 648.441406 421.574219 Z M 510.273438 293.339844 L 526.8125 294.480469 L 517.269531 294.234375 Z M 530.238281 46.675781 C 530.410156 46.597656 530.539062 46.546875 530.628906 46.546875 L 530.945312 46.546875 C 530.71875 46.558594 530.480469 46.597656 530.238281 46.675781 Z M 537.496094 120.835938 L 537.625 119.316406 L 537.875 117.785156 Z M 548.4375 115.628906 L 548.4375 115.816406 L 549.710938 121.222656 L 549.582031 121.222656 L 549.710938 122.425781 L 549.582031 121.503906 C 549.414062 119.476562 549.113281 117.585938 548.6875 115.898438 L 548.945312 115.628906 L 548.4375 113.203125 L 548.4375 111.296875 Z M 528.332031 47.183594 C 528.589844 47.015625 528.96875 46.894531 529.484375 46.804688 C 529.058594 46.894531 528.628906 47.054688 528.210938 47.3125 Z M 658.617188 348.167969 L 659.253906 347.910156 L 661.03125 347.664062 Z M 511.039062 306.191406 L 510.777344 308.605469 C 510.777344 309.113281 510.859375 309.449219 511.039062 309.628906 C 510.859375 309.539062 510.648438 309.160156 510.402344 308.476562 L 510.90625 306.191406 L 510.90625 305.554688 L 511.039062 305.554688 Z M 576.042969 281.003906 L 574.898438 279.851562 L 575.027344 279.851562 Z M 590.671875 303.386719 L 592.074219 300.84375 L 589.65625 305.554688 Z M 591.4375 319.675781 L 590.929688 319.675781 L 596.398438 318.652344 Z M 593.980469 322.21875 L 594.109375 322.21875 L 594.238281 322.347656 L 594.238281 322.46875 L 593.980469 322.347656 Z M 531.898438 301.359375 L 532.664062 301.230469 L 531.003906 301.609375 Z M 563.707031 296.140625 L 563.707031 296.011719 L 563.835938 296.140625 Z M 570.953125 307.332031 L 570.316406 307.332031 L 570.316406 307.203125 L 570.195312 307.085938 Z M 585.074219 314.585938 L 584.828125 315.09375 L 584.828125 314.964844 L 584.699219 314.964844 L 583.675781 315.09375 Z M 571.210938 307.203125 L 571.210938 307.332031 L 571.082031 307.332031 Z M 581.128906 306.191406 L 580.753906 305.929688 L 581.257812 306.191406 Z M 584.191406 304.28125 L 584.441406 304.28125 L 584.191406 304.539062 Z M 563.578125 296.269531 L 563.578125 296.140625 L 563.707031 296.269531 Z M 591.945312 300.207031 L 591.824219 300.207031 C 591.226562 298 590.839844 296.777344 590.671875 296.519531 L 590.929688 296.648438 Z M 527.953125 294.871094 L 527.953125 297.664062 L 527.824219 297.414062 Z M 501.742188 355.929688 C 502.003906 355.425781 502.25 355.125 502.507812 355.039062 C 503.015625 354.191406 503.652344 353.515625 504.417969 353 C 503.910156 353.425781 503.3125 354.101562 502.636719 355.039062 Z M 499.070312 360.890625 C 499.160156 360.292969 499.328125 359.878906 499.585938 359.617188 L 499.835938 359.359375 C 499.40625 359.878906 499.160156 360.382812 499.070312 360.890625 Z M 642.832031 374.625 L 639.910156 371.195312 L 641.3125 372.71875 Z M 699.070312 518.257812 L 699.070312 518 L 700.472656 519.011719 C 699.785156 518.59375 699.328125 518.335938 699.070312 518.257812 Z M 681.390625 534.277344 L 682.660156 534.027344 L 683.425781 533.769531 L 682.789062 534.160156 L 682.789062 534.027344 Z M 680.753906 259.25 L 680.496094 258.863281 L 680.882812 259.378906 Z M 454.742188 131.144531 L 455.089844 132.414062 L 454.292969 131.144531 L 454.292969 126.691406 Z M 756.453125 576.644531 C 756.453125 574.101562 755.984375 572.867188 755.050781 571.167969 L 752.128906 566.46875 L 751.871094 566.46875 L 749.453125 563.289062 L 749.453125 563.160156 L 743.660156 558.449219 L 721.753906 542.804688 L 720.777344 542.296875 L 716.347656 538.730469 L 713.832031 534.914062 L 713.832031 534.535156 L 712.617188 531.863281 L 711.285156 529.953125 L 711.285156 360.125 L 678.207031 354.53125 C 680.753906 353.855469 682.890625 353.46875 684.5 353.386719 C 688.484375 352.027344 691.953125 350.921875 694.835938 350.078125 C 699.25 348.976562 702.828125 348.167969 705.542969 347.664062 C 711.316406 345.546875 716.195312 342.914062 720.183594 339.773438 C 724.507812 335.449219 726.464844 329.851562 726.035156 322.984375 L 725.90625 321.960938 C 724.894531 315.433594 721.632812 310.382812 716.117188 306.824219 L 703.78125 299.828125 L 698.871094 297.921875 L 698.5625 298.296875 L 698.5625 297.921875 C 698.5625 297.15625 700.023438 296.570312 700.273438 296.140625 L 740.449219 216.375 L 740.371094 215.421875 C 740.199219 215.082031 739.953125 215.363281 739.523438 215.363281 L 738.640625 215.363281 L 734.566406 216.058594 L 735.460938 214.367188 L 735.835938 213.214844 C 735.925781 212.617188 735.875 212.808594 735.707031 212.628906 C 735.460938 212.289062 735.03125 212.816406 734.4375 212.816406 L 733.679688 212.816406 L 629.226562 232.59375 C 627.101562 232.933594 625.539062 233.878906 624.515625 235.992188 L 612.558594 259.777344 L 609.886719 257.917969 C 607.847656 256.644531 606.027344 255.832031 604.417969 255.144531 L 598.5625 253.527344 L 598.058594 253.527344 L 574.648438 230.4375 L 576.109375 191.539062 L 584.0625 165.359375 L 584.0625 164.21875 L 585.652344 158.753906 L 588.027344 148.703125 L 588.914062 138.398438 C 588.824219 137.035156 588.457031 135.257812 587.949219 133.050781 C 587.78125 131.101562 587.441406 129.324219 587.023438 127.714844 L 585.472656 123.261719 L 583.046875 119.058594 C 582.292969 117.695312 581.308594 116.34375 580.117188 114.992188 C 578.257812 113.125 577.105469 112.019531 576.675781 111.683594 C 576.339844 111.335938 575.324219 110.410156 573.625 108.882812 L 566.25 104.179688 L 562.8125 102.648438 C 562.730469 102.480469 562.472656 102.3125 562.046875 102.144531 L 554.414062 98.703125 L 562.8125 87.125 C 564.253906 85.097656 565.695312 82.800781 567.136719 80.257812 L 575.285156 61.433594 L 576.300781 58.125 C 576.636719 56.59375 576.804688 55.074219 576.804688 55.074219 L 576.675781 55.074219 L 574.769531 55.519531 L 576.675781 55.074219 L 576.804688 55.074219 L 576.429688 52.777344 L 576.429688 46.675781 L 584.507812 42.035156 C 587.390625 39.828125 589.28125 37.265625 589.527344 34.71875 L 589.28125 34.71875 L 588.128906 35.039062 L 584.3125 35.515625 L 589.28125 34.71875 L 589.398438 34.71875 L 589.152344 34.460938 L 589.152344 34.214844 C 581.519531 24.285156 573.984375 16.363281 564.652344 10.421875 C 556.339844 5.164062 547.792969 1.894531 538.796875 0.621094 L 535.914062 0.242188 L 525.070312 0.5 C 522.863281 1.097656 520.449219 1.554688 520.449219 1.894531 L 520.449219 2.023438 L 517.90625 3.421875 L 517.90625 3.800781 L 517.269531 4.1875 L 517.140625 4.1875 L 515.867188 5.273438 C 515.359375 5.273438 514.894531 4.1875 514.464844 6.734375 L 513.582031 6.734375 L 510.273438 9.277344 L 510.144531 9.277344 C 508.53125 9.277344 506.960938 11.820312 505.429688 14.367188 L 505.183594 14.367188 L 505.183594 14.109375 L 502.957031 17.289062 C 502.191406 18.648438 501.585938 19.960938 501.078125 21.234375 C 498.015625 27.335938 496.515625 33.695312 496.515625 40.316406 C 496.425781 47.609375 498.214844 54.03125 501.863281 59.207031 L 499.835938 72.882812 L 498.316406 72.882812 C 495.679688 72.882812 493.644531 73.96875 492.203125 76.511719 C 491.527344 77.695312 490.96875 78.828125 490.550781 80.097656 C 489.957031 81.539062 489.320312 83.28125 488.644531 85.394531 L 485.074219 87.921875 L 483.296875 88.796875 C 482.191406 89.390625 480.710938 90.40625 478.84375 91.847656 L 460.019531 106.089844 C 454.929688 107.867188 450.476562 110.410156 446.660156 113.722656 L 446.273438 113.839844 L 445.953125 113.96875 C 441.460938 118.042969 439.027344 122.535156 436.480469 127.457031 L 436.480469 128.855469 L 436.480469 128.222656 L 436.859375 127.960938 L 437.367188 127.457031 L 437.304688 127.960938 C 436.679688 129.492188 436.671875 131.082031 436.195312 132.734375 C 434.324219 127.15625 433.9375 121.246094 433.9375 114.992188 L 433.9375 114.863281 C 433.9375 114.695312 433.9375 114.566406 433.9375 114.476562 L 434.1875 100.105469 L 432.914062 99.976562 L 173.246094 81.917969 L 150.921875 83.308594 L 151.5 97.691406 C 151.5 97.859375 151.5 98.027344 151.5 98.195312 C 151.5 112.867188 146.488281 125.039062 136.230469 134.710938 C 130.289062 140.136719 123.738281 143.914062 116.441406 146.03125 L 107.445312 145.523438 L 85.320312 146.914062 L 85.589844 160.402344 C 87.199219 240.894531 97.289062 315.09375 115.867188 383.023438 C 134.699219 453.925781 188.136719 510.664062 276.167969 553.242188 L 281.269531 555.902344 L 303.402344 554.382812 L 308.042969 552.476562 C 357.832031 535.402344 395.769531 512.242188 423.757812 483.015625 L 423.757812 558.449219 L 566.945312 585.421875 L 661.3125 568.625 L 666.132812 569.648438 C 667.324219 569.222656 668.734375 569.011719 670.265625 569.011719 C 673.824219 569.011719 677.285156 570.117188 680.59375 572.320312 L 688.625 578.046875 L 690.664062 579.824219 C 692.273438 581.265625 693.632812 582.320312 694.738281 583.007812 L 698.175781 585.292969 C 706.238281 589.875 714.46875 592.886719 722.867188 594.324219 L 728.332031 594.457031 C 735.539062 594.457031 741.988281 592.457031 747.675781 588.472656 L 747.921875 588.222656 C 751.402344 586.691406 753.945312 584.359375 755.558594 581.226562 C 756.0625 580.035156 756.363281 579.507812 756.453125 579 L 756.582031 576.644531 L 756.453125 576.644531 " fill-opacity="1" fill-rule="evenodd"/></g><path fill="#b6c5fe" d="M 680.882812 259.378906 L 680.496094 258.863281 L 680.117188 258.484375 C 678.417969 256.199219 675.914062 254.925781 672.613281 254.667969 L 670.316406 254.667969 C 669.640625 254.667969 668.914062 254.796875 668.160156 255.046875 C 666.96875 255.226562 665.863281 255.472656 664.851562 255.8125 L 661.410156 257.71875 C 658.019531 260.015625 655.554688 262.9375 654.035156 266.496094 L 653.269531 268.921875 C 653.101562 269.933594 653.0625 270.777344 653.140625 271.464844 C 653.140625 272.90625 653.609375 274.425781 654.542969 276.035156 C 656.242188 278.839844 658.996094 280.371094 662.8125 280.617188 L 664.085938 280.746094 C 667.5625 280.667969 670.824219 279.644531 673.882812 277.695312 C 677.613281 275.398438 680.117188 272.476562 681.390625 268.921875 C 681.804688 267.726562 682.105469 266.457031 682.273438 265.105469 L 682.273438 263.949219 L 682.023438 262.171875 L 681.519531 260.394531 L 681 259.628906 Z M 491.953125 288.25 C 492.839844 281.085938 493.644531 273.851562 494.367188 266.566406 L 502.886719 270.191406 L 501.742188 272.984375 C 499.964844 278.164062 500.300781 284.394531 502.769531 291.6875 Z M 549.839844 130 L 549.839844 124.78125 L 549.710938 124.144531 L 549.710938 122.367188 L 549.582031 121.09375 L 549.710938 121.09375 L 549.710938 121.472656 L 549.839844 121.472656 C 550.007812 121.054688 550.257812 120.835938 550.597656 120.835938 L 550.726562 120.589844 C 551.320312 122.707031 551.996094 124.445312 552.761719 125.804688 L 553.527344 127.078125 L 554.292969 127.585938 L 554.542969 127.457031 L 551.621094 138.648438 L 550.855469 135.59375 L 550.855469 134.324219 L 550.347656 129.621094 L 549.960938 129.621094 Z M 698.941406 298.296875 C 698.34375 298.894531 697.421875 299.363281 696.148438 299.699219 L 696.148438 299.828125 C 663.410156 306.191406 630.707031 312.550781 598.058594 318.910156 C 597.460938 318.992188 596.914062 319.078125 596.398438 319.167969 L 590.929688 320.183594 L 590.550781 320.183594 C 590.035156 320.183594 589.699219 320.054688 589.527344 319.804688 C 589.359375 319.378906 589.570312 318.742188 590.164062 317.898438 L 591.308594 315.601562 L 591.1875 315.472656 L 629.355469 239.402344 C 630.539062 237.277344 632.109375 236.054688 634.058594 235.714844 L 734.566406 215.996094 L 738.640625 215.234375 L 739.523438 215.234375 C 739.953125 214.972656 740.25 215.015625 740.417969 215.363281 L 740.546875 216.375 L 700.472656 296.140625 C 700.214844 296.570312 699.707031 297.15625 698.941406 297.921875 Z M 585.074219 280.488281 L 579.988281 279.851562 L 579.480469 279.734375 L 579.351562 279.734375 C 579.183594 279.644531 579.050781 279.605469 578.972656 279.605469 L 577.570312 278.839844 L 576.804688 278.203125 L 575.285156 273.878906 L 570.195312 253.136719 L 570.066406 251.746094 L 570.195312 251.746094 L 569.300781 243.21875 C 569.132812 239.484375 569.09375 236.691406 569.171875 234.820312 C 569.09375 220.152344 571.210938 205.691406 575.535156 191.441406 L 574.648438 230.238281 L 598.058594 253.136719 L 596.398438 253.019531 L 596.019531 253.019531 C 594.152344 253.175781 592.800781 253.394531 591.945312 253.65625 L 588.515625 255.175781 C 585.710938 256.785156 583.632812 259.121094 582.28125 262.171875 L 581.257812 265.859375 L 581.011719 269.296875 C 580.921875 270.144531 580.921875 270.949219 581.011719 271.714844 C 581.519531 274.941406 582.871094 277.863281 585.074219 280.488281 Z M 545.507812 140.683594 L 532.40625 131.648438 L 537.625 119.316406 L 537.496094 120.835938 C 537.328125 121.859375 537.367188 122.875 537.625 123.898438 C 537.875 125.675781 538.769531 127.328125 540.300781 128.855469 L 542.078125 131.273438 L 542.328125 131.273438 C 543.09375 132.375 543.648438 133.347656 543.988281 134.195312 L 545 137.761719 C 545 138.777344 545.167969 139.761719 545.507812 140.683594 Z M 562.8125 102.648438 L 566.25 104.179688 L 573.625 108.882812 C 575.324219 110.410156 576.339844 111.335938 576.675781 111.683594 C 577.105469 112.019531 578.246094 113.125 580.117188 114.992188 C 581.300781 116.34375 582.28125 117.695312 583.039062 119.058594 L 585.464844 123.261719 L 586.984375 127.714844 C 587.410156 129.324219 587.710938 131.101562 587.878906 133.050781 C 588.386719 135.257812 588.683594 137.035156 588.761719 138.398438 L 587.75 148.703125 L 585.074219 158.753906 L 582.917969 164.21875 L 583.167969 153.535156 C 583.167969 140.304688 581.46875 129.492188 578.078125 121.09375 C 574.6875 112.867188 569.601562 106.722656 562.8125 102.648438 Z M 435.714844 132.734375 C 436.195312 131.082031 436.738281 129.492188 437.367188 127.960938 L 437.496094 127.457031 C 442.675781 119.992188 448.4375 116.265625 454.800781 116.265625 L 458.109375 116.382812 C 458.617188 116.472656 459.460938 116.773438 460.65625 117.277344 C 459.550781 117.449219 458.695312 117.835938 458.109375 118.421875 L 455.941406 121.09375 L 455.058594 125.417969 L 454.929688 126.691406 L 454.929688 131.144531 L 455.566406 132.414062 L 455.566406 132.921875 L 456.578125 140.683594 C 456.835938 144.332031 456.917969 147.589844 456.835938 150.484375 C 456.835938 153.027344 456.75 155.023438 456.578125 156.457031 C 456.332031 157.730469 456.203125 159.089844 456.203125 160.53125 L 456.203125 160.660156 C 453.4375 158.535156 450.8125 156.117188 448.308594 153.40625 C 442.425781 147.132812 438.222656 140.238281 435.714844 132.734375 " fill-opacity="1" fill-rule="evenodd"/><path fill="#f3648f" d="M 567.394531 398.417969 L 567.394531 585.421875 L 424.644531 558.449219 L 424.644531 483.015625 C 445.894531 460.523438 460.613281 434.445312 468.792969 404.777344 C 472.035156 393.378906 475.027344 381.742188 477.761719 369.855469 L 479.480469 370.171875 C 480.414062 371.445312 481.644531 372.847656 483.167969 374.378906 L 486.734375 376.921875 C 487.582031 377.507812 488.941406 378.234375 490.800781 379.078125 L 490.929688 379.078125 C 489.914062 380.53125 489.410156 381.960938 489.410156 383.410156 C 489.320312 383.75 489.320312 384.214844 489.410156 384.804688 C 490.085938 386.414062 491.734375 387.269531 494.367188 387.347656 L 494.496094 387.347656 C 495.9375 389.214844 497.925781 390.148438 500.472656 390.148438 L 503.015625 389.890625 C 503.949219 389.8125 505.351562 389.472656 507.21875 388.878906 L 512.816406 387.347656 C 513.660156 386.929688 515.609375 386.203125 518.671875 385.191406 L 526.8125 383.152344 L 527.578125 383.152344 L 530.238281 382.894531 L 530.238281 383.023438 L 530.757812 383.023438 L 530.757812 382.777344 C 532.875 382.179688 534.523438 381.882812 535.71875 381.882812 C 537.40625 381.453125 538.9375 381.246094 540.300781 381.246094 L 541.054688 381.503906 C 541.652344 381.839844 542.375 382.011719 543.222656 382.011719 L 544.871094 381.75 L 545.128906 381.75 L 545.257812 381.882812 L 546.144531 383.023438 L 567.265625 398.160156 L 567.394531 398.417969 " fill-opacity="1" fill-rule="evenodd"/><g clip-path="url(#74073be6f1)"><path fill="#b64932" d="M 530.757812 382.777344 L 530.757812 383.023438 L 530.238281 383.023438 L 530.238281 382.777344 L 530.5 382.011719 L 530.628906 382.011719 Z M 497.421875 382.894531 L 499.585938 378.699219 L 510.402344 352.363281 L 510.90625 352.492188 C 511.582031 353.179688 513.195312 354.492188 515.738281 356.4375 C 516.503906 357.203125 517.101562 357.710938 517.519531 357.96875 C 521.164062 361.449219 522.777344 364.578125 522.359375 367.378906 C 521.929688 371.367188 520.113281 374.507812 516.882812 376.792969 C 513.917969 379 509.546875 380.570312 503.78125 381.503906 L 500.601562 381.882812 Z M 528.332031 47.183594 L 528.210938 47.3125 L 527.953125 47.3125 C 527.019531 51.546875 524.175781 55.542969 519.425781 59.269531 L 516.375 54.566406 C 513.832031 50.234375 511.84375 45.742188 510.402344 41.082031 C 510.402344 40.734375 510.351562 40.574219 510.273438 40.574219 L 508.234375 29.503906 C 507.976562 28.398438 507.855469 27.296875 507.855469 26.191406 L 507.597656 25.945312 L 507.089844 20.726562 L 506.585938 18.949219 L 506.585938 18.820312 C 506.324219 17.117188 505.988281 15.507812 505.5625 13.976562 L 505.429688 13.976562 C 506.960938 11.949219 508.53125 10.25 510.144531 8.890625 L 510.144531 9.019531 L 518.542969 25.945312 C 519.554688 27.890625 520.617188 29.503906 521.722656 30.773438 L 525.667969 38.03125 C 526.34375 38.875 527.058594 39.460938 527.824219 39.808594 C 528.082031 40.820312 528.210938 42.003906 528.210938 43.367188 L 527.824219 47.054688 L 527.824219 47.183594 Z M 699.070312 518.257812 C 699.328125 518.335938 699.785156 518.59375 700.472656 519.011719 L 700.851562 519.398438 L 703.902344 521.945312 C 705.261719 523.125 706.664062 524.695312 708.105469 526.644531 C 709.546875 527.917969 710.652344 529.019531 711.414062 529.953125 L 711.535156 529.707031 L 711.535156 529.953125 L 713.195312 531.863281 L 714.714844 534.535156 L 714.714844 534.914062 L 716.753906 538.730469 L 720.699219 542.296875 L 721.59375 542.804688 L 743.339844 558.449219 L 748.816406 563.160156 L 748.816406 563.289062 L 751.871094 566.847656 L 752.128906 566.847656 L 755.050781 571.050781 C 755.984375 572.738281 756.453125 574.398438 756.453125 576.007812 C 751.273438 580.253906 744.445312 582.371094 735.964844 582.371094 C 733.589844 582.371094 728.5 579.058594 720.699219 572.441406 L 703.902344 557.054688 C 694.0625 547.386719 686.984375 539.792969 682.660156 534.277344 L 682.660156 534.160156 L 682.789062 534.160156 L 683.425781 533.769531 L 689.023438 531.484375 L 689.152344 531.484375 L 695.761719 528.554688 C 698.226562 526.863281 699.578125 524.738281 699.835938 522.191406 C 699.835938 520.671875 699.578125 519.351562 699.070312 518.257812 Z M 520.957031 12.070312 L 519.941406 10.292969 L 519.683594 9.914062 L 519.425781 9.277344 L 519.425781 8.890625 L 519.046875 8.132812 L 518.28125 6.476562 L 518.152344 5.710938 L 517.269531 4.1875 L 517.269531 3.929688 L 517.140625 3.800781 L 517.140625 3.421875 L 520.320312 2.023438 L 520.320312 1.894531 C 521.253906 1.554688 522.824219 1.097656 525.03125 0.5 L 535.964844 0.242188 L 538.898438 0.621094 C 547.882812 1.894531 556.539062 5.164062 564.847656 10.421875 C 574.183594 16.363281 582.402344 24.285156 589.527344 34.214844 L 589.527344 34.460938 L 589.398438 34.589844 L 589.28125 34.589844 L 584.3125 35.484375 L 581.648438 35.992188 L 580.117188 35.992188 C 577.3125 36.242188 574.648438 36.371094 572.105469 36.371094 L 564.847656 35.992188 C 559.085938 35.484375 553.90625 34.589844 549.324219 33.320312 L 544.871094 31.789062 L 530.121094 23.140625 L 528.210938 21.234375 L 526.941406 20.21875 L 526.683594 19.703125 L 523.878906 16.144531 L 523.878906 16.015625 L 521.214844 12.585938 L 520.957031 12.070312 " fill-opacity="1" fill-rule="evenodd"/></g><g clip-path="url(#0f46707249)"><path fill="#7f2412" d="M 545.128906 381.75 L 544.871094 381.75 L 543.222656 382.011719 C 542.375 382.011719 541.652344 381.839844 541.054688 381.503906 L 540.300781 381.246094 C 538.9375 381.246094 537.40625 381.453125 535.71875 381.882812 C 534.523438 381.882812 532.875 382.179688 530.757812 382.777344 L 530.628906 382.011719 L 530.5 382.011719 L 530.238281 382.777344 L 530.238281 382.894531 L 527.578125 383.152344 L 526.8125 383.152344 L 518.671875 385.191406 C 515.609375 386.203125 513.660156 386.929688 512.816406 387.347656 L 507.21875 388.878906 C 505.351562 389.472656 503.949219 389.8125 503.015625 389.890625 L 500.472656 390.148438 C 497.925781 390.148438 495.9375 389.214844 494.496094 387.347656 L 494.617188 387.347656 C 495.550781 386.164062 496.484375 384.683594 497.421875 382.894531 L 500.601562 381.882812 L 503.78125 381.503906 C 509.546875 380.570312 513.917969 379 516.882812 376.792969 C 520.113281 374.507812 521.929688 371.367188 522.359375 367.378906 C 522.777344 364.578125 521.164062 361.449219 517.519531 357.96875 C 517.101562 357.710938 516.503906 357.203125 515.738281 356.4375 C 513.195312 354.492188 511.582031 353.179688 510.90625 352.492188 C 512.179688 353.335938 513.75 354.230469 515.609375 355.167969 L 524.136719 359.617188 L 537.875 374.753906 C 539.664062 376.535156 541.988281 378.699219 544.871094 381.246094 L 545.128906 381.246094 L 545 381.503906 Z M 747.921875 588.222656 L 747.921875 588.09375 L 747.792969 588.09375 C 742.792969 589.953125 737.578125 590.886719 732.148438 590.886719 C 726.972656 590.886719 721.464844 590.042969 715.609375 588.34375 C 707.976562 585.71875 701.058594 581.941406 694.875 577.023438 C 693.347656 576.007812 692.242188 575.035156 691.566406 574.101562 L 691.179688 573.84375 L 688 571.050781 L 683.675781 568.246094 C 681.128906 566.976562 679.011719 566.042969 677.3125 565.445312 L 662.941406 559.601562 C 662.433594 559.421875 661.332031 558.875 659.632812 557.941406 L 656.828125 555.527344 C 651.660156 550.863281 649.960938 545.347656 651.738281 538.988281 C 651.738281 538.652344 652 537.976562 652.503906 536.949219 L 653.011719 536.1875 C 654.285156 534.328125 655.21875 533.003906 655.816406 532.25 L 658.230469 528.046875 C 658.65625 527.113281 659.203125 526.097656 659.890625 524.996094 C 663.019531 528.730469 666.460938 531.433594 670.1875 533.132812 C 671.886719 533.820312 673.121094 534.238281 673.882812 534.40625 C 675.574219 534.746094 676.847656 534.914062 677.703125 534.914062 C 678.714844 534.914062 679.949219 534.703125 681.390625 534.277344 L 682.789062 534.027344 L 682.789062 534.160156 L 682.660156 534.160156 L 682.660156 534.277344 C 686.984375 539.792969 694.0625 547.386719 703.902344 557.054688 L 720.699219 572.441406 C 728.5 579.058594 733.589844 582.371094 735.964844 582.371094 C 744.445312 582.371094 751.273438 580.253906 756.453125 576.007812 L 756.582031 576.007812 L 756.453125 578.683594 C 756.363281 579.191406 756.0625 580.035156 755.558594 581.226562 C 753.945312 584.359375 751.402344 586.691406 747.921875 588.222656 Z M 501.875 59.019531 C 498.226562 53.839844 496.445312 47.609375 496.527344 40.316406 C 496.527344 33.695312 498.054688 27.335938 501.109375 21.234375 C 501.613281 19.960938 502.25 18.648438 503.015625 17.289062 L 505.3125 14.109375 L 505.3125 13.976562 L 505.5625 13.976562 C 505.988281 15.507812 506.324219 17.117188 506.585938 18.820312 L 506.585938 18.949219 L 507.089844 20.726562 L 507.597656 25.945312 L 507.855469 26.191406 C 507.855469 27.296875 507.976562 28.398438 508.234375 29.503906 L 510.273438 40.574219 C 510.351562 40.574219 510.402344 40.734375 510.402344 41.082031 C 511.84375 45.742188 513.832031 50.234375 516.375 54.566406 L 519.425781 59.269531 L 519.308594 59.269531 L 514.855469 61.941406 C 514.765625 61.683594 514.335938 61.5625 513.582031 61.5625 C 512.726562 60.796875 512.050781 59.953125 511.542969 59.019531 L 508.492188 49.726562 L 508.492188 49.480469 C 507.726562 47.949219 507.089844 46.933594 506.585938 46.417969 C 504.714844 47.867188 503.691406 49.894531 503.523438 52.53125 L 503.523438 53.929688 L 503.273438 55.453125 L 503.273438 56.085938 L 502.886719 59.398438 L 502.886719 59.527344 L 502.003906 59.019531 Z M 520.957031 12.070312 L 521.214844 12.585938 L 523.878906 16.015625 L 523.878906 16.144531 L 526.683594 19.703125 L 526.941406 20.21875 L 528.210938 21.234375 L 530.121094 23.140625 L 544.871094 31.789062 L 549.324219 33.320312 C 553.308594 34.671875 558.488281 35.695312 564.847656 36.371094 L 572.105469 36.371094 C 574.648438 36.371094 577.3125 36.242188 580.117188 35.992188 L 581.648438 35.992188 L 584.3125 35.484375 L 588.128906 35.097656 L 589.28125 34.847656 L 589.527344 34.847656 C 589.28125 37.472656 587.710938 39.898438 584.828125 42.09375 L 577.066406 46.675781 L 577.066406 46.167969 L 576.804688 46.167969 C 575.285156 46.84375 574.132812 47.273438 573.378906 47.441406 C 572.441406 47.609375 571.042969 47.691406 569.171875 47.691406 C 567.394531 47.691406 565.953125 47.609375 564.847656 47.441406 C 563.65625 47.351562 561.878906 46.933594 559.5 46.167969 L 552.125 43.753906 C 549.074219 42.304688 546.53125 41.25 544.492188 40.574219 C 542.546875 39.71875 540.933594 39.300781 539.664062 39.300781 C 538.210938 38.875 537.15625 38.664062 536.480469 38.664062 C 535.378906 38.328125 534.484375 38.1875 533.808594 38.277344 C 532.953125 38.1875 532.199219 38.328125 531.511719 38.664062 C 530.5 38.664062 529.226562 38.824219 527.695312 39.171875 L 527.695312 39.300781 L 527.824219 39.808594 C 527.058594 39.460938 526.34375 38.875 525.667969 38.03125 L 521.722656 30.773438 C 520.617188 29.503906 519.554688 27.890625 518.542969 25.945312 L 510.144531 9.019531 L 510.144531 8.890625 L 510.273438 8.890625 L 513.582031 5.589844 L 514.464844 5.589844 C 514.894531 4.914062 515.359375 4.566406 515.867188 4.566406 L 517.140625 3.929688 L 517.269531 3.929688 L 517.269531 4.1875 L 518.152344 5.710938 L 518.28125 6.476562 L 519.046875 8.132812 L 519.425781 9.148438 L 519.425781 9.277344 L 519.683594 9.914062 L 519.941406 10.292969 L 519.941406 10.421875 L 520.957031 12.070312 " fill-opacity="1" fill-rule="evenodd"/></g><path fill="#ed9870" d="M 591.824219 300.207031 L 591.945312 300.207031 L 592.074219 300.84375 L 590.671875 303.386719 L 590.035156 303.515625 L 587.878906 302.878906 L 587.878906 302.632812 L 586.855469 302.113281 L 581.648438 297.921875 L 581.648438 298.179688 L 577.3125 293.847656 C 575.703125 291.898438 574.011719 290.03125 572.222656 288.25 C 570.445312 286.214844 569.171875 284.601562 568.40625 283.421875 C 571.636719 283.667969 576.597656 286.679688 583.296875 292.453125 L 585.710938 294.234375 L 589.398438 297.664062 L 591.824219 300.84375 L 591.945312 300.722656 Z M 581.894531 305.683594 L 581.648438 305.554688 L 581.128906 305.554688 C 579.945312 305.554688 578.753906 305.296875 577.570312 304.789062 L 577.3125 304.917969 L 576.804688 304.660156 L 576.804688 304.539062 L 575.792969 304.023438 L 575.664062 303.773438 L 574.769531 303.007812 L 574.519531 302.503906 L 573.753906 301.996094 C 573.496094 301.566406 573.160156 301.359375 572.742188 301.359375 L 565.613281 297.15625 L 565.613281 297.027344 L 565.484375 297.027344 L 563.953125 296.140625 L 563.835938 296.140625 L 563.707031 296.011719 L 562.683594 295.375 C 562.511719 295.207031 562.304688 295.117188 562.046875 295.117188 L 560.902344 293.847656 L 560.65625 293.339844 C 558.785156 291.480469 557.59375 290.078125 557.085938 289.144531 C 556.410156 288.042969 556.074219 287.316406 556.074219 286.976562 L 556.320312 286.09375 C 559.71875 286.261719 564.929688 289.144531 571.976562 294.742188 L 573.117188 295.753906 C 574.222656 296.609375 575.664062 297.921875 577.441406 299.699219 C 578.714844 300.882812 579.6875 302.113281 580.375 303.386719 Z M 544.117188 299.320312 L 528.210938 294.871094 L 527.824219 294.871094 L 527.953125 294.742188 L 526.421875 292.960938 L 526.421875 293.339844 L 526.304688 292.960938 C 525.199219 291.003906 524.476562 289.355469 524.136719 288.003906 L 523.878906 285.070312 C 523.628906 283.628906 523.710938 282.1875 524.136719 280.746094 L 524.136719 280.617188 L 524.265625 280.617188 L 525.539062 276.929688 L 525.539062 276.671875 C 525.789062 275.917969 526.175781 275.28125 526.683594 274.765625 L 528.210938 272.984375 C 529.734375 271.375 531.679688 270.570312 534.058594 270.570312 C 535.25 270.3125 536.394531 270.402344 537.496094 270.828125 L 538.511719 271.078125 L 538.511719 271.335938 L 538.003906 271.335938 L 533.421875 275.398438 C 529.941406 277.945312 528.210938 280.191406 528.210938 282.148438 C 527.953125 282.574219 527.953125 283.082031 528.210938 283.667969 C 528.96875 288.847656 535.964844 293.894531 549.203125 298.816406 L 568.289062 305.929688 L 569.300781 306.695312 L 569.679688 306.695312 L 570.195312 307.085938 L 567.136719 306.695312 L 566.628906 306.824219 L 565.355469 306.320312 L 565.992188 306.320312 L 565.992188 306.191406 L 562.8125 305.425781 C 562.5625 305.175781 562.214844 305.046875 561.796875 305.046875 C 557.722656 303.773438 554.375 302.542969 551.75 301.359375 L 546.144531 298.933594 L 545.507812 298.933594 Z M 591.566406 287.484375 L 593.476562 289.144531 C 594.320312 289.820312 595.214844 290.925781 596.148438 292.453125 L 596.148438 292.703125 L 594.371094 295.753906 L 594.371094 295.636719 L 594.109375 295.375 L 589.527344 292.453125 L 588.761719 291.6875 L 576.300781 281.382812 L 576.042969 281.003906 L 575.027344 279.851562 C 575.535156 279.683594 576 279.605469 576.429688 279.605469 C 577.195312 279.605469 578.207031 279.851562 579.480469 280.371094 L 580.117188 280.488281 L 580.117188 280.371094 L 579.480469 279.734375 L 579.988281 279.851562 Z M 513.582031 61.5625 L 513.582031 61.8125 L 513.453125 62.320312 C 513.113281 63.589844 512.261719 64.226562 510.90625 64.226562 L 510.144531 64.226562 C 508.105469 63.71875 506.832031 62.019531 506.324219 59.140625 L 506.585938 54.4375 C 506.753906 53.503906 507 52.660156 507.339844 51.894531 C 507.507812 51.050781 507.894531 50.324219 508.492188 49.726562 L 511.542969 59.019531 C 512.050781 59.953125 512.726562 60.796875 513.582031 61.5625 Z M 574.769531 54.945312 L 574.011719 54.945312 L 572.859375 55.074219 C 572.523438 55.324219 572.105469 55.453125 571.589844 55.453125 L 568.925781 55.453125 C 559.421875 54.4375 552.671875 52.777344 548.6875 50.492188 C 544.285156 48.285156 539.445312 46.933594 534.1875 46.417969 L 533.679688 46.417969 L 532.914062 46.546875 L 530.628906 46.546875 C 530.539062 46.546875 530.410156 46.597656 530.238281 46.675781 C 529.992188 46.675781 529.734375 46.714844 529.484375 46.804688 C 528.96875 46.894531 528.589844 47.015625 528.332031 47.183594 L 527.824219 47.183594 L 527.824219 47.054688 L 528.210938 43.367188 C 528.210938 42.003906 528.082031 40.820312 527.824219 39.808594 L 527.695312 39.300781 L 527.695312 39.171875 C 529.226562 38.824219 530.5 38.664062 531.511719 38.664062 C 532.199219 38.328125 532.953125 38.1875 533.808594 38.277344 C 534.484375 38.1875 535.378906 38.328125 536.480469 38.664062 C 537.15625 38.664062 538.210938 38.875 539.664062 39.300781 C 540.933594 39.300781 542.546875 39.71875 544.492188 40.574219 C 546.53125 41.25 549.074219 42.304688 552.125 43.753906 L 559.5 46.167969 C 561.878906 46.933594 563.65625 47.351562 564.847656 47.441406 C 565.953125 47.609375 567.394531 47.691406 569.171875 47.691406 C 571.042969 47.691406 572.441406 47.609375 573.378906 47.441406 C 574.132812 47.273438 575.285156 46.84375 576.804688 46.167969 L 577.066406 46.167969 L 577.066406 52.777344 L 576.804688 54.4375 L 576.675781 54.4375 L 574.769531 54.945312 " fill-opacity="1" fill-rule="evenodd"/><path fill="#fca472" d="M 526.8125 294.480469 L 526.421875 293.46875 L 526.421875 292.960938 L 527.953125 294.742188 L 527.824219 294.871094 L 527.695312 294.871094 L 526.941406 294.742188 Z M 575.027344 279.851562 L 574.898438 279.851562 L 576.042969 281.003906 L 576.300781 281.382812 L 588.761719 291.6875 L 589.527344 292.453125 L 594.109375 295.375 L 594.371094 295.636719 L 594.371094 295.753906 L 594.617188 295.753906 L 594.109375 296.648438 L 593.476562 296.648438 C 592.371094 296.648438 591.527344 296.570312 590.929688 296.390625 L 590.929688 296.648438 L 590.671875 296.519531 C 590.839844 296.777344 591.226562 298 591.824219 300.207031 L 591.945312 300.722656 L 591.824219 300.84375 L 589.398438 297.664062 L 585.710938 294.234375 L 583.296875 292.453125 C 576.597656 286.679688 571.636719 283.667969 568.40625 283.421875 C 569.171875 284.601562 570.445312 286.214844 572.222656 288.25 C 574.011719 290.03125 575.703125 291.898438 577.3125 293.847656 L 581.648438 298.179688 L 581.257812 298.296875 L 581.257812 298.425781 L 584.0625 302.632812 L 584.191406 303.386719 L 584.191406 304.539062 C 584.011719 305.125 583.335938 305.515625 582.152344 305.683594 L 581.894531 305.683594 L 580.375 303.386719 C 579.6875 302.113281 578.714844 300.882812 577.441406 299.699219 C 575.664062 297.921875 574.222656 296.609375 573.117188 295.753906 L 571.976562 294.742188 C 564.929688 289.144531 559.71875 286.261719 556.320312 286.09375 L 556.074219 286.976562 C 556.074219 287.316406 556.410156 288.042969 557.085938 289.144531 C 557.59375 290.078125 558.785156 291.480469 560.65625 293.339844 L 560.902344 293.847656 L 562.046875 295.117188 C 562.304688 295.117188 562.511719 295.207031 562.683594 295.375 L 563.707031 296.011719 L 563.707031 296.269531 L 563.578125 296.140625 C 562.382812 295.546875 561.203125 295.117188 560.019531 294.871094 L 561.925781 296.519531 L 562.941406 297.414062 L 564.71875 298.933594 C 564.890625 299.023438 565.058594 299.152344 565.226562 299.320312 C 567.015625 300.761719 568.625 302.242188 570.066406 303.773438 L 570.066406 304.023438 L 571.210938 305.554688 L 571.589844 306.191406 L 571.339844 306.191406 L 571.339844 306.824219 L 571.210938 307.203125 L 571.082031 307.332031 L 570.953125 307.332031 L 570.195312 307.085938 L 569.679688 306.695312 L 569.300781 306.695312 L 568.289062 305.929688 L 549.203125 298.816406 C 535.964844 293.894531 528.96875 288.847656 528.210938 283.667969 C 527.953125 283.082031 527.953125 282.574219 528.210938 282.148438 C 528.210938 280.191406 529.941406 277.945312 533.421875 275.398438 L 538.003906 271.335938 L 538.390625 271.335938 L 538.898438 271.714844 C 541.105469 271.714844 543.855469 271.84375 547.167969 272.101562 L 558.867188 272.476562 C 565.992188 273.242188 571.976562 275.152344 576.804688 278.203125 L 576.804688 278.460938 L 577.570312 278.839844 L 578.972656 279.605469 C 579.050781 279.605469 579.183594 279.644531 579.351562 279.734375 L 579.480469 279.734375 L 580.117188 280.371094 L 580.117188 280.488281 L 579.480469 280.371094 C 578.207031 279.851562 577.195312 279.605469 576.429688 279.605469 C 576 279.605469 575.535156 279.683594 575.027344 279.851562 Z M 554.414062 98.703125 L 554.414062 98.832031 L 553.527344 100.613281 L 553.398438 100.613281 L 553.269531 100.742188 L 553.269531 101.117188 L 552.257812 101.882812 L 552.125 102.519531 L 551.621094 102.90625 L 548.050781 107.101562 L 541.054688 107.101562 C 539.703125 106.84375 538.558594 106.722656 537.625 106.722656 L 534.316406 105.828125 L 534.1875 105.570312 L 522.101562 94.121094 L 518.917969 90.5625 C 514 83.945312 512.308594 77.246094 513.832031 70.46875 C 513.324219 70.628906 512.597656 70.71875 511.671875 70.71875 C 509.464844 70.71875 507.726562 69.871094 506.457031 68.171875 C 504.417969 65.460938 503.226562 63.042969 502.886719 60.929688 L 502.886719 59.398438 L 503.273438 56.085938 L 503.523438 53.929688 L 503.523438 52.53125 C 503.691406 49.894531 504.714844 47.867188 506.585938 46.417969 C 507.089844 46.933594 507.726562 47.949219 508.492188 49.480469 L 508.492188 49.726562 C 507.894531 50.324219 507.507812 51.050781 507.339844 51.894531 C 507 52.660156 506.753906 53.503906 506.585938 54.4375 L 506.324219 59.140625 C 506.832031 62.019531 508.105469 63.71875 510.144531 64.226562 L 510.90625 64.226562 C 512.261719 64.226562 513.113281 63.589844 513.453125 62.320312 L 513.582031 61.8125 L 513.582031 61.5625 C 514.335938 61.5625 514.765625 61.683594 514.855469 61.941406 L 519.308594 59.269531 L 519.425781 59.269531 C 524.175781 55.542969 527.019531 51.546875 527.953125 47.3125 L 528.210938 47.3125 C 528.628906 47.054688 529.058594 46.894531 529.484375 46.804688 C 529.734375 46.714844 529.992188 46.675781 530.238281 46.675781 C 530.480469 46.597656 530.71875 46.558594 530.945312 46.546875 L 532.914062 46.546875 L 533.679688 46.417969 L 534.316406 46.546875 C 539.664062 46.972656 544.492188 48.367188 548.816406 50.75 C 552.464844 52.777344 559.203125 54.386719 569.042969 55.582031 L 571.589844 55.453125 C 572.105469 55.453125 572.523438 55.324219 572.859375 55.074219 L 574.011719 54.945312 L 574.769531 54.945312 L 576.675781 54.566406 L 576.804688 54.566406 C 576.804688 55.242188 576.636719 56.347656 576.300781 57.867188 L 575.285156 61.433594 L 567.136719 80.257812 C 565.695312 82.800781 564.253906 85.097656 562.8125 87.125 L 554.414062 98.703125 " fill-opacity="1" fill-rule="evenodd"/><path fill="#ce7c56" d="M 588.761719 281.890625 C 591.398438 275.101562 595.382812 270.273438 600.730469 267.390625 C 602.003906 266.546875 603.226562 265.859375 604.417969 265.351562 L 609.886719 264.46875 L 610.648438 264.46875 L 596.398438 292.832031 L 596.148438 292.832031 L 596.148438 292.453125 C 595.214844 290.925781 594.320312 289.820312 593.476562 289.144531 L 591.566406 287.484375 C 590.800781 286.214844 590.375 285.40625 590.292969 285.070312 L 588.515625 282.277344 Z M 547.933594 107.101562 L 547.933594 111.296875 L 547.675781 111.554688 L 547.675781 111.296875 L 547.542969 111.296875 C 545.089844 113.929688 542.792969 115.242188 540.675781 115.242188 L 539.535156 115.242188 L 539.910156 112.566406 C 539.910156 110.113281 539.144531 108.15625 537.625 106.722656 C 538.558594 106.722656 539.703125 106.84375 541.054688 107.101562 Z M 502.886719 59.527344 L 502.886719 60.929688 C 503.226562 63.042969 504.417969 65.460938 506.457031 68.171875 C 507.726562 69.871094 509.464844 70.71875 511.671875 70.71875 C 512.597656 70.71875 513.324219 70.628906 513.832031 70.46875 C 512.308594 77.246094 514 83.945312 518.917969 90.5625 L 522.101562 94.121094 L 534.1875 105.570312 L 534.1875 105.828125 C 529.941406 104.476562 524.851562 101.597656 518.917969 97.183594 L 504.417969 85.347656 C 503.144531 84.242188 502.171875 83.230469 501.496094 82.296875 C 500.730469 81.441406 500.222656 80.554688 499.964844 79.621094 C 499.367188 78.777344 499.070312 77.675781 499.070312 76.3125 C 498.902344 75.296875 499.160156 74.066406 499.835938 72.625 L 499.835938 72.496094 L 501.875 59.019531 L 502.003906 59.019531 L 502.886719 59.527344 " fill-opacity="1" fill-rule="evenodd"/><path fill="#e9f0ff" d="M 680.496094 258.863281 L 680.753906 259.25 L 680.882812 259.378906 L 681 259.628906 L 681.519531 260.394531 L 682.023438 262.171875 L 682.273438 263.949219 L 682.273438 265.105469 C 682.105469 266.457031 681.804688 267.726562 681.390625 268.921875 C 680.117188 272.476562 677.613281 275.398438 673.882812 277.695312 C 670.824219 279.644531 667.5625 280.667969 664.085938 280.746094 L 662.8125 280.617188 C 658.996094 280.371094 656.242188 278.839844 654.542969 276.035156 C 653.609375 274.425781 653.140625 272.90625 653.140625 271.464844 C 653.0625 270.777344 653.101562 269.933594 653.269531 268.921875 L 654.035156 266.496094 C 655.554688 262.9375 658.019531 260.015625 661.410156 257.71875 L 664.851562 255.8125 C 665.863281 255.472656 666.96875 255.226562 668.160156 255.046875 C 668.914062 254.796875 669.640625 254.667969 670.316406 254.667969 L 672.613281 254.667969 C 675.914062 254.925781 678.417969 256.199219 680.117188 258.484375 Z M 502.886719 270.191406 L 503.273438 270.441406 L 503.523438 270.441406 C 505.5625 266.039062 508.871094 262.898438 513.453125 261.027344 C 517.855469 261.457031 522.230469 262.679688 526.550781 264.714844 L 537.496094 270.828125 C 536.394531 270.402344 535.25 270.3125 534.058594 270.570312 C 531.679688 270.570312 529.734375 271.375 528.210938 272.984375 L 526.683594 274.765625 C 526.175781 275.28125 525.789062 275.917969 525.539062 276.671875 L 525.539062 276.929688 L 524.265625 280.617188 L 524.136719 280.617188 L 524.136719 280.746094 C 523.710938 282.1875 523.628906 283.628906 523.878906 285.070312 L 524.136719 288.003906 C 524.476562 289.355469 525.199219 291.003906 526.304688 292.960938 L 526.421875 293.339844 L 526.421875 293.46875 L 526.8125 294.480469 L 510.273438 293.339844 C 508.570312 293.089844 506.117188 292.535156 502.886719 291.6875 L 502.769531 291.6875 C 500.300781 284.394531 499.964844 278.164062 501.742188 272.984375 Z M 547.933594 111.296875 L 547.933594 107.101562 L 548.050781 107.101562 L 551.621094 102.90625 L 552.125 102.519531 L 552.257812 101.882812 L 553.269531 101.117188 L 553.269531 100.742188 L 553.398438 100.613281 C 553.566406 101.792969 553.828125 102.867188 554.164062 103.792969 L 554.542969 127.457031 L 554.292969 127.585938 L 553.527344 127.078125 L 552.761719 125.804688 C 551.996094 124.445312 551.320312 122.707031 550.726562 120.589844 C 549.878906 118.628906 549.324219 116.980469 549.074219 115.628906 L 548.816406 115.628906 L 548.816406 115.75 L 548.6875 115.628906 L 547.933594 113.203125 Z M 537.625 106.722656 C 539.144531 108.15625 539.910156 110.113281 539.910156 112.566406 L 539.535156 115.242188 L 539.273438 115.242188 L 537.875 117.785156 L 537.625 119.316406 L 532.40625 131.648438 L 497.160156 98.328125 C 493.34375 94.757812 490.550781 90.433594 488.773438 85.347656 L 488.644531 85.347656 C 489.320312 83.230469 489.957031 81.441406 490.550781 80.007812 C 490.96875 78.738281 491.527344 77.503906 492.203125 76.3125 C 493.644531 73.769531 495.679688 72.496094 498.316406 72.496094 L 499.835938 72.496094 L 499.835938 72.625 C 499.160156 74.066406 498.902344 75.296875 499.070312 76.3125 C 499.070312 77.675781 499.367188 78.777344 499.964844 79.621094 C 500.222656 80.554688 500.730469 81.441406 501.496094 82.296875 C 502.171875 83.230469 503.144531 84.242188 504.417969 85.347656 L 518.917969 97.183594 C 524.851562 101.597656 529.941406 104.476562 534.1875 105.828125 L 534.1875 105.570312 L 534.316406 105.828125 Z M 734.566406 215.996094 L 634.058594 235.714844 C 632.109375 236.054688 630.539062 237.277344 629.355469 239.402344 L 591.1875 315.472656 L 586.734375 316.367188 L 586.605469 316.367188 L 586.605469 316.496094 L 586.476562 316.367188 L 585.710938 316.367188 L 585.335938 316.109375 L 585.074219 315.859375 L 584.828125 315.859375 C 584.738281 315.769531 584.738281 315.523438 584.828125 315.09375 L 585.074219 314.585938 L 585.335938 314.585938 L 585.582031 314.082031 L 585.839844 313.1875 L 585.710938 313.1875 L 585.839844 312.808594 L 585.96875 312.808594 L 586.101562 312.421875 L 586.476562 311.914062 L 586.476562 311.785156 L 586.984375 310.265625 L 587.242188 310.265625 L 587.621094 309.628906 L 587.75 309.628906 L 588.386719 308.476562 L 588.257812 308.476562 L 588.386719 308.226562 L 588.761719 307.460938 L 588.515625 307.460938 L 589.023438 307.085938 L 589.152344 307.085938 L 589.65625 305.683594 L 589.65625 305.554688 L 592.074219 300.84375 L 592.332031 300.84375 L 594.109375 296.648438 L 594.617188 295.753906 L 594.371094 295.753906 L 596.148438 292.703125 L 596.148438 292.832031 L 596.398438 292.832031 L 610.648438 264.46875 L 609.886719 264.46875 L 610.015625 264.210938 L 609.378906 264.210938 C 606.40625 264.210938 603.394531 265.144531 600.34375 267.011719 C 594.65625 269.972656 590.632812 274.941406 588.257812 281.890625 L 588.128906 281.890625 L 585.335938 280.746094 L 585.074219 280.488281 C 582.871094 277.863281 581.519531 274.941406 581.011719 271.714844 C 580.921875 270.949219 580.921875 270.144531 581.011719 269.296875 L 581.257812 265.859375 L 582.28125 262.171875 C 583.632812 259.121094 585.710938 256.785156 588.515625 255.175781 L 591.945312 253.65625 C 592.800781 253.394531 594.152344 253.175781 596.019531 253.019531 L 596.398438 253.019531 L 598.058594 253.136719 L 598.5625 253.136719 L 604.417969 254.925781 C 606.027344 255.601562 607.847656 256.578125 609.886719 257.847656 L 612.558594 259.628906 L 624.515625 235.714844 C 625.539062 233.597656 627.101562 232.367188 629.226562 232.027344 L 733.679688 211.675781 L 734.4375 211.675781 C 735.03125 211.585938 735.460938 211.714844 735.707031 212.050781 C 735.875 212.222656 735.925781 212.609375 735.835938 213.195312 L 735.460938 214.339844 L 734.566406 215.996094 " fill-opacity="1" fill-rule="evenodd"/><path fill="#f9bbe2" d="M 532.40625 131.648438 L 545.507812 140.683594 L 545.507812 140.8125 L 549.839844 143.863281 L 549.960938 143.863281 L 551.621094 139.035156 L 551.621094 138.648438 L 554.542969 127.457031 L 554.164062 103.792969 C 553.828125 102.867188 553.566406 101.792969 553.398438 100.613281 L 553.527344 100.613281 L 554.414062 98.832031 L 554.414062 98.703125 L 562.046875 102.144531 C 562.472656 102.3125 562.730469 102.480469 562.8125 102.648438 C 569.601562 106.722656 574.6875 112.867188 578.078125 121.09375 C 581.46875 129.492188 583.167969 140.304688 583.167969 153.535156 L 582.917969 164.21875 L 582.917969 165.359375 L 575.535156 191.441406 C 571.210938 205.691406 569.09375 220.152344 569.171875 234.820312 C 569.09375 236.691406 569.132812 239.484375 569.300781 243.21875 L 570.195312 251.746094 L 570.066406 251.746094 L 560.902344 254.667969 C 556.660156 255.859375 550.128906 256.449219 541.3125 256.449219 L 527.578125 256.070312 C 519.257812 255.5625 512.894531 253.4375 508.492188 249.710938 C 504.417969 246.140625 502.417969 240.972656 502.507812 234.183594 C 502.023438 225.222656 500.671875 216.265625 498.433594 207.339844 C 498.722656 200.414062 498.929688 193.417969 499.070312 186.351562 L 499.328125 172.992188 L 494.429688 172.488281 L 494.746094 169.175781 C 495.003906 167.308594 495.132812 165.449219 495.132812 163.582031 L 494.746094 159.515625 C 493.980469 149.847656 491.1875 140.683594 486.347656 132.039062 C 480.246094 120.757812 472.183594 114.355469 462.175781 112.828125 C 461.332031 112.65625 459.890625 112.566406 457.851562 112.566406 L 457.34375 112.566406 C 455.308594 112.566406 453.738281 112.65625 452.632812 112.828125 L 446.273438 114.355469 L 446.273438 113.96875 C 446.441406 113.96875 446.570312 113.878906 446.660156 113.722656 C 450.476562 110.410156 454.929688 107.867188 460.019531 106.089844 L 478.84375 91.835938 C 480.710938 90.394531 482.191406 89.371094 483.296875 88.785156 L 485.074219 87.890625 L 488.644531 85.347656 L 488.773438 85.347656 C 490.550781 90.433594 493.34375 94.757812 497.160156 98.328125 L 532.40625 131.648438 " fill-opacity="1" fill-rule="evenodd"/><path fill="#1a226a" d="M 499.585938 359.617188 C 499.328125 359.878906 499.160156 360.292969 499.070312 360.890625 C 499.160156 360.382812 499.40625 359.878906 499.835938 359.359375 Z M 502.507812 355.039062 C 502.25 355.125 502.003906 355.425781 501.742188 355.929688 L 502.636719 355.039062 C 503.3125 354.101562 503.910156 353.425781 504.417969 353 C 503.652344 353.515625 503.015625 354.191406 502.507812 355.039062 Z M 537.875 117.785156 L 539.273438 115.242188 L 540.675781 115.242188 C 542.792969 115.242188 545.089844 113.929688 547.542969 111.296875 L 547.675781 111.296875 L 547.675781 113.203125 L 548.570312 115.628906 L 548.6875 115.878906 C 549.113281 117.578125 549.414062 119.445312 549.582031 121.472656 L 549.710938 122.367188 L 549.710938 124.144531 L 549.839844 124.78125 L 549.839844 130 L 549.203125 130.378906 C 547.753906 130.972656 546.441406 131.273438 545.257812 131.273438 L 542.078125 131.273438 L 540.300781 128.855469 C 538.769531 127.328125 537.875 125.675781 537.625 123.898438 C 537.367188 122.875 537.328125 121.859375 537.496094 120.835938 Z M 725.917969 321.960938 C 721.335938 326.035156 713.574219 330.230469 702.628906 334.554688 C 698.136719 336.421875 692.242188 338.5 684.949219 340.796875 L 661.03125 347.664062 L 659.253906 347.910156 L 658.617188 348.167969 L 626.292969 357.074219 L 626.292969 357.203125 L 622.996094 353.894531 C 619.089844 350.503906 616.285156 347.960938 614.597656 346.261719 C 611.542969 343.042969 609.378906 340.667969 608.105469 339.136719 L 600.214844 332.644531 L 598.058594 329.59375 L 598.058594 329.464844 L 598.433594 329.722656 L 598.5625 329.722656 L 626.683594 316.625 L 663.070312 310.382812 L 664.214844 310.511719 L 664.214844 310.265625 L 690.542969 305.683594 L 692.96875 304.410156 L 694.617188 302.632812 L 695.761719 300.722656 L 696.148438 300.207031 L 696.269531 299.957031 L 696.148438 299.828125 L 696.148438 299.699219 C 697.421875 299.363281 698.34375 298.894531 698.941406 298.296875 L 699.070312 297.921875 L 703.78125 299.828125 L 716.117188 306.824219 C 721.632812 310.382812 724.894531 315.433594 725.917969 321.960938 Z M 648.441406 421.574219 L 648.558594 421.953125 L 648.816406 422.332031 L 648.816406 422.589844 L 653.011719 434.546875 C 653.351562 435.738281 654.203125 438.867188 655.554688 443.957031 L 663.578125 473.980469 C 664.085938 475.421875 664.589844 477.082031 665.097656 478.941406 L 669.808594 494.839844 C 675.40625 511.132812 681.804688 523.257812 689.023438 531.226562 L 689.023438 531.484375 L 683.425781 533.769531 L 682.660156 534.027344 L 681.390625 534.277344 C 679.949219 534.703125 678.714844 534.914062 677.703125 534.914062 C 676.847656 534.914062 675.574219 534.746094 673.882812 534.40625 C 673.121094 534.238281 671.886719 533.820312 670.1875 533.132812 C 666.460938 531.433594 663.019531 528.730469 659.890625 524.996094 L 659.632812 524.738281 C 654.710938 518.632812 651.53125 514.558594 650.089844 512.53125 L 642.328125 503.628906 C 635.796875 496.164062 629.265625 490.011719 622.738281 485.179688 C 615.867188 478.5625 611.882812 469.617188 610.78125 458.335938 L 610.910156 427.9375 L 567.394531 398.417969 L 567.265625 398.160156 L 546.144531 383.023438 L 545.257812 381.882812 L 545.128906 381.75 L 545 381.503906 L 545.128906 381.246094 L 544.871094 381.246094 C 541.988281 378.699219 539.664062 376.535156 537.875 374.753906 L 524.136719 359.617188 L 515.609375 355.167969 C 513.75 354.230469 512.179688 353.335938 510.90625 352.492188 L 510.402344 352.363281 L 499.585938 378.699219 L 497.421875 382.894531 C 496.484375 384.683594 495.550781 386.164062 494.617188 387.347656 L 494.367188 387.347656 C 491.734375 387.269531 490.085938 386.414062 489.410156 384.804688 C 489.320312 384.214844 489.320312 383.75 489.410156 383.410156 C 489.410156 381.960938 489.914062 380.53125 490.929688 379.078125 L 490.800781 379.078125 C 488.941406 378.234375 487.582031 377.507812 486.734375 376.921875 L 483.167969 374.378906 C 481.644531 372.847656 480.414062 371.445312 479.480469 370.171875 C 479.0625 369.695312 478.59375 369.101562 478.078125 368.394531 C 481.796875 352.027344 485.015625 335.210938 487.75 317.957031 L 517.269531 294.234375 L 526.8125 294.480469 L 526.941406 294.742188 L 527.695312 294.871094 L 527.953125 294.871094 L 527.824219 297.414062 L 527.953125 297.664062 L 528.71875 298.558594 L 531.898438 301.359375 L 531.003906 301.609375 L 528.71875 301.996094 C 528.035156 302.074219 527.398438 302.203125 526.8125 302.375 C 521.632812 303.21875 516.464844 304.113281 511.285156 305.046875 L 511.039062 305.425781 L 511.039062 305.554688 L 510.90625 305.554688 L 510.90625 306.191406 L 510.402344 308.476562 C 510.648438 309.160156 510.859375 309.539062 511.039062 309.628906 C 511.625 310.8125 512.726562 311.535156 514.335938 311.785156 C 525.957031 313.902344 537.625 316.027344 549.324219 318.144531 L 554.292969 319.039062 L 577.441406 337.226562 C 593.476562 350.714844 607.089844 363.8125 618.285156 376.535156 C 621.761719 380.351562 625.28125 384.59375 628.839844 389.253906 L 637.496094 401.597656 C 642.15625 408.636719 645.804688 415.292969 648.441406 421.574219 " fill-opacity="1" fill-rule="evenodd"/><path fill="#f796ce" d="M 479.480469 370.171875 L 477.761719 369.855469 C 477.859375 369.378906 477.96875 368.890625 478.078125 368.394531 C 478.59375 369.101562 479.0625 369.695312 479.480469 370.171875 Z M 517.269531 294.234375 L 487.75 317.957031 C 489.308594 308.195312 490.710938 298.296875 491.953125 288.25 L 502.769531 291.6875 L 502.886719 291.6875 C 506.117188 292.535156 508.570312 293.089844 510.273438 293.339844 Z M 495.769531 251.109375 C 496.964844 236.789062 497.859375 222.199219 498.433594 207.339844 C 500.671875 216.265625 502.023438 225.222656 502.507812 234.183594 C 502.417969 240.972656 504.417969 246.140625 508.492188 249.710938 C 512.894531 253.4375 519.257812 255.5625 527.578125 256.070312 L 541.3125 256.449219 C 550.128906 256.449219 556.660156 255.859375 560.902344 254.667969 L 570.066406 251.746094 L 570.195312 253.136719 L 575.285156 273.878906 L 576.804688 278.203125 C 571.976562 275.152344 565.992188 273.242188 558.867188 272.476562 L 547.167969 272.101562 C 543.855469 271.84375 541.105469 271.714844 538.898438 271.714844 L 538.390625 271.335938 L 538.511719 271.335938 L 538.511719 271.078125 L 537.496094 270.828125 L 526.550781 264.714844 C 522.230469 262.679688 517.855469 261.457031 513.453125 261.027344 L 513.453125 260.769531 C 513.023438 260.351562 511.414062 259.328125 508.613281 257.71875 C 506.40625 256.367188 502.679688 254.449219 497.421875 251.996094 C 496.863281 251.695312 496.316406 251.398438 495.769531 251.109375 Z M 641.3125 372.71875 L 639.910156 371.195312 L 638.511719 369.539062 C 637.574219 368.523438 636.640625 367.460938 635.71875 366.355469 L 647.675781 362.929688 C 651.402344 361.824219 654.710938 360.929688 657.59375 360.253906 L 678.207031 354.53125 L 678.335938 354.53125 L 711.535156 360.125 L 711.535156 360.253906 L 711.414062 360.253906 Z M 437.496094 127.457031 L 437.117188 127.960938 L 436.988281 128.222656 L 436.988281 127.585938 L 436.859375 127.585938 L 436.859375 127.457031 C 438.558594 122.535156 441.648438 118.042969 446.152344 113.96875 L 446.273438 113.839844 L 446.660156 113.722656 C 446.570312 113.878906 446.441406 113.96875 446.273438 113.96875 L 446.273438 114.355469 L 452.632812 112.828125 C 453.738281 112.65625 455.308594 112.566406 457.34375 112.566406 L 457.851562 112.566406 C 459.890625 112.566406 461.332031 112.65625 462.175781 112.828125 C 472.183594 114.355469 480.246094 120.757812 486.347656 132.039062 C 491.1875 140.683594 493.980469 149.847656 494.746094 159.515625 L 495.132812 163.582031 C 495.132812 165.449219 495.003906 167.308594 494.746094 169.175781 L 494.429688 172.488281 L 485.464844 171.601562 C 483.644531 171.472656 481.863281 171.253906 480.117188 170.964844 C 481.417969 166.464844 482.988281 162.390625 484.828125 158.753906 L 486.226562 155.3125 L 486.347656 149.460938 C 486.347656 148.1875 486.179688 146.367188 485.839844 143.992188 C 483.722656 135.507812 478.375 128.132812 469.808594 121.859375 C 468.535156 120.835938 467.09375 119.902344 465.484375 119.058594 L 461.03125 117.277344 L 460.65625 117.277344 C 459.460938 116.773438 458.617188 116.472656 458.109375 116.382812 L 454.800781 116.265625 C 448.4375 116.265625 442.675781 119.992188 437.496094 127.457031 " fill-opacity="1" fill-rule="evenodd"/><path fill="#f6f9ff" d="M 494.367188 266.566406 C 494.875 261.4375 495.34375 256.289062 495.769531 251.109375 C 496.316406 251.398438 496.863281 251.695312 497.421875 251.996094 C 502.679688 254.449219 506.40625 256.367188 508.613281 257.71875 C 511.414062 259.328125 513.023438 260.351562 513.453125 260.769531 L 513.453125 261.027344 C 508.871094 262.898438 505.5625 266.039062 503.523438 270.441406 L 503.273438 270.441406 L 502.886719 270.191406 Z M 456.203125 160.660156 L 456.203125 160.53125 C 456.203125 159.089844 456.332031 157.730469 456.578125 156.457031 C 456.75 155.023438 456.835938 153.027344 456.835938 150.484375 C 456.917969 147.589844 456.835938 144.332031 456.578125 140.683594 L 455.566406 132.921875 L 455.566406 132.414062 L 455.058594 131.144531 L 454.929688 126.691406 L 455.058594 125.417969 L 455.941406 121.09375 L 458.109375 118.421875 C 458.695312 117.835938 459.550781 117.449219 460.65625 117.277344 L 461.03125 117.277344 L 465.484375 119.058594 C 467.09375 119.902344 468.535156 120.835938 469.808594 121.859375 C 478.375 128.132812 483.722656 135.507812 485.839844 143.992188 C 486.179688 146.367188 486.347656 148.1875 486.347656 149.460938 L 486.226562 155.3125 L 484.828125 158.753906 C 482.988281 162.390625 481.417969 166.464844 480.117188 170.964844 C 471.300781 169.535156 463.328125 166.097656 456.203125 160.660156 " fill-opacity="1" fill-rule="evenodd"/><path fill="#a7ade4" d="M 585.335938 312.042969 L 580.375 311.277344 L 575.792969 312.171875 L 575.792969 312.421875 L 574.648438 312.171875 L 569.679688 313.058594 L 569.171875 313.058594 L 569.171875 313.1875 L 573.753906 314.199219 L 579.351562 313.316406 L 579.609375 313.1875 L 579.480469 313.1875 L 576.300781 312.679688 L 581.257812 313.058594 L 585.96875 312.171875 L 585.839844 312.171875 Z M 563.320312 312.421875 L 568.535156 313.058594 L 578.207031 311.40625 L 578.078125 311.40625 L 573.378906 310.382812 L 563.320312 312.171875 Z M 555.308594 308.992188 L 550.347656 309.628906 L 550.347656 310.898438 L 552.386719 311.40625 L 556.957031 310.769531 L 556.957031 310.898438 L 561.667969 311.914062 L 562.046875 311.914062 L 575.535156 309.875 L 575.027344 309.628906 L 569.171875 308.605469 L 567.652344 308.992188 L 567.523438 308.605469 L 563.320312 308.097656 L 562.433594 307.460938 L 556.578125 308.605469 L 556.578125 308.992188 Z M 563.578125 296.269531 L 561.925781 296.519531 L 560.019531 294.871094 C 561.203125 295.117188 562.382812 295.546875 563.578125 296.140625 Z M 589.023438 307.085938 L 588.515625 307.460938 L 587.878906 308.097656 L 587.878906 308.226562 L 588.386719 308.226562 L 588.257812 308.476562 L 588.128906 308.355469 L 586.605469 308.097656 L 586.101562 308.097656 L 581.894531 309.113281 L 581.257812 309.371094 L 581.257812 309.5 L 587.621094 309.628906 L 587.242188 310.265625 L 586.984375 310.265625 L 586.984375 310.136719 L 582.28125 310.769531 L 584.699219 310.265625 L 584.570312 310.265625 L 579.351562 309.242188 L 574.769531 310.265625 L 574.769531 310.511719 L 579.351562 311.277344 L 579.988281 311.277344 L 582.28125 310.769531 L 582.28125 310.898438 L 586.101562 311.785156 L 586.476562 311.785156 L 586.476562 311.914062 L 586.101562 312.421875 L 585.96875 312.421875 L 585.464844 312.808594 L 585.839844 312.808594 L 585.710938 313.1875 L 585.710938 313.058594 L 583.296875 312.929688 L 575.664062 314.585938 L 580.882812 315.472656 L 581.765625 315.472656 L 583.554688 315.859375 L 585.074219 315.859375 L 585.335938 316.109375 L 585.710938 316.367188 L 586.476562 316.367188 L 586.605469 316.496094 L 584.828125 319.675781 L 584.828125 320.949219 L 585.074219 321.832031 L 585.839844 322.726562 L 586.101562 322.855469 L 690.542969 304.917969 L 692.96875 303.644531 L 695.761719 300.722656 L 694.617188 302.632812 L 692.96875 304.410156 L 690.542969 305.683594 L 664.214844 310.265625 L 664.085938 310.136719 L 663.070312 310.265625 L 663.070312 310.382812 L 626.683594 316.625 L 627.566406 316.367188 L 627.449219 316.367188 L 594.238281 321.960938 L 594.238281 322.21875 L 593.980469 322.21875 L 586.101562 323.492188 L 585.710938 323.742188 L 583.039062 324 L 554.292969 319.039062 L 549.324219 318.144531 C 537.625 316.027344 525.957031 313.902344 514.335938 311.785156 C 512.726562 311.535156 511.625 310.8125 511.039062 309.628906 C 510.859375 309.449219 510.777344 309.113281 510.777344 308.605469 L 511.039062 306.191406 L 511.285156 306.191406 L 579.351562 318.53125 L 584.828125 319.039062 L 585.074219 318.78125 L 585.335938 317.898438 L 585.839844 316.875 L 583.039062 317.003906 L 546.144531 310.382812 L 545.894531 310.136719 L 546.023438 309.875 L 565.355469 306.320312 L 566.628906 306.824219 L 563.320312 307.332031 L 563.320312 307.460938 L 563.578125 307.71875 L 565.613281 308.097656 L 566.121094 308.097656 L 570.316406 307.332031 L 571.210938 307.332031 L 571.210938 307.203125 L 571.339844 306.824219 L 571.339844 307.085938 L 574.898438 307.460938 L 576.804688 307.203125 L 577.3125 307.203125 L 570.953125 308.226562 L 570.953125 308.355469 L 576.300781 309.371094 L 581.894531 308.605469 L 581.894531 308.476562 L 577.3125 307.203125 L 578.335938 307.203125 L 582.917969 308.355469 L 583.675781 308.355469 L 588.128906 307.203125 L 588.128906 307.085938 L 582.917969 306.320312 L 580.492188 306.824219 L 580.375 306.695312 L 575.027344 305.554688 L 574.390625 305.554688 L 571.589844 306.191406 L 571.210938 305.554688 L 576.675781 304.789062 L 576.804688 304.660156 L 577.3125 304.917969 L 576.300781 305.425781 L 580.753906 305.929688 L 581.128906 306.191406 L 582.402344 306.191406 L 588.761719 304.789062 L 588.515625 304.660156 L 584.441406 304.023438 L 584.441406 304.28125 L 584.191406 304.28125 L 584.191406 303.386719 L 584.441406 303.515625 L 587.878906 302.878906 L 590.035156 303.515625 L 590.671875 303.386719 L 589.65625 305.554688 L 589.65625 305.425781 L 584.828125 306.191406 L 584.828125 306.320312 Z M 550.726562 120.589844 L 550.597656 120.835938 C 550.257812 120.835938 550.007812 121.054688 549.839844 121.472656 L 549.710938 121.472656 L 549.710938 121.09375 L 548.816406 115.75 L 548.816406 115.628906 L 549.074219 115.628906 C 549.324219 116.980469 549.878906 118.628906 550.726562 120.589844 " fill-opacity="1" fill-rule="evenodd"/><path fill="#2a4bd8" d="M 527.953125 297.664062 L 527.953125 294.871094 L 528.210938 294.871094 L 544.117188 299.320312 C 541.054688 299.828125 538.003906 300.335938 534.953125 300.84375 C 534.445312 300.933594 533.9375 301.023438 533.421875 301.101562 L 532.664062 301.230469 L 531.898438 301.359375 L 528.71875 298.558594 Z M 542.328125 131.273438 L 545.257812 131.273438 C 546.441406 131.273438 547.753906 130.972656 549.203125 130.378906 L 549.839844 130 L 549.960938 129.621094 L 550.347656 129.621094 L 550.855469 134.324219 L 550.855469 135.59375 L 551.621094 138.648438 L 551.621094 139.035156 L 549.960938 143.863281 L 549.839844 143.863281 L 545.507812 140.8125 L 545.507812 140.683594 C 545.167969 139.761719 545 138.777344 545 137.761719 L 543.988281 134.195312 C 543.648438 133.347656 543.09375 132.375 542.328125 131.273438 Z M 725.917969 321.960938 L 726.046875 322.984375 C 726.464844 329.851562 724.515625 335.449219 720.191406 339.773438 C 716.207031 342.914062 711.328125 345.546875 705.5625 347.664062 C 702.847656 348.167969 699.28125 348.976562 694.875 350.078125 C 691.984375 350.921875 688.554688 352.027344 684.570312 353.386719 C 682.960938 353.46875 680.882812 353.855469 678.335938 354.53125 L 678.207031 354.53125 L 657.59375 360.253906 C 654.710938 360.929688 651.402344 361.824219 647.675781 362.929688 L 635.71875 366.355469 C 636.640625 367.460938 637.574219 368.523438 638.511719 369.539062 L 639.910156 371.195312 L 642.832031 374.625 L 644.234375 376.285156 C 645.84375 378.144531 647.457031 380.050781 649.074219 382.011719 L 654.671875 391.164062 C 656.449219 393.707031 657.851562 396.003906 658.867188 398.039062 C 662.851562 405.921875 664.851562 413.304688 664.851562 420.175781 C 664.851562 422.289062 664.589844 424.367188 664.085938 426.40625 C 663.65625 428.691406 663.109375 430.730469 662.433594 432.507812 C 666.589844 449.046875 671.378906 463.722656 676.808594 476.523438 L 687.113281 498.917969 L 692.839844 508.457031 C 695.722656 512.949219 697.757812 516.011719 698.941406 517.621094 L 699.070312 518 L 699.070312 518.257812 C 699.578125 519.351562 699.835938 520.671875 699.835938 522.191406 C 699.578125 524.738281 698.226562 526.863281 695.761719 528.554688 L 689.152344 531.484375 L 689.023438 531.484375 L 689.023438 531.226562 C 681.804688 523.257812 675.40625 511.132812 669.808594 494.839844 L 665.097656 478.941406 C 664.589844 477.082031 664.085938 475.421875 663.578125 473.980469 L 655.554688 443.957031 C 654.203125 438.867188 653.351562 435.738281 653.011719 434.546875 L 648.816406 422.589844 L 648.816406 422.332031 L 648.558594 421.953125 L 648.558594 421.824219 L 648.441406 421.574219 C 645.804688 415.292969 642.15625 408.636719 637.496094 401.597656 L 628.839844 389.253906 C 625.28125 384.59375 621.761719 380.351562 618.285156 376.535156 C 607.089844 363.8125 593.476562 350.714844 577.441406 337.226562 L 554.292969 319.039062 L 583.039062 324 L 585.710938 323.742188 L 586.101562 323.492188 L 593.980469 322.21875 L 593.980469 322.347656 L 594.238281 322.46875 L 594.238281 322.347656 L 594.109375 322.21875 L 594.238281 322.21875 L 594.238281 322.347656 L 594.617188 322.726562 L 598.058594 329.464844 L 598.058594 329.59375 L 600.214844 332.644531 L 608.105469 339.136719 C 609.378906 340.667969 611.542969 343.042969 614.597656 346.261719 C 616.285156 347.960938 619.089844 350.503906 622.996094 353.894531 L 626.292969 357.203125 L 626.292969 357.074219 L 658.617188 348.167969 L 661.03125 347.664062 L 684.949219 340.796875 C 692.242188 338.5 698.136719 336.421875 702.628906 334.554688 C 713.574219 330.230469 721.335938 326.035156 725.917969 321.960938 " fill-opacity="1" fill-rule="evenodd"/><path fill="#cfd7f7" d="M 609.378906 264.210938 L 604.160156 265.351562 L 600.730469 267.132812 C 595.292969 270.273438 591.226562 275.191406 588.515625 281.890625 L 588.761719 281.890625 L 588.515625 282.277344 L 590.292969 285.070312 C 590.375 285.40625 590.800781 286.214844 591.566406 287.484375 L 579.988281 279.851562 L 585.074219 280.488281 L 585.335938 280.746094 L 588.128906 281.890625 L 588.257812 281.890625 C 590.632812 274.941406 594.65625 269.972656 600.34375 267.011719 C 603.394531 265.144531 606.40625 264.210938 609.378906 264.210938 " fill-opacity="1" fill-rule="evenodd"/><path fill="#dbdef9" d="M 532.664062 301.230469 L 533.421875 301.101562 C 533.9375 301.023438 534.445312 300.933594 534.953125 300.84375 C 538.003906 300.335938 541.054688 299.828125 544.117188 299.320312 L 545.507812 298.933594 L 546.144531 298.933594 L 551.75 301.359375 C 554.375 302.542969 557.722656 303.773438 561.796875 305.046875 C 562.214844 305.046875 562.5625 305.175781 562.8125 305.425781 L 565.992188 306.191406 L 565.992188 306.320312 L 565.355469 306.320312 L 546.023438 309.875 L 545.894531 310.136719 L 546.144531 310.382812 L 583.039062 317.003906 L 585.839844 316.875 L 585.335938 317.898438 L 585.074219 318.78125 L 584.828125 319.039062 L 579.351562 318.53125 L 511.285156 306.191406 L 511.039062 306.191406 L 511.039062 305.425781 L 511.285156 305.046875 C 516.464844 304.113281 521.632812 303.21875 526.8125 302.375 C 527.398438 302.203125 528.035156 302.074219 528.71875 301.996094 L 531.003906 301.609375 Z M 586.855469 302.113281 L 587.878906 302.632812 L 587.878906 302.878906 L 584.441406 303.515625 L 584.191406 303.386719 L 584.0625 302.632812 L 584.0625 302.503906 Z M 561.925781 296.519531 L 563.578125 296.269531 L 563.707031 296.269531 L 563.707031 296.140625 L 563.953125 296.140625 L 565.484375 297.027344 L 565.613281 297.027344 L 565.613281 297.15625 L 563.320312 297.542969 L 562.941406 297.414062 Z M 570.066406 303.773438 L 572.613281 304.28125 L 574.648438 304.28125 L 575.792969 304.023438 L 576.804688 304.539062 L 576.804688 304.660156 L 576.675781 304.789062 L 571.210938 305.554688 L 570.066406 304.023438 L 570.066406 303.773438 " fill-opacity="1" fill-rule="evenodd"/><path fill="#868bb8" d="M 585.335938 312.042969 L 585.839844 312.171875 L 585.96875 312.171875 L 581.257812 313.058594 L 576.300781 312.679688 L 579.480469 313.1875 L 579.609375 313.1875 L 579.351562 313.316406 L 573.753906 314.199219 L 569.171875 313.1875 L 569.171875 313.058594 L 569.679688 313.058594 L 574.648438 312.171875 L 575.792969 312.421875 L 575.792969 312.171875 L 580.375 311.277344 Z M 563.320312 312.421875 L 563.320312 312.171875 L 573.378906 310.382812 L 578.078125 311.40625 L 578.207031 311.40625 L 568.535156 313.058594 Z M 570.195312 307.085938 L 570.316406 307.203125 L 570.316406 307.332031 L 566.121094 308.097656 L 565.613281 308.097656 L 563.578125 307.71875 L 563.320312 307.460938 L 563.320312 307.332031 L 566.628906 306.824219 L 567.136719 306.695312 Z M 555.308594 308.992188 L 556.578125 308.992188 L 556.578125 308.605469 L 562.433594 307.460938 L 563.320312 308.097656 L 567.523438 308.605469 L 567.652344 308.992188 L 569.171875 308.605469 L 575.027344 309.628906 L 575.535156 309.875 L 562.046875 311.914062 L 561.667969 311.914062 L 556.957031 310.898438 L 556.957031 310.769531 L 552.386719 311.40625 L 550.347656 310.898438 L 550.347656 309.628906 Z M 581.648438 298.179688 L 581.648438 297.921875 L 586.855469 302.113281 L 584.0625 302.503906 L 584.0625 302.632812 L 581.257812 298.425781 L 581.257812 298.296875 Z M 581.257812 306.191406 L 580.753906 305.929688 L 576.300781 305.425781 L 577.570312 304.789062 C 578.753906 305.296875 579.945312 305.554688 581.128906 305.554688 L 581.648438 305.554688 L 581.894531 305.683594 L 582.152344 305.683594 C 583.335938 305.515625 584.011719 305.125 584.191406 304.539062 L 584.441406 304.28125 L 584.441406 304.023438 L 588.515625 304.660156 L 588.761719 304.789062 L 582.402344 306.191406 Z M 575.792969 304.023438 L 574.648438 304.28125 L 572.613281 304.28125 L 570.066406 303.773438 C 568.625 302.242188 567.015625 300.761719 565.226562 299.320312 C 565.058594 299.152344 564.890625 299.023438 564.71875 298.933594 L 562.941406 297.414062 L 563.320312 297.542969 L 565.613281 297.15625 L 572.742188 301.359375 C 573.160156 301.359375 573.496094 301.566406 573.753906 301.996094 L 574.519531 302.503906 L 574.769531 303.007812 L 575.664062 303.773438 Z M 571.589844 306.191406 L 574.390625 305.554688 L 575.027344 305.554688 L 580.375 306.695312 L 580.492188 306.824219 L 582.917969 306.320312 L 588.128906 307.085938 L 588.128906 307.203125 L 583.675781 308.355469 L 582.917969 308.355469 L 578.335938 307.203125 L 577.3125 307.203125 L 581.894531 308.476562 L 581.894531 308.605469 L 576.300781 309.371094 L 570.953125 308.355469 L 570.953125 308.226562 L 577.3125 307.203125 L 576.804688 307.203125 L 574.898438 307.460938 L 571.339844 307.085938 L 571.339844 306.191406 Z M 696.148438 299.828125 L 696.269531 299.957031 L 696.148438 300.207031 L 695.761719 300.722656 L 692.96875 303.644531 L 690.542969 304.917969 L 586.101562 322.855469 L 585.839844 322.726562 L 585.074219 321.832031 L 584.828125 320.949219 L 584.828125 319.675781 L 586.605469 316.496094 L 586.605469 316.367188 L 586.734375 316.367188 L 591.1875 315.472656 L 591.308594 315.601562 L 590.164062 317.898438 C 589.570312 318.742188 589.359375 319.378906 589.527344 319.804688 C 589.699219 320.054688 590.035156 320.183594 590.550781 320.183594 L 591.4375 320.183594 L 596.398438 319.167969 C 596.914062 319.078125 597.460938 318.992188 598.058594 318.910156 C 630.707031 312.550781 663.410156 306.191406 696.148438 299.828125 Z M 585.074219 314.585938 L 583.675781 315.09375 L 584.699219 314.964844 L 584.828125 314.964844 L 584.828125 315.09375 C 584.738281 315.523438 584.738281 315.769531 584.828125 315.859375 L 583.554688 315.859375 L 581.765625 315.472656 L 580.882812 315.472656 L 575.664062 314.585938 L 583.296875 312.929688 L 585.710938 313.058594 L 585.710938 313.1875 L 585.839844 313.1875 L 585.582031 314.082031 L 585.335938 314.585938 Z M 585.839844 312.808594 L 585.464844 312.808594 L 585.96875 312.421875 L 586.101562 312.421875 L 585.96875 312.808594 Z M 589.023438 307.085938 L 584.828125 306.320312 L 584.828125 306.191406 L 589.65625 305.425781 L 589.65625 305.683594 L 589.152344 307.085938 Z M 588.386719 308.226562 L 587.878906 308.226562 L 587.878906 308.097656 L 588.515625 307.460938 L 588.761719 307.460938 Z M 586.476562 311.785156 L 586.101562 311.785156 L 582.28125 310.898438 L 582.28125 310.769531 L 579.988281 311.277344 L 579.351562 311.277344 L 574.769531 310.511719 L 574.769531 310.265625 L 579.351562 309.242188 L 584.570312 310.265625 L 584.699219 310.265625 L 582.28125 310.769531 L 586.984375 310.136719 L 586.984375 310.265625 Z M 588.257812 308.476562 L 588.386719 308.476562 L 587.75 309.628906 L 587.621094 309.628906 L 581.257812 309.5 L 581.257812 309.371094 L 581.894531 309.113281 L 586.101562 308.097656 L 586.605469 308.097656 L 588.128906 308.355469 Z M 591.945312 300.207031 L 590.929688 296.648438 L 590.929688 296.390625 C 591.527344 296.570312 592.371094 296.648438 593.476562 296.648438 L 594.109375 296.648438 L 592.332031 300.84375 L 592.074219 300.84375 L 591.945312 300.207031 " fill-opacity="1" fill-rule="evenodd"/><path fill="#131846" d="M 664.214844 310.265625 L 664.214844 310.511719 L 663.070312 310.382812 L 663.070312 310.265625 L 664.085938 310.136719 Z M 626.683594 316.625 L 598.5625 329.722656 L 598.433594 329.722656 L 598.058594 329.464844 L 594.617188 322.726562 L 594.238281 322.347656 L 594.238281 321.960938 L 627.449219 316.367188 L 627.566406 316.367188 L 626.683594 316.625 " fill-opacity="1" fill-rule="evenodd"/><path fill="#d14b7e" d="M 567.394531 585.421875 L 567.394531 398.417969 L 610.910156 427.9375 L 610.78125 458.335938 C 611.882812 469.617188 615.867188 478.5625 622.738281 485.179688 C 629.265625 490.011719 635.796875 496.164062 642.328125 503.628906 L 650.089844 512.53125 C 651.53125 514.558594 654.710938 518.632812 659.632812 524.738281 L 659.890625 524.996094 C 659.203125 526.097656 658.65625 527.113281 658.230469 528.046875 L 655.816406 532.25 C 655.21875 533.003906 654.285156 534.328125 653.011719 536.1875 L 652.503906 536.949219 C 652 537.976562 651.738281 538.652344 651.738281 538.988281 L 651.492188 538.988281 C 647.503906 542.726562 645.636719 546.621094 645.894531 550.695312 C 645.894531 551.878906 646.144531 553.109375 646.652344 554.382812 C 646.820312 555.488281 647.375 556.796875 648.3125 558.328125 C 651.621094 563.417969 656.023438 566.847656 661.539062 568.625 Z M 711.535156 529.707031 L 711.414062 529.953125 C 710.652344 529.019531 709.546875 527.917969 708.105469 526.644531 C 706.664062 524.695312 705.261719 523.125 703.902344 521.945312 L 700.851562 519.398438 L 700.472656 519.011719 L 699.070312 518 L 698.941406 517.621094 C 697.757812 516.011719 695.722656 512.949219 692.839844 508.457031 L 687.113281 498.917969 L 676.808594 476.523438 C 671.378906 463.722656 666.589844 449.046875 662.433594 432.507812 C 663.109375 430.730469 663.65625 428.691406 664.085938 426.40625 C 664.589844 424.367188 664.851562 422.289062 664.851562 420.175781 C 664.851562 413.304688 662.851562 405.921875 658.867188 398.039062 C 657.851562 396.003906 656.449219 393.707031 654.671875 391.164062 L 649.074219 382.011719 C 647.457031 380.050781 645.84375 378.144531 644.234375 376.285156 L 642.832031 374.625 L 641.3125 372.71875 L 711.414062 360.253906 L 711.535156 360.253906 L 711.535156 529.707031 " fill-opacity="1" fill-rule="evenodd"/><g clip-path="url(#d92fa67072)"><path fill="#040404" d="M 651.738281 538.988281 C 649.960938 545.347656 651.660156 550.863281 656.828125 555.527344 L 659.632812 557.941406 C 661.332031 558.875 662.433594 559.421875 662.941406 559.601562 L 677.3125 565.445312 C 679.011719 566.042969 681.128906 566.976562 683.675781 568.246094 L 688 571.050781 L 691.179688 573.84375 L 691.566406 574.101562 C 692.242188 575.035156 693.347656 576.007812 694.875 577.023438 C 701.058594 581.941406 707.976562 585.71875 715.609375 588.34375 C 721.464844 590.042969 726.972656 590.886719 732.148438 590.886719 C 737.578125 590.886719 742.792969 589.953125 747.792969 588.09375 L 747.921875 588.09375 L 747.921875 588.222656 L 747.675781 588.472656 C 741.988281 592.457031 735.539062 594.457031 728.332031 594.457031 L 722.867188 594.324219 C 714.46875 592.886719 706.238281 589.875 698.175781 585.292969 L 694.746094 583.007812 C 693.644531 582.320312 692.28125 581.265625 690.671875 579.824219 L 688.636719 578.046875 L 680.625 572.320312 C 677.3125 570.117188 673.882812 569.011719 670.316406 569.011719 C 668.796875 569.011719 667.433594 569.222656 666.25 569.648438 L 661.539062 568.625 C 656.023438 566.847656 651.621094 563.417969 648.3125 558.328125 C 647.375 556.796875 646.820312 555.488281 646.652344 554.382812 C 646.144531 553.109375 645.894531 551.878906 645.894531 550.695312 C 645.636719 546.621094 647.503906 542.726562 651.492188 538.988281 L 651.738281 538.988281 " fill-opacity="1" fill-rule="evenodd"/></g><g clip-path="url(#dc50922695)"><path fill="#f0f0ff" d="M 116.511719 146.03125 C 113.621094 146.796875 110.609375 147.253906 107.476562 147.433594 C 104.761719 147.679688 102 147.730469 99.207031 147.550781 L 85.339844 146.914062 L 107.476562 145.523438 Z M 432.664062 99.976562 L 433.679688 100.105469 L 432.914062 114.476562 C 432.914062 114.566406 432.914062 114.695312 432.914062 114.863281 L 432.914062 114.992188 C 432.914062 121.246094 433.847656 127.15625 435.714844 132.734375 C 438.222656 140.238281 442.425781 147.132812 448.308594 153.40625 C 450.8125 156.117188 453.4375 158.535156 456.203125 160.660156 C 463.328125 166.097656 471.300781 169.535156 480.117188 170.964844 C 481.863281 171.253906 483.644531 171.472656 485.464844 171.601562 L 494.429688 172.488281 L 499.328125 172.992188 L 477.195312 174.394531 L 463.328125 172.992188 C 460.425781 172.796875 457.601562 172.386719 454.859375 171.792969 C 447.117188 170.070312 440.039062 166.742188 433.617188 161.804688 C 430.984375 159.796875 428.460938 157.511719 426.046875 154.9375 C 415.777344 143.914062 410.648438 131.054688 410.648438 116.382812 L 410.648438 116.265625 C 410.648438 116.085938 410.648438 115.925781 410.648438 115.75 L 411.542969 101.507812 L 432.664062 99.976562 " fill-opacity="1" fill-rule="evenodd"/></g><g clip-path="url(#ef06ab21d0)"><path fill="#dbdfff" d="M 288.511719 523.59375 C 290.890625 522.75 293.226562 521.855469 295.511719 520.921875 C 320.109375 510.832031 341.273438 498.957031 358.992188 485.300781 C 389.867188 461.46875 410.441406 432.089844 420.699219 397.148438 C 422.070312 392.304688 423.382812 387.425781 424.644531 382.515625 C 426.414062 375.609375 428.09375 368.644531 429.671875 361.585938 C 429.792969 360.992188 429.921875 360.402344 430.050781 359.808594 C 436.363281 331.601562 441.171875 302.09375 444.492188 271.265625 C 447.007812 247.621094 448.667969 223.222656 449.453125 198.058594 C 443.308594 196.609375 437.457031 194.480469 431.898438 191.699219 C 422.863281 187.144531 414.59375 180.824219 407.089844 172.746094 C 394.367188 159.257812 386.8125 143.914062 384.4375 126.691406 L 188.902344 113.085938 L 177.957031 112.320312 C 177.28125 117.320312 176.136719 122.070312 174.519531 126.5625 C 173.761719 128.945312 172.828125 131.234375 171.726562 133.4375 C 167.910156 141.410156 162.519531 148.664062 155.5625 155.183594 C 143.347656 166.472656 129.183594 172.914062 113.074219 174.523438 C 113.164062 178.597656 113.28125 182.625 113.449219 186.609375 C 113.449219 186.6875 113.449219 186.828125 113.449219 186.988281 C 116.421875 255.34375 125.882812 318.871094 141.828125 377.558594 C 159.042969 438.957031 205.519531 488.53125 281.269531 526.265625 C 283.722656 525.421875 286.136719 524.527344 288.511719 523.59375 Z M 477.195312 174.394531 L 476.804688 187.882812 C 476.457031 206.257812 475.671875 224.238281 474.460938 241.816406 C 474.101562 246.6875 473.714844 251.527344 473.308594 256.316406 C 472.589844 264.695312 471.765625 272.984375 470.832031 281.195312 C 468.792969 299.234375 466.25 316.832031 463.199219 333.988281 C 461.976562 340.925781 460.65625 347.792969 459.253906 354.589844 C 458.457031 358.496094 457.632812 362.371094 456.769531 366.238281 C 453.785156 379.804688 450.457031 393.082031 446.789062 406.050781 C 441.800781 424.058594 434.425781 440.746094 424.644531 456.113281 C 398.640625 496.949219 355.683594 528.433594 295.769531 550.566406 C 292.71875 551.75 289.578125 552.851562 286.355469 553.875 L 281.269531 555.902344 L 276.179688 553.242188 C 188.136719 510.664062 134.699219 453.925781 115.875 383.023438 C 97.300781 315.09375 87.199219 240.894531 85.589844 160.402344 L 85.339844 146.914062 L 99.207031 147.550781 C 102 147.730469 104.761719 147.679688 107.476562 147.433594 C 110.609375 147.253906 113.621094 146.796875 116.511719 146.03125 C 123.796875 143.914062 130.417969 140.136719 136.351562 134.710938 C 146.617188 125.039062 151.746094 112.867188 151.746094 98.195312 C 151.746094 98.027344 151.746094 97.859375 151.746094 97.691406 L 150.980469 83.308594 L 411.542969 101.507812 L 410.648438 115.75 C 410.648438 115.925781 410.648438 116.085938 410.648438 116.265625 L 410.648438 116.382812 C 410.648438 131.054688 415.777344 143.914062 426.046875 154.9375 C 428.460938 157.511719 430.984375 159.796875 433.617188 161.804688 C 440.039062 166.742188 447.117188 170.070312 454.859375 171.792969 C 457.601562 172.386719 460.425781 172.796875 463.328125 172.992188 L 477.195312 174.394531 " fill-opacity="1" fill-rule="evenodd"/></g><path fill="#abb1eb" d="M 124.523438 183.808594 C 127.238281 253.097656 136.699219 317.46875 152.890625 376.921875 C 169.855469 437.21875 215.0625 486.117188 288.511719 523.59375 C 286.136719 524.527344 283.722656 525.421875 281.269531 526.265625 C 205.519531 488.53125 159.042969 438.957031 141.828125 377.558594 C 125.882812 318.871094 116.421875 255.34375 113.449219 186.988281 C 113.449219 186.828125 113.449219 186.6875 113.449219 186.609375 C 113.28125 182.625 113.164062 178.597656 113.074219 174.523438 L 124.144531 173.886719 C 124.226562 177.289062 124.355469 180.585938 124.523438 183.808594 Z M 487.75 317.957031 C 485.015625 335.210938 481.796875 352.027344 478.078125 368.394531 C 477.96875 368.890625 477.859375 369.378906 477.761719 369.855469 C 475.027344 381.742188 472.035156 393.378906 468.792969 404.777344 C 460.613281 434.445312 445.894531 460.523438 424.644531 483.015625 C 396.992188 512.242188 358.269531 535.402344 308.492188 552.476562 L 303.402344 554.382812 L 281.269531 555.902344 L 286.355469 553.875 C 289.578125 552.851562 292.71875 551.75 295.769531 550.566406 C 355.683594 528.433594 398.640625 496.949219 424.644531 456.113281 C 434.425781 440.746094 441.800781 424.058594 446.789062 406.050781 C 450.457031 393.082031 453.785156 379.804688 456.769531 366.238281 C 457.632812 362.371094 458.457031 358.496094 459.253906 354.589844 C 460.65625 347.792969 461.976562 340.925781 463.199219 333.988281 C 466.25 316.832031 468.792969 299.234375 470.832031 281.195312 C 471.765625 272.984375 472.589844 264.695312 473.308594 256.316406 C 473.714844 251.527344 474.101562 246.6875 474.460938 241.816406 C 475.671875 224.238281 476.457031 206.257812 476.804688 187.882812 L 477.195312 174.394531 L 499.328125 172.992188 L 499.070312 186.351562 C 498.929688 193.417969 498.722656 200.414062 498.433594 207.339844 C 497.859375 222.199219 496.964844 236.789062 495.769531 251.109375 C 495.34375 256.289062 494.875 261.4375 494.367188 266.566406 C 493.644531 273.851562 492.839844 281.085938 491.953125 288.25 C 490.710938 298.296875 489.308594 308.195312 487.75 317.957031 Z M 411.542969 101.507812 L 150.980469 83.308594 L 173.125 81.917969 L 432.664062 99.976562 L 411.542969 101.507812 " fill-opacity="1" fill-rule="evenodd"/><path fill="#1fbcbf" d="M 358.992188 485.300781 C 341.273438 498.957031 320.109375 510.832031 295.511719 520.921875 C 293.226562 521.855469 290.890625 522.75 288.511719 523.59375 C 215.0625 486.117188 169.855469 437.21875 152.890625 376.921875 C 136.699219 317.46875 127.238281 253.097656 124.523438 183.808594 C 134.195312 180.585938 142.96875 175.289062 150.863281 167.90625 C 152.640625 166.214844 154.292969 164.515625 155.820312 162.816406 C 159.550781 160.453125 163.15625 157.648438 166.636719 154.429688 C 175.113281 146.539062 181.265625 137.503906 185.082031 127.328125 L 368.792969 140.175781 C 371.167969 157.3125 378.675781 172.65625 391.316406 186.230469 C 402.835938 198.636719 416.195312 206.863281 431.394531 210.910156 C 432.1875 211.136719 432.992188 211.355469 433.808594 211.546875 C 433.371094 225.558594 432.644531 239.332031 431.640625 252.890625 C 427.546875 309.617188 418.679688 362.152344 405.054688 410.503906 C 396.65625 439.167969 381.308594 464.101562 358.992188 485.300781 " fill-opacity="1" fill-rule="evenodd"/><path fill="#0d8e90" d="M 124.144531 173.886719 C 135.675781 172.695312 146.242188 169.019531 155.820312 162.816406 C 154.292969 164.515625 152.640625 166.214844 150.863281 167.90625 C 142.96875 175.289062 134.195312 180.585938 124.523438 183.808594 C 124.355469 180.585938 124.226562 177.289062 124.144531 173.886719 Z M 358.992188 485.300781 C 381.308594 464.101562 396.65625 439.167969 405.054688 410.503906 C 418.679688 362.152344 427.546875 309.617188 431.640625 252.890625 C 432.644531 239.332031 433.371094 225.558594 433.808594 211.546875 C 432.992188 211.355469 432.1875 211.136719 431.394531 210.910156 C 416.195312 206.863281 402.835938 198.636719 391.316406 186.230469 C 378.675781 172.65625 371.167969 157.3125 368.792969 140.175781 L 185.082031 127.328125 C 186.773438 122.746094 188.046875 117.996094 188.902344 113.085938 L 384.4375 126.691406 C 386.8125 143.914062 394.367188 159.257812 407.089844 172.746094 C 414.59375 180.824219 422.863281 187.144531 431.898438 191.699219 C 437.457031 194.480469 443.308594 196.609375 449.453125 198.058594 C 448.667969 223.222656 447.007812 247.621094 444.492188 271.265625 C 441.171875 302.09375 436.363281 331.601562 430.050781 359.808594 C 429.921875 360.402344 429.792969 360.992188 429.671875 361.585938 C 428.09375 368.644531 426.414062 375.609375 424.644531 382.515625 C 423.382812 387.425781 422.070312 392.304688 420.699219 397.148438 C 410.441406 432.089844 389.867188 461.46875 358.992188 485.300781 " fill-opacity="1" fill-rule="evenodd"/><path fill="#9999ef" d="M 155.820312 162.816406 C 146.242188 169.019531 135.675781 172.695312 124.144531 173.886719 L 113.074219 174.523438 C 129.183594 172.914062 143.347656 166.472656 155.5625 155.183594 C 162.519531 148.664062 167.910156 141.410156 171.726562 133.4375 C 172.828125 131.234375 173.761719 128.945312 174.519531 126.5625 C 176.136719 122.070312 177.28125 117.320312 177.957031 112.320312 L 188.902344 113.085938 C 188.046875 117.996094 186.773438 122.746094 185.082031 127.328125 C 181.265625 137.503906 175.113281 146.539062 166.636719 154.429688 C 163.15625 157.648438 159.550781 160.453125 155.820312 162.816406 " fill-opacity="1" fill-rule="evenodd"/></svg>