<svg xmlns="http://www.w3.org/2000/svg" xmlns:xlink="http://www.w3.org/1999/xlink" width="374" zoomAndPan="magnify" viewBox="0 0 841.92 595.499987" height="264" preserveAspectRatio="xMidYMid meet" version="1.0"><defs><clipPath id="0cfd7f7f22"><path d="M 0.3125 221.617188 L 79 221.617188 L 79 372.945312 L 0.3125 372.945312 Z M 0.3125 221.617188 " clip-rule="nonzero"/></clipPath><clipPath id="34cd7bca5b"><path d="M 84 221.617188 L 164 221.617188 L 164 372.945312 L 84 372.945312 Z M 84 221.617188 " clip-rule="nonzero"/></clipPath><clipPath id="b96cfe2191"><path d="M 169 221.617188 L 249 221.617188 L 249 372.945312 L 169 372.945312 Z M 169 221.617188 " clip-rule="nonzero"/></clipPath><clipPath id="3eed05ef3d"><path d="M 254 221.617188 L 334 221.617188 L 334 372.945312 L 254 372.945312 Z M 254 221.617188 " clip-rule="nonzero"/></clipPath><clipPath id="65e226aa37"><path d="M 339 221.617188 L 418 221.617188 L 418 372.945312 L 339 372.945312 Z M 339 221.617188 " clip-rule="nonzero"/></clipPath><clipPath id="9fbb50688f"><path d="M 423 221.617188 L 503 221.617188 L 503 372.945312 L 423 372.945312 Z M 423 221.617188 " clip-rule="nonzero"/></clipPath><clipPath id="4fa50d855b"><path d="M 508 221.617188 L 588 221.617188 L 588 372.945312 L 508 372.945312 Z M 508 221.617188 " clip-rule="nonzero"/></clipPath><clipPath id="37e5f843ba"><path d="M 593 221.617188 L 673 221.617188 L 673 372.945312 L 593 372.945312 Z M 593 221.617188 " clip-rule="nonzero"/></clipPath><clipPath id="f9d1facbc7"><path d="M 678 221.617188 L 757 221.617188 L 757 372.945312 L 678 372.945312 Z M 678 221.617188 " clip-rule="nonzero"/></clipPath><clipPath id="c507e8dc56"><path d="M 762 221.617188 L 841.527344 221.617188 L 841.527344 372.945312 L 762 372.945312 Z M 762 221.617188 " clip-rule="nonzero"/></clipPath></defs><g clip-path="url(#0cfd7f7f22)"><path fill="#df0700" d="M 0.242188 372.699219 L 0.242188 353.769531 L 59.167969 297.191406 L 0.242188 240.609375 L 0.242188 221.679688 L 78.898438 297.191406 Z M 0.242188 372.699219 " fill-opacity="1" fill-rule="nonzero"/></g><g clip-path="url(#34cd7bca5b)"><path fill="#df0700" d="M 84.980469 372.699219 L 84.980469 353.769531 L 143.902344 297.191406 L 84.980469 240.609375 L 84.980469 221.679688 L 163.632812 297.191406 Z M 84.980469 372.699219 " fill-opacity="1" fill-rule="nonzero"/></g><g clip-path="url(#b96cfe2191)"><path fill="#df0700" d="M 169.699219 372.699219 L 169.699219 353.769531 L 228.640625 297.191406 L 169.699219 240.609375 L 169.699219 221.679688 L 248.355469 297.191406 Z M 169.699219 372.699219 " fill-opacity="1" fill-rule="nonzero"/></g><g clip-path="url(#3eed05ef3d)"><path fill="#df0700" d="M 254.4375 372.699219 L 254.4375 353.769531 L 313.378906 297.191406 L 254.4375 240.609375 L 254.4375 221.679688 L 333.09375 297.191406 Z M 254.4375 372.699219 " fill-opacity="1" fill-rule="nonzero"/></g><g clip-path="url(#65e226aa37)"><path fill="#df0700" d="M 339.175781 372.699219 L 339.175781 353.769531 L 398.117188 297.191406 L 339.175781 240.609375 L 339.175781 221.679688 L 417.828125 297.191406 Z M 339.175781 372.699219 " fill-opacity="1" fill-rule="nonzero"/></g><g clip-path="url(#9fbb50688f)"><path fill="#df0700" d="M 423.910156 372.699219 L 423.910156 353.769531 L 482.855469 297.191406 L 423.910156 240.609375 L 423.910156 221.679688 L 502.566406 297.191406 Z M 423.910156 372.699219 " fill-opacity="1" fill-rule="nonzero"/></g><g clip-path="url(#4fa50d855b)"><path fill="#df0700" d="M 508.648438 372.699219 L 508.648438 353.769531 L 567.574219 297.191406 L 508.648438 240.609375 L 508.648438 221.679688 L 587.304688 297.191406 Z M 508.648438 372.699219 " fill-opacity="1" fill-rule="nonzero"/></g><g clip-path="url(#37e5f843ba)"><path fill="#df0700" d="M 593.386719 372.699219 L 593.386719 353.769531 L 652.3125 297.191406 L 593.386719 240.609375 L 593.386719 221.679688 L 672.042969 297.191406 Z M 593.386719 372.699219 " fill-opacity="1" fill-rule="nonzero"/></g><g clip-path="url(#f9d1facbc7)"><path fill="#df0700" d="M 678.105469 372.699219 L 678.105469 353.769531 L 737.046875 297.191406 L 678.105469 240.609375 L 678.105469 221.679688 L 756.761719 297.191406 Z M 678.105469 372.699219 " fill-opacity="1" fill-rule="nonzero"/></g><g clip-path="url(#c507e8dc56)"><path fill="#df0700" d="M 762.84375 372.699219 L 762.84375 353.769531 L 821.785156 297.191406 L 762.84375 240.609375 L 762.84375 221.679688 L 841.5 297.191406 Z M 762.84375 372.699219 " fill-opacity="1" fill-rule="nonzero"/></g></svg>