<svg xmlns="http://www.w3.org/2000/svg" xmlns:xlink="http://www.w3.org/1999/xlink" width="374" zoomAndPan="magnify" viewBox="0 0 841.92 595.499987" height="264" preserveAspectRatio="xMidYMid meet" version="1.0"><path fill="#df0700" d="M 109.871094 415.515625 C 106.734375 415.527344 103.660156 415.097656 100.648438 414.21875 C 97.632812 413.34375 94.808594 412.058594 92.167969 410.363281 L 20.238281 369.449219 C 18.914062 368.65625 17.644531 367.785156 16.425781 366.832031 C 15.210938 365.882812 14.058594 364.855469 12.972656 363.757812 C 11.890625 362.660156 10.875 361.5 9.9375 360.273438 C 9 359.046875 8.140625 357.765625 7.367188 356.429688 C 6.589844 355.09375 5.898438 353.71875 5.296875 352.292969 C 4.695312 350.871094 4.1875 349.417969 3.769531 347.929688 C 3.351562 346.445312 3.03125 344.9375 2.804688 343.410156 C 2.578125 341.882812 2.449219 340.347656 2.417969 338.804688 L 2.417969 255.5 C 2.421875 253.945312 2.527344 252.394531 2.734375 250.855469 C 2.941406 249.316406 3.246094 247.792969 3.652344 246.292969 C 4.058594 244.792969 4.558594 243.324219 5.15625 241.890625 C 5.753906 240.453125 6.441406 239.0625 7.21875 237.71875 C 7.996094 236.371094 8.859375 235.082031 9.808594 233.851562 C 10.753906 232.617188 11.777344 231.453125 12.875 230.351562 C 13.972656 229.253906 15.140625 228.230469 16.371094 227.28125 C 17.605469 226.335938 18.894531 225.472656 20.238281 224.691406 L 92.167969 182.382812 C 94.941406 181.070312 97.824219 180.078125 100.816406 179.40625 C 103.8125 178.730469 106.84375 178.394531 109.910156 178.394531 C 112.980469 178.394531 116.007812 178.730469 119.003906 179.402344 C 121.996094 180.078125 124.878906 181.070312 127.652344 182.382812 L 199.582031 224.734375 C 200.914062 225.519531 202.195312 226.386719 203.414062 227.339844 C 204.636719 228.292969 205.792969 229.316406 206.882812 230.417969 C 207.972656 231.519531 208.988281 232.6875 209.925781 233.917969 C 210.863281 235.148438 211.71875 236.4375 212.492188 237.78125 C 213.265625 239.121094 213.949219 240.507812 214.542969 241.9375 C 215.136719 243.371094 215.632812 244.832031 216.039062 246.328125 C 216.441406 247.824219 216.75 249.339844 216.957031 250.871094 C 217.164062 252.40625 217.273438 253.949219 217.285156 255.5 L 217.285156 338.804688 C 217.242188 340.34375 217.109375 341.871094 216.878906 343.394531 C 216.648438 344.917969 216.324219 346.417969 215.90625 347.898438 C 215.488281 349.382812 214.980469 350.832031 214.382812 352.25 C 213.785156 353.667969 213.097656 355.042969 212.328125 356.375 C 211.558594 357.710938 210.710938 358.988281 209.78125 360.214844 C 208.851562 361.445312 207.847656 362.609375 206.773438 363.710938 C 205.699219 364.8125 204.558594 365.84375 203.355469 366.804688 C 202.152344 367.765625 200.894531 368.644531 199.582031 369.449219 L 127.652344 410.320312 C 124.996094 412.015625 122.15625 413.304688 119.132812 414.1875 C 116.109375 415.070312 113.019531 415.515625 109.871094 415.515625 Z M 109.871094 415.515625 " fill-opacity="1" fill-rule="nonzero"/><path fill="#df0700" d="M 420.402344 415.515625 C 417.261719 415.5 414.183594 415.054688 411.167969 414.179688 C 408.152344 413.304688 405.316406 412.03125 402.660156 410.363281 L 330.730469 369.449219 C 329.417969 368.644531 328.15625 367.765625 326.953125 366.804688 C 325.75 365.84375 324.609375 364.816406 323.535156 363.714844 C 322.460938 362.609375 321.457031 361.445312 320.527344 360.21875 C 319.597656 358.992188 318.746094 357.710938 317.976562 356.378906 C 317.207031 355.046875 316.523438 353.671875 315.925781 352.253906 C 315.324219 350.832031 314.816406 349.382812 314.402344 347.902344 C 313.984375 346.417969 313.660156 344.917969 313.429688 343.394531 C 313.199219 341.871094 313.066406 340.34375 313.027344 338.804688 L 313.027344 255.5 C 313.035156 253.949219 313.140625 252.402344 313.351562 250.867188 C 313.558594 249.332031 313.863281 247.8125 314.265625 246.316406 C 314.667969 244.820312 315.167969 243.355469 315.761719 241.921875 C 316.351562 240.488281 317.035156 239.101562 317.808594 237.757812 C 318.582031 236.414062 319.4375 235.125 320.375 233.890625 C 321.316406 232.65625 322.332031 231.488281 323.421875 230.386719 C 324.511719 229.285156 325.667969 228.257812 326.890625 227.304688 C 328.113281 226.351562 329.394531 225.480469 330.730469 224.691406 L 402.660156 182.382812 C 405.433594 181.070312 408.320312 180.074219 411.320312 179.402344 C 414.316406 178.730469 417.347656 178.394531 420.421875 178.394531 C 423.492188 178.394531 426.527344 178.730469 429.523438 179.402344 C 432.519531 180.074219 435.40625 181.070312 438.183594 182.382812 L 510.109375 224.734375 C 511.460938 225.503906 512.753906 226.363281 513.992188 227.304688 C 515.230469 228.246094 516.402344 229.265625 517.503906 230.363281 C 518.609375 231.457031 519.636719 232.621094 520.589844 233.851562 C 521.539062 235.082031 522.40625 236.371094 523.1875 237.714844 C 523.972656 239.058594 524.664062 240.449219 525.261719 241.882812 C 525.863281 243.320312 526.367188 244.789062 526.773438 246.289062 C 527.179688 247.789062 527.488281 249.3125 527.695312 250.851562 C 527.902344 252.394531 528.007812 253.941406 528.011719 255.5 L 528.011719 338.804688 C 527.980469 340.347656 527.851562 341.886719 527.621094 343.417969 C 527.394531 344.945312 527.070312 346.453125 526.648438 347.941406 C 526.230469 349.429688 525.71875 350.886719 525.113281 352.308594 C 524.507812 353.730469 523.816406 355.113281 523.035156 356.445312 C 522.253906 357.78125 521.394531 359.0625 520.453125 360.289062 C 519.507812 361.515625 518.492188 362.675781 517.402344 363.773438 C 516.3125 364.867188 515.15625 365.890625 513.9375 366.839844 C 512.71875 367.792969 511.441406 368.660156 510.109375 369.449219 L 438.183594 410.320312 C 435.535156 412.03125 432.695312 413.328125 429.667969 414.214844 C 426.644531 415.097656 423.554688 415.53125 420.402344 415.515625 Z M 420.402344 214.304688 L 348.472656 255.617188 L 348.472656 338.804688 L 420.402344 379.199219 L 492.328125 338.605469 L 492.328125 255.5 Z M 420.402344 214.304688 " fill-opacity="1" fill-rule="nonzero"/><path fill="#df0700" d="M 420.402344 415.515625 C 417.261719 415.5 414.183594 415.054688 411.167969 414.179688 C 408.152344 413.304688 405.316406 412.03125 402.660156 410.363281 L 330.730469 369.449219 C 329.417969 368.644531 328.15625 367.765625 326.953125 366.804688 C 325.75 365.84375 324.609375 364.816406 323.535156 363.714844 C 322.460938 362.609375 321.457031 361.445312 320.527344 360.21875 C 319.597656 358.992188 318.746094 357.710938 317.976562 356.378906 C 317.207031 355.046875 316.523438 353.671875 315.925781 352.253906 C 315.324219 350.832031 314.816406 349.382812 314.402344 347.902344 C 313.984375 346.417969 313.660156 344.917969 313.429688 343.394531 C 313.199219 341.871094 313.066406 340.34375 313.027344 338.804688 L 313.027344 255.5 C 313.035156 253.949219 313.140625 252.402344 313.351562 250.867188 C 313.558594 249.332031 313.863281 247.8125 314.265625 246.316406 C 314.667969 244.820312 315.167969 243.355469 315.761719 241.921875 C 316.351562 240.488281 317.035156 239.101562 317.808594 237.757812 C 318.582031 236.414062 319.4375 235.125 320.375 233.890625 C 321.316406 232.65625 322.332031 231.488281 323.421875 230.386719 C 324.511719 229.285156 325.667969 228.257812 326.890625 227.304688 C 328.113281 226.351562 329.394531 225.480469 330.730469 224.691406 L 402.660156 182.382812 C 405.433594 181.070312 408.320312 180.074219 411.320312 179.402344 C 414.316406 178.730469 417.347656 178.394531 420.421875 178.394531 C 423.492188 178.394531 426.527344 178.730469 429.523438 179.402344 C 432.519531 180.074219 435.40625 181.070312 438.183594 182.382812 L 510.109375 224.734375 C 511.460938 225.503906 512.753906 226.363281 513.992188 227.304688 C 515.230469 228.246094 516.402344 229.265625 517.503906 230.363281 C 518.609375 231.457031 519.636719 232.621094 520.589844 233.851562 C 521.539062 235.082031 522.40625 236.371094 523.1875 237.714844 C 523.972656 239.058594 524.664062 240.449219 525.261719 241.882812 C 525.863281 243.320312 526.367188 244.789062 526.773438 246.289062 C 527.179688 247.789062 527.488281 249.3125 527.695312 250.851562 C 527.902344 252.394531 528.007812 253.941406 528.011719 255.5 L 528.011719 338.804688 C 527.980469 340.347656 527.851562 341.886719 527.621094 343.417969 C 527.394531 344.945312 527.070312 346.453125 526.648438 347.941406 C 526.230469 349.429688 525.71875 350.886719 525.113281 352.308594 C 524.507812 353.730469 523.816406 355.113281 523.035156 356.445312 C 522.253906 357.78125 521.394531 359.0625 520.453125 360.289062 C 519.507812 361.515625 518.492188 362.675781 517.402344 363.773438 C 516.3125 364.867188 515.15625 365.890625 513.9375 366.839844 C 512.71875 367.792969 511.441406 368.660156 510.109375 369.449219 L 438.183594 410.320312 C 435.535156 412.03125 432.695312 413.328125 429.667969 414.214844 C 426.644531 415.097656 423.554688 415.53125 420.402344 415.515625 Z M 420.402344 415.515625 " fill-opacity="1" fill-rule="nonzero"/><path fill="#df0700" d="M 730.890625 415.515625 C 727.769531 415.46875 724.707031 415.011719 721.710938 414.136719 C 718.710938 413.261719 715.886719 412.003906 713.226562 410.363281 L 641.058594 369.449219 C 639.746094 368.644531 638.488281 367.761719 637.28125 366.804688 C 636.078125 365.84375 634.9375 364.8125 633.863281 363.710938 C 632.785156 362.609375 631.785156 361.445312 630.851562 360.21875 C 629.921875 358.992188 629.070312 357.710938 628.300781 356.378906 C 627.527344 355.042969 626.839844 353.667969 626.242188 352.25 C 625.640625 350.832031 625.128906 349.382812 624.710938 347.902344 C 624.289062 346.421875 623.964844 344.917969 623.730469 343.394531 C 623.496094 341.875 623.359375 340.34375 623.316406 338.804688 L 623.316406 255.5 C 623.332031 253.949219 623.449219 252.40625 623.660156 250.871094 C 623.875 249.335938 624.183594 247.820312 624.59375 246.324219 C 625 244.828125 625.503906 243.363281 626.097656 241.933594 C 626.695312 240.5 627.378906 239.113281 628.152344 237.769531 C 628.925781 236.425781 629.78125 235.140625 630.722656 233.90625 C 631.660156 232.671875 632.675781 231.503906 633.761719 230.402344 C 634.851562 229.296875 636.007812 228.269531 637.230469 227.3125 C 638.449219 226.359375 639.726562 225.484375 641.058594 224.691406 L 712.988281 182.382812 C 715.78125 181.066406 718.6875 180.074219 721.699219 179.402344 C 724.710938 178.730469 727.761719 178.394531 730.851562 178.394531 C 733.9375 178.394531 736.988281 178.730469 740 179.402344 C 743.015625 180.074219 745.917969 181.066406 748.710938 182.382812 L 820.640625 224.734375 C 822 225.496094 823.304688 226.347656 824.554688 227.285156 C 825.800781 228.222656 826.980469 229.234375 828.09375 230.328125 C 829.210938 231.421875 830.246094 232.582031 831.207031 233.8125 C 832.167969 235.042969 833.042969 236.328125 833.832031 237.675781 C 834.621094 239.019531 835.320312 240.410156 835.925781 241.847656 C 836.53125 243.285156 837.039062 244.757812 837.449219 246.261719 C 837.863281 247.769531 838.171875 249.292969 838.382812 250.839844 C 838.589844 252.386719 838.699219 253.9375 838.703125 255.5 L 838.703125 338.804688 C 838.671875 340.355469 838.539062 341.894531 838.308594 343.429688 C 838.078125 344.964844 837.753906 346.476562 837.328125 347.96875 C 836.90625 349.460938 836.390625 350.917969 835.777344 352.34375 C 835.167969 353.769531 834.46875 355.152344 833.679688 356.488281 C 832.894531 357.824219 832.023438 359.105469 831.074219 360.328125 C 830.121094 361.554688 829.09375 362.714844 827.996094 363.808594 C 826.894531 364.902344 825.730469 365.917969 824.5 366.863281 C 823.269531 367.808594 821.980469 368.667969 820.640625 369.449219 L 748.710938 410.320312 C 746.046875 412.007812 743.195312 413.292969 740.167969 414.175781 C 737.136719 415.058594 734.046875 415.503906 730.890625 415.515625 Z M 730.890625 415.515625 " fill-opacity="1" fill-rule="nonzero"/></svg>